RecursiveMonoVar-CasualMediumItalic.ufo
<glyph name="exclam" format="1">
  <advance width="600"/>
  <unicode hex="0021"/>
  <outline>
    <contour>
      <point x="340" y="264" type="line"/>
      <point x="370" y="336"/>
      <point x="401" y="427"/>
      <point x="419" y="499" type="curve"/>
      <point x="459" y="656" type="line" smooth="yes"/>
      <point x="468" y="695"/>
      <point x="439" y="710"/>
      <point x="383" y="710" type="curve" smooth="yes"/>
      <point x="366" y="710"/>
      <point x="353" y="709"/>
      <point x="338" y="705" type="curve"/>
      <point x="336" y="670"/>
      <point x="330" y="634"/>
      <point x="320" y="595" type="curve" smooth="yes"/>
      <point x="296" y="501" type="line"/>
      <point x="271" y="400"/>
      <point x="255" y="303"/>
      <point x="269" y="285" type="curve" smooth="yes"/>
      <point x="279" y="271"/>
      <point x="301" y="264"/>
      <point x="331" y="264" type="curve"/>
    </contour>
    <contour>
      <point x="316" y="2" type="curve"/>
      <point x="341" y="101" type="line" smooth="yes"/>
      <point x="353" y="149"/>
      <point x="312" y="164"/>
      <point x="256" y="164" type="curve" smooth="yes"/>
      <point x="234" y="164"/>
      <point x="210" y="161"/>
      <point x="190" y="154" type="curve"/>
      <point x="165" y="55" type="line" smooth="yes"/>
      <point x="153" y="7"/>
      <point x="194" y="-8"/>
      <point x="250" y="-8" type="curve" smooth="yes"/>
      <point x="272" y="-8"/>
      <point x="296" y="-4"/>
    </contour>
  </outline>
</glyph>
<glyph name="dollar" format="1">
  <advance width="600"/>
  <unicode hex="0024"/>
  <outline>
    <contour>
      <point x="486" y="720" type="curve" smooth="yes"/>
      <point x="323" y="720"/>
      <point x="168" y="617"/>
      <point x="139" y="500" type="curve" smooth="yes"/>
      <point x="136" y="489" type="line" smooth="yes"/>
      <point x="129" y="462"/>
      <point x="174" y="437"/>
      <point x="222" y="434" type="curve"/>
      <point x="222" y="456"/>
      <point x="227" y="478"/>
      <point x="232" y="499" type="curve" smooth="yes"/>
      <point x="250" y="569"/>
      <point x="366" y="622"/>
      <point x="466" y="622" type="curve" smooth="yes"/>
      <point x="530" y="622"/>
      <point x="565" y="608"/>
      <point x="594" y="584" type="curve"/>
      <point x="598" y="584" type="line"/>
      <point x="611" y="601"/>
      <point x="619" y="618"/>
      <point x="623" y="634" type="curve" smooth="yes"/>
      <point x="628" y="653"/>
      <point x="630" y="671"/>
      <point x="620" y="684" type="curve" smooth="yes"/>
      <point x="603" y="707"/>
      <point x="558" y="720"/>
    </contour>
    <contour>
      <point x="403" y="358" type="curve" smooth="yes"/>
      <point x="322" y="390" type="line" smooth="yes"/>
      <point x="228" y="428"/>
      <point x="222" y="459"/>
      <point x="232" y="499" type="curve" smooth="yes"/>
      <point x="238" y="524"/>
      <point x="244" y="542"/>
      <point x="256" y="566" type="curve"/>
      <point x="203" y="561"/>
      <point x="149" y="541"/>
      <point x="136" y="489" type="curve" smooth="yes"/>
      <point x="119" y="420"/>
      <point x="140" y="360"/>
      <point x="272" y="306" type="curve" smooth="yes"/>
      <point x="352" y="273" type="line" smooth="yes"/>
      <point x="425" y="243"/>
      <point x="441" y="207"/>
      <point x="424" y="140" type="curve" smooth="yes"/>
      <point x="421" y="128"/>
      <point x="420" y="122"/>
      <point x="419" y="118" type="curve"/>
      <point x="456" y="121"/>
      <point x="514" y="157"/>
      <point x="521" y="183" type="curve"/>
      <point x="536" y="245"/>
      <point x="511" y="314"/>
    </contour>
    <contour>
      <point x="229" y="-16" type="curve" smooth="yes"/>
      <point x="382" y="-16"/>
      <point x="491" y="63"/>
      <point x="518" y="173" type="curve" smooth="yes"/>
      <point x="521" y="183" type="line" smooth="yes"/>
      <point x="526" y="206"/>
      <point x="495" y="228"/>
      <point x="469" y="230" type="curve"/>
      <point x="468" y="226"/>
      <point x="467" y="222"/>
      <point x="465" y="214" type="curve" smooth="yes"/>
      <point x="445" y="138"/>
      <point x="359" y="83"/>
      <point x="254" y="83" type="curve" smooth="yes"/>
      <point x="151" y="83"/>
      <point x="88" y="113"/>
      <point x="51" y="173" type="curve"/>
      <point x="47" y="173" type="line"/>
      <point x="40" y="158"/>
      <point x="33" y="143"/>
      <point x="28" y="124" type="curve" smooth="yes"/>
      <point x="19" y="88"/>
      <point x="21" y="62"/>
      <point x="34" y="45" type="curve" smooth="yes"/>
      <point x="62" y="7"/>
      <point x="136" y="-16"/>
    </contour>
    <contour>
      <point x="389" y="421" type="line"/>
      <point x="543" y="800" type="line" smooth="yes"/>
      <point x="567" y="856"/>
      <point x="555" y="885"/>
      <point x="503" y="885" type="curve" smooth="yes"/>
      <point x="490" y="885"/>
      <point x="472" y="882"/>
      <point x="460" y="878" type="curve"/>
      <point x="461" y="852"/>
      <point x="461" y="827"/>
      <point x="448" y="785" type="curve"/>
      <point x="353" y="459" type="line" smooth="yes"/>
      <point x="345" y="435"/>
      <point x="363" y="421"/>
      <point x="385" y="421" type="curve" smooth="yes"/>
    </contour>
    <contour>
      <point x="272" y="244" type="line"/>
      <point x="125" y="-110" type="line" smooth="yes"/>
      <point x="100" y="-166"/>
      <point x="113" y="-195"/>
      <point x="165" y="-195" type="curve" smooth="yes"/>
      <point x="178" y="-195"/>
      <point x="196" y="-192"/>
      <point x="209" y="-188" type="curve"/>
      <point x="207" y="-162"/>
      <point x="208" y="-137"/>
      <point x="220" y="-95" type="curve"/>
      <point x="308" y="206" type="line" smooth="yes"/>
      <point x="315" y="230"/>
      <point x="298" y="244"/>
      <point x="276" y="244" type="curve" smooth="yes"/>
    </contour>
  </outline>
</glyph>
<glyph name="quotesingle" format="1">
  <advance width="600"/>
  <unicode hex="0027"/>
  <outline>
    <contour>
      <point x="391" y="442" type="curve"/>
      <point x="458" y="659" type="line" smooth="yes"/>
      <point x="478" y="725"/>
      <point x="456" y="754"/>
      <point x="384" y="754" type="curve" smooth="yes"/>
      <point x="371" y="754"/>
      <point x="359" y="752"/>
      <point x="347" y="750" type="curve"/>
      <point x="350" y="726"/>
      <point x="348" y="708"/>
      <point x="337" y="654" type="curve" smooth="yes"/>
      <point x="306" y="486" type="line" smooth="yes"/>
      <point x="299" y="452"/>
      <point x="314" y="439"/>
      <point x="358" y="439" type="curve" smooth="yes"/>
      <point x="371" y="439"/>
      <point x="382" y="440"/>
    </contour>
  </outline>
</glyph>
<glyph name="parenleft" format="1">
  <advance width="600"/>
  <unicode hex="0028"/>
  <outline>
    <contour>
      <point x="484" y="740" type="curve" smooth="yes"/>
      <point x="351" y="633"/>
      <point x="253" y="478"/>
      <point x="209" y="302" type="curve" smooth="yes"/>
      <point x="207" y="296" type="line" smooth="yes"/>
      <point x="163" y="120"/>
      <point x="184" y="-36"/>
      <point x="264" y="-142" type="curve" smooth="yes"/>
      <point x="280" y="-163"/>
      <point x="296" y="-172"/>
      <point x="319" y="-172" type="curve" smooth="yes"/>
      <point x="350" y="-172"/>
      <point x="373" y="-162"/>
      <point x="392" y="-149" type="curve"/>
      <point x="393" y="-145" type="line"/>
      <point x="301" y="-29"/>
      <point x="275" y="125"/>
      <point x="318" y="296" type="curve" smooth="yes"/>
      <point x="320" y="302" type="line" smooth="yes"/>
      <point x="362" y="471"/>
      <point x="464" y="627"/>
      <point x="615" y="742" type="curve"/>
      <point x="616" y="746" type="line"/>
      <point x="603" y="760"/>
      <point x="586" y="770"/>
      <point x="555" y="770" type="curve" smooth="yes"/>
      <point x="532" y="770"/>
      <point x="511" y="761"/>
    </contour>
  </outline>
</glyph>
<glyph name="parenright" format="1">
  <advance width="600"/>
  <unicode hex="0029"/>
  <outline>
    <contour>
      <point x="132" y="-142" type="curve" smooth="yes"/>
      <point x="265" y="-36"/>
      <point x="363" y="120"/>
      <point x="407" y="296" type="curve" smooth="yes"/>
      <point x="409" y="302" type="line" smooth="yes"/>
      <point x="453" y="478"/>
      <point x="432" y="634"/>
      <point x="352" y="740" type="curve" smooth="yes"/>
      <point x="336" y="761"/>
      <point x="320" y="770"/>
      <point x="297" y="770" type="curve" smooth="yes"/>
      <point x="266" y="770"/>
      <point x="244" y="760"/>
      <point x="224" y="746" type="curve"/>
      <point x="223" y="742" type="line"/>
      <point x="316" y="627"/>
      <point x="341" y="472"/>
      <point x="298" y="302" type="curve" smooth="yes"/>
      <point x="297" y="296" type="line" smooth="yes"/>
      <point x="254" y="126"/>
      <point x="152" y="-29"/>
      <point x="2" y="-145" type="curve"/>
      <point x="1" y="-149" type="line"/>
      <point x="13" y="-162"/>
      <point x="30" y="-172"/>
      <point x="61" y="-172" type="curve" smooth="yes"/>
      <point x="84" y="-172"/>
      <point x="105" y="-163"/>
    </contour>
  </outline>
</glyph>
<glyph name="asterisk" format="1">
  <advance width="600"/>
  <unicode hex="002A"/>
  <outline>
    <contour>
      <point x="319" y="570" type="curve"/>
      <point x="321" y="547"/>
      <point x="323" y="526"/>
      <point x="318" y="494" type="curve" smooth="yes"/>
      <point x="289" y="309" type="line"/>
      <point x="218" y="130" type="line" smooth="yes"/>
      <point x="194" y="74"/>
      <point x="205" y="43"/>
      <point x="261" y="43" type="curve"/>
      <point x="275" y="43"/>
      <point x="290" y="45"/>
      <point x="305" y="49" type="curve"/>
      <point x="303" y="72"/>
      <point x="302" y="93"/>
      <point x="306" y="124" type="curve" smooth="yes"/>
      <point x="335" y="309" type="line"/>
      <point x="405" y="489" type="line" smooth="yes"/>
      <point x="430" y="545"/>
      <point x="418" y="577"/>
      <point x="362" y="577" type="curve" smooth="yes"/>
      <point x="349" y="576"/>
      <point x="335" y="574"/>
    </contour>
    <contour>
      <point x="559" y="483" type="curve"/>
      <point x="302" y="330" type="line"/>
      <point x="81" y="242" type="line" smooth="yes"/>
      <point x="52" y="231"/>
      <point x="40" y="200"/>
      <point x="51" y="169" type="curve"/>
      <point x="55" y="157"/>
      <point x="61" y="148"/>
      <point x="67" y="139" type="curve"/>
      <point x="323" y="292" type="line"/>
      <point x="545" y="381" type="line" smooth="yes"/>
      <point x="574" y="392"/>
      <point x="584" y="420"/>
      <point x="574" y="453" type="curve" smooth="yes"/>
      <point x="571" y="463"/>
      <point x="567" y="471"/>
    </contour>
    <contour>
      <point x="540" y="222" type="curve"/>
      <point x="332" y="330" type="line"/>
      <point x="182" y="460" type="line" smooth="yes"/>
      <point x="163" y="479"/>
      <point x="135" y="468"/>
      <point x="107" y="436" type="curve"/>
      <point x="98" y="425"/>
      <point x="91" y="412"/>
      <point x="84" y="401" type="curve"/>
      <point x="291" y="292" type="line"/>
      <point x="442" y="160" type="line" smooth="yes"/>
      <point x="461" y="142"/>
      <point x="489" y="153"/>
      <point x="518" y="187" type="curve"/>
      <point x="526" y="198"/>
      <point x="533" y="207"/>
    </contour>
  </outline>
</glyph>
<glyph name="plus" format="1">
  <advance width="600"/>
  <unicode hex="002B"/>
  <outline>
    <contour>
      <point x="75" y="349" type="line"/>
      <point x="74" y="345"/>
      <point x="73" y="340"/>
      <point x="72" y="335" type="curve" smooth="yes"/>
      <point x="63" y="298"/>
      <point x="62" y="276"/>
      <point x="72" y="263" type="curve" smooth="yes"/>
      <point x="79" y="254"/>
      <point x="90" y="251"/>
      <point x="114" y="251" type="curve"/>
      <point x="543" y="251" type="line"/>
      <point x="548" y="262"/>
      <point x="553" y="276"/>
      <point x="555" y="286" type="curve" smooth="yes"/>
      <point x="566" y="330"/>
      <point x="560" y="349"/>
      <point x="524" y="349" type="curve"/>
    </contour>
    <contour>
      <point x="298" y="58" type="curve"/>
      <point x="396" y="451" type="line" smooth="yes"/>
      <point x="406" y="490"/>
      <point x="406" y="509"/>
      <point x="394" y="525" type="curve" smooth="yes"/>
      <point x="382" y="540"/>
      <point x="358" y="545"/>
      <point x="338" y="545" type="curve" smooth="yes"/>
      <point x="328" y="545"/>
      <point x="318" y="544"/>
      <point x="308" y="541" type="curve"/>
      <point x="309" y="510"/>
      <point x="307" y="488"/>
      <point x="296" y="445" type="curve" smooth="yes"/>
      <point x="209" y="97" type="line" smooth="yes"/>
      <point x="200" y="62"/>
      <point x="225" y="55"/>
      <point x="264" y="55" type="curve" smooth="yes"/>
      <point x="276" y="55"/>
      <point x="288" y="56"/>
    </contour>
  </outline>
</glyph>
<glyph name="comma" format="1">
  <advance width="600"/>
  <unicode hex="002C"/>
  <outline>
    <contour>
      <point x="143" y="-195" type="curve" smooth="yes"/>
      <point x="159" y="-195"/>
      <point x="168" y="-192"/>
      <point x="179" y="-183" type="curve"/>
      <point x="246" y="-130"/>
      <point x="323" y="-20"/>
      <point x="350" y="90" type="curve"/>
      <point x="361" y="131"/>
      <point x="335" y="146"/>
      <point x="281" y="146" type="curve" smooth="yes"/>
      <point x="261" y="146"/>
      <point x="247" y="144"/>
      <point x="227" y="139" type="curve"/>
      <point x="191" y="-3"/>
      <point x="151" y="-84"/>
      <point x="75" y="-172" type="curve"/>
      <point x="93" y="-188"/>
      <point x="111" y="-195"/>
    </contour>
  </outline>
</glyph>
<glyph name="period" format="1">
  <advance width="600"/>
  <unicode hex="002E"/>
  <outline>
    <contour>
      <point x="316" y="2" type="curve"/>
      <point x="341" y="101" type="line" smooth="yes"/>
      <point x="353" y="149"/>
      <point x="312" y="164"/>
      <point x="256" y="164" type="curve" smooth="yes"/>
      <point x="234" y="164"/>
      <point x="210" y="161"/>
      <point x="190" y="154" type="curve"/>
      <point x="165" y="55" type="line" smooth="yes"/>
      <point x="153" y="7"/>
      <point x="194" y="-8"/>
      <point x="250" y="-8" type="curve" smooth="yes"/>
      <point x="272" y="-8"/>
      <point x="296" y="-4"/>
    </contour>
  </outline>
</glyph>
<glyph name="slash" format="1">
  <advance width="600"/>
  <unicode hex="002F"/>
  <outline>
    <contour>
      <point x="659" y="750" type="curve"/>
      <point x="645" y="758"/>
      <point x="633" y="762"/>
      <point x="615" y="762" type="curve" smooth="yes"/>
      <point x="579" y="762"/>
      <point x="549" y="750"/>
      <point x="534" y="720" type="curve" smooth="yes"/>
      <point x="398" y="443"/>
      <point x="234" y="187"/>
      <point x="44" y="-46" type="curve" smooth="yes"/>
      <point x="17" y="-79"/>
      <point x="-4" y="-102"/>
      <point x="-30" y="-123" type="curve"/>
      <point x="-14" y="-133"/>
      <point x="1" y="-137"/>
      <point x="24" y="-137" type="curve" smooth="yes"/>
      <point x="60" y="-137"/>
      <point x="91" y="-122"/>
      <point x="122" y="-85" type="curve"/>
      <point x="327" y="157"/>
      <point x="506" y="435"/>
    </contour>
  </outline>
</glyph>
<glyph name="zero" format="1">
  <advance width="600"/>
  <unicode hex="0030"/>
  <outline>
    <contour>
      <point x="408" y="720" type="curve" smooth="yes"/>
      <point x="271" y="720"/>
      <point x="148" y="612"/>
      <point x="91" y="379" type="curve" smooth="yes"/>
      <point x="80" y="333" type="line" smooth="yes"/>
      <point x="27" y="119"/>
      <point x="94" y="-20"/>
      <point x="234" y="-20" type="curve"/>
      <point x="266" y="-20"/>
      <point x="288" y="8"/>
      <point x="296" y="41" type="curve"/>
      <point x="152" y="51"/>
      <point x="143" y="183"/>
      <point x="175" y="316" type="curve" smooth="yes"/>
      <point x="185" y="360" type="line" smooth="yes"/>
      <point x="223" y="520"/>
      <point x="296" y="624"/>
      <point x="398" y="624" type="curve" smooth="yes"/>
      <point x="440" y="624"/>
      <point x="469" y="615"/>
      <point x="495" y="597" type="curve"/>
      <point x="528" y="634"/>
      <point x="484" y="720"/>
    </contour>
    <contour>
      <point x="234" y="-20" type="curve" smooth="yes"/>
      <point x="372" y="-20"/>
      <point x="490" y="81"/>
      <point x="544" y="301" type="curve" smooth="yes"/>
      <point x="555" y="347" type="line" smooth="yes"/>
      <point x="612" y="578"/>
      <point x="549" y="720"/>
      <point x="408" y="720" type="curve"/>
      <point x="377" y="720"/>
      <point x="355" y="692"/>
      <point x="347" y="659" type="curve"/>
      <point x="490" y="649"/>
      <point x="498" y="513"/>
      <point x="461" y="362" type="curve" smooth="yes"/>
      <point x="450" y="318" type="line" smooth="yes"/>
      <point x="414" y="173"/>
      <point x="348" y="76"/>
      <point x="245" y="76" type="curve" smooth="yes"/>
      <point x="203" y="76"/>
      <point x="169" y="85"/>
      <point x="142" y="106" type="curve"/>
      <point x="109" y="66"/>
      <point x="159" y="-20"/>
    </contour>
    <contour>
      <point x="118" y="159" type="curve"/>
      <point x="265" y="251"/>
      <point x="379" y="340"/>
      <point x="502" y="463" type="curve"/>
      <point x="530" y="490"/>
      <point x="539" y="534"/>
      <point x="519" y="563" type="curve"/>
      <point x="377" y="418"/>
      <point x="261" y="327"/>
      <point x="119" y="232" type="curve" smooth="yes"/>
      <point x="100" y="221"/>
      <point x="103" y="182"/>
    </contour>
  </outline>
</glyph>
<glyph name="one" format="1">
  <advance width="600"/>
  <unicode hex="0031"/>
  <outline>
    <contour>
      <point x="334" y="48" type="curve"/>
      <point x="387" y="257"/>
      <point x="440" y="468"/>
      <point x="492" y="676" type="curve" smooth="yes"/>
      <point x="498" y="702"/>
      <point x="463" y="710"/>
      <point x="419" y="710" type="curve" smooth="yes"/>
      <point x="402" y="710" type="line"/>
      <point x="356" y="529"/>
      <point x="309" y="342"/>
      <point x="264" y="161" type="curve" smooth="yes"/>
      <point x="243" y="77"/>
      <point x="277" y="48"/>
    </contour>
    <contour>
      <point x="42" y="96" type="line"/>
      <point x="39" y="91"/>
      <point x="37" y="86"/>
      <point x="36" y="79" type="curve" smooth="yes"/>
      <point x="27" y="44"/>
      <point x="28" y="26"/>
      <point x="37" y="13" type="curve" smooth="yes"/>
      <point x="44" y="3"/>
      <point x="55" y="0"/>
      <point x="83" y="0" type="curve" smooth="yes"/>
      <point x="493" y="0" type="line"/>
      <point x="497" y="8"/>
      <point x="500" y="16"/>
      <point x="502" y="25" type="curve" smooth="yes"/>
      <point x="513" y="67"/>
      <point x="450" y="96"/>
      <point x="329" y="96" type="curve" smooth="yes"/>
    </contour>
    <contour>
      <point x="171" y="445" type="curve" smooth="yes"/>
      <point x="198" y="445"/>
      <point x="253" y="476"/>
      <point x="298" y="512" type="curve" smooth="yes"/>
      <point x="356" y="558"/>
      <point x="406" y="622"/>
      <point x="417" y="667" type="curve" smooth="yes"/>
      <point x="424" y="696"/>
      <point x="415" y="710"/>
      <point x="404" y="710" type="curve"/>
      <point x="381" y="710" type="line"/>
      <point x="350" y="675"/>
      <point x="321" y="645"/>
      <point x="284" y="615" type="curve"/>
      <point x="240" y="580"/>
      <point x="200" y="556"/>
      <point x="154" y="536" type="curve"/>
      <point x="149" y="520" type="line" smooth="yes"/>
      <point x="135" y="470"/>
      <point x="153" y="445"/>
    </contour>
  </outline>
</glyph>
<glyph name="two" format="1">
  <advance width="600"/>
  <unicode hex="0032"/>
  <outline>
    <contour>
      <point x="457" y="641" type="curve"/>
      <point x="484" y="604"/>
      <point x="496" y="573"/>
      <point x="483" y="522" type="curve" smooth="yes"/>
      <point x="465" y="447"/>
      <point x="410" y="396"/>
      <point x="273" y="321" type="curve" smooth="yes"/>
      <point x="105" y="229"/>
      <point x="38" y="169"/>
      <point x="16" y="79" type="curve" smooth="yes"/>
      <point x="10" y="54"/>
      <point x="38" y="45"/>
      <point x="98" y="45" type="curve"/>
      <point x="118" y="125"/>
      <point x="157" y="161"/>
      <point x="332" y="253" type="curve" smooth="yes"/>
      <point x="482" y="333"/>
      <point x="556" y="395"/>
      <point x="584" y="508" type="curve" smooth="yes"/>
      <point x="586" y="517" type="line" smooth="yes"/>
      <point x="608" y="603"/>
      <point x="558" y="676"/>
    </contour>
    <contour>
      <point x="468" y="0" type="line"/>
      <point x="473" y="11"/>
      <point x="477" y="24"/>
      <point x="480" y="36" type="curve" smooth="yes"/>
      <point x="490" y="77"/>
      <point x="484" y="96"/>
      <point x="448" y="96" type="curve" smooth="yes"/>
      <point x="119" y="96" type="line" smooth="yes"/>
      <point x="78" y="96"/>
      <point x="47" y="93"/>
      <point x="16" y="79" type="curve"/>
      <point x="16" y="77"/>
      <point x="15" y="76"/>
      <point x="15" y="75" type="curve" smooth="yes"/>
      <point x="7" y="44"/>
      <point x="19" y="0"/>
      <point x="43" y="0" type="curve" smooth="yes"/>
    </contour>
    <contour>
      <point x="414" y="720" type="curve" smooth="yes"/>
      <point x="337" y="720"/>
      <point x="272" y="705"/>
      <point x="228" y="671" type="curve" smooth="yes"/>
      <point x="194" y="644"/>
      <point x="169" y="609"/>
      <point x="159" y="570" type="curve" smooth="yes"/>
      <point x="154" y="547"/>
      <point x="159" y="521"/>
      <point x="167" y="507" type="curve"/>
      <point x="172" y="507" type="line"/>
      <point x="232" y="586"/>
      <point x="303" y="624"/>
      <point x="394" y="624" type="curve" smooth="yes"/>
      <point x="487" y="624"/>
      <point x="538" y="575"/>
      <point x="523" y="516" type="curve" smooth="yes"/>
      <point x="518" y="496"/>
      <point x="511" y="477"/>
      <point x="500" y="457" type="curve"/>
      <point x="540" y="457"/>
      <point x="577" y="480"/>
      <point x="586" y="517" type="curve" smooth="yes"/>
      <point x="617" y="641"/>
      <point x="542" y="720"/>
    </contour>
  </outline>
</glyph>
<glyph name="three" format="1">
  <advance width="600"/>
  <unicode hex="0033"/>
  <outline>
    <contour>
      <point x="374" y="623" type="curve" smooth="yes"/>
      <point x="493" y="623"/>
      <point x="535" y="559"/>
      <point x="513" y="475" type="curve" smooth="yes"/>
      <point x="511" y="464"/>
      <point x="507" y="453"/>
      <point x="501" y="441" type="curve"/>
      <point x="530" y="442"/>
      <point x="580" y="479"/>
      <point x="588" y="512" type="curve" smooth="yes"/>
      <point x="591" y="524" type="line" smooth="yes"/>
      <point x="618" y="630"/>
      <point x="545" y="719"/>
      <point x="399" y="719" type="curve" smooth="yes"/>
      <point x="313" y="719"/>
      <point x="252" y="702"/>
      <point x="210" y="671" type="curve" smooth="yes"/>
      <point x="180" y="647"/>
      <point x="166" y="631"/>
      <point x="158" y="597" type="curve" smooth="yes"/>
      <point x="153" y="579"/>
      <point x="154" y="559"/>
      <point x="157" y="540" type="curve"/>
      <point x="161" y="540" type="line"/>
      <point x="231" y="604"/>
      <point x="286" y="623"/>
    </contour>
    <contour>
      <point x="217" y="310" type="curve" smooth="yes"/>
      <point x="419" y="310"/>
      <point x="557" y="391"/>
      <point x="588" y="512" type="curve" smooth="yes"/>
      <point x="596" y="545"/>
      <point x="544" y="591"/>
      <point x="514" y="592" type="curve"/>
      <point x="513" y="582"/>
      <point x="511" y="573"/>
      <point x="508" y="560" type="curve" smooth="yes"/>
      <point x="475" y="422"/>
      <point x="351" y="369"/>
      <point x="199" y="369" type="curve"/>
      <point x="194" y="358"/>
      <point x="190" y="350"/>
      <point x="188" y="336" type="curve" smooth="yes"/>
      <point x="183" y="319"/>
      <point x="204" y="310"/>
    </contour>
    <contour>
      <point x="208" y="283" type="curve" smooth="yes"/>
      <point x="348" y="279"/>
      <point x="443" y="231"/>
      <point x="420" y="140" type="curve" smooth="yes"/>
      <point x="418" y="129"/>
      <point x="416" y="123"/>
      <point x="412" y="115" type="curve"/>
      <point x="452" y="117"/>
      <point x="504" y="134"/>
      <point x="511" y="158" type="curve" smooth="yes"/>
      <point x="542" y="286"/>
      <point x="415" y="348"/>
      <point x="194" y="348" type="curve"/>
      <point x="190" y="343"/>
      <point x="189" y="341"/>
      <point x="188" y="336" type="curve" smooth="yes"/>
      <point x="179" y="303"/>
      <point x="183" y="285"/>
    </contour>
    <contour>
      <point x="242" y="76" type="curve" smooth="yes"/>
      <point x="145" y="76"/>
      <point x="91" y="104"/>
      <point x="50" y="169" type="curve"/>
      <point x="46" y="169" type="line"/>
      <point x="38" y="153"/>
      <point x="33" y="141"/>
      <point x="28" y="120" type="curve" smooth="yes"/>
      <point x="19" y="85"/>
      <point x="21" y="68"/>
      <point x="37" y="47" type="curve" smooth="yes"/>
      <point x="65" y="10"/>
      <point x="135" y="-20"/>
      <point x="232" y="-20" type="curve" smooth="yes"/>
      <point x="382" y="-20"/>
      <point x="481" y="39"/>
      <point x="508" y="146" type="curve" smooth="yes"/>
      <point x="511" y="158" type="line" smooth="yes"/>
      <point x="519" y="190"/>
      <point x="480" y="237"/>
      <point x="452" y="239" type="curve"/>
      <point x="451" y="230"/>
      <point x="448" y="220"/>
      <point x="446" y="209" type="curve" smooth="yes"/>
      <point x="424" y="123"/>
      <point x="364" y="76"/>
    </contour>
  </outline>
</glyph>
<glyph name="four" format="1">
  <advance width="600"/>
  <unicode hex="0034"/>
  <outline>
    <contour>
      <point x="114" y="211" type="curve"/>
      <point x="219" y="377"/>
      <point x="439" y="588"/>
      <point x="614" y="681" type="curve"/>
      <point x="615" y="685" type="line"/>
      <point x="600" y="702"/>
      <point x="570" y="713"/>
      <point x="524" y="713" type="curve" smooth="yes"/>
      <point x="492" y="713"/>
      <point x="467" y="706"/>
      <point x="398" y="655" type="curve" smooth="yes"/>
      <point x="223" y="524"/>
      <point x="60" y="323"/>
      <point x="39" y="239" type="curve" smooth="yes"/>
      <point x="34" y="220"/>
      <point x="80" y="211"/>
    </contour>
    <contour>
      <point x="537" y="152" type="line"/>
      <point x="540" y="161"/>
      <point x="544" y="172"/>
      <point x="546" y="180" type="curve" smooth="yes"/>
      <point x="554" y="213"/>
      <point x="556" y="248"/>
      <point x="529" y="248" type="curve" smooth="yes"/>
      <point x="312" y="248" type="line"/>
      <point x="232" y="248"/>
      <point x="127" y="246"/>
      <point x="39" y="239" type="curve"/>
      <point x="36" y="229" type="line" smooth="yes"/>
      <point x="29" y="198"/>
      <point x="33" y="176"/>
      <point x="42" y="162" type="curve" smooth="yes"/>
      <point x="48" y="155"/>
      <point x="54" y="152"/>
      <point x="68" y="152" type="curve" smooth="yes"/>
    </contour>
    <contour>
      <point x="428" y="-4" type="curve"/>
      <point x="428" y="30"/>
      <point x="432" y="55"/>
      <point x="442" y="98" type="curve" smooth="yes"/>
      <point x="507" y="357" type="line" smooth="yes"/>
      <point x="511" y="375"/>
      <point x="487" y="396"/>
      <point x="449" y="396" type="curve" smooth="yes"/>
      <point x="442" y="396" type="line"/>
      <point x="413" y="334"/>
      <point x="378" y="255"/>
      <point x="363" y="194" type="curve"/>
      <point x="329" y="58" type="line" smooth="yes"/>
      <point x="317" y="9"/>
      <point x="339" y="-8"/>
      <point x="384" y="-8" type="curve" smooth="yes"/>
      <point x="404" y="-8"/>
      <point x="418" y="-7"/>
    </contour>
  </outline>
</glyph>
<glyph name="five" format="1">
  <advance width="600"/>
  <unicode hex="0035"/>
  <outline>
    <contour>
      <point x="208" y="700" type="line"/>
      <point x="206" y="694"/>
      <point x="205" y="688"/>
      <point x="204" y="681" type="curve" smooth="yes"/>
      <point x="195" y="646"/>
      <point x="196" y="630"/>
      <point x="206" y="616" type="curve" smooth="yes"/>
      <point x="213" y="606"/>
      <point x="224" y="604"/>
      <point x="243" y="604" type="curve" smooth="yes"/>
      <point x="596" y="604" type="line"/>
      <point x="601" y="614"/>
      <point x="605" y="627"/>
      <point x="609" y="640" type="curve" smooth="yes"/>
      <point x="620" y="681"/>
      <point x="613" y="700"/>
      <point x="577" y="700" type="curve" smooth="yes"/>
    </contour>
    <contour>
      <point x="197" y="295" type="line"/>
      <point x="354" y="663" type="line" smooth="yes"/>
      <point x="364" y="687"/>
      <point x="336" y="700"/>
      <point x="289" y="700" type="curve" smooth="yes"/>
      <point x="269" y="700" type="line"/>
      <point x="111" y="328" type="line" smooth="yes"/>
      <point x="100" y="304"/>
      <point x="135" y="295"/>
      <point x="187" y="295" type="curve" smooth="yes"/>
    </contour>
    <contour>
      <point x="175" y="375" type="curve"/>
      <point x="152" y="320"/>
      <point x="169" y="295"/>
      <point x="197" y="295" type="curve"/>
      <point x="199" y="295"/>
      <point x="200" y="295"/>
      <point x="203" y="295" type="curve" smooth="yes"/>
      <point x="374" y="295"/>
      <point x="461" y="252"/>
      <point x="435" y="147" type="curve" smooth="yes"/>
      <point x="430" y="132"/>
      <point x="427" y="122"/>
      <point x="421" y="108" type="curve"/>
      <point x="458" y="108"/>
      <point x="502" y="130"/>
      <point x="513" y="172" type="curve" smooth="yes"/>
      <point x="542" y="288"/>
      <point x="465" y="375"/>
      <point x="208" y="375" type="curve" smooth="yes"/>
      <point x="197" y="375"/>
      <point x="186" y="375"/>
    </contour>
    <contour>
      <point x="233" y="-20" type="curve" smooth="yes"/>
      <point x="383" y="-20"/>
      <point x="481" y="43"/>
      <point x="509" y="158" type="curve" smooth="yes"/>
      <point x="513" y="172" type="line" smooth="yes"/>
      <point x="521" y="206"/>
      <point x="494" y="252"/>
      <point x="463" y="256" type="curve"/>
      <point x="463" y="246"/>
      <point x="461" y="237"/>
      <point x="459" y="227" type="curve" smooth="yes"/>
      <point x="457" y="220" type="line" smooth="yes"/>
      <point x="434" y="128"/>
      <point x="360" y="76"/>
      <point x="242" y="76" type="curve" smooth="yes"/>
      <point x="145" y="76"/>
      <point x="89" y="109"/>
      <point x="46" y="166" type="curve"/>
      <point x="42" y="166" type="line"/>
      <point x="37" y="155"/>
      <point x="32" y="141"/>
      <point x="28" y="125" type="curve" smooth="yes"/>
      <point x="20" y="95"/>
      <point x="23" y="68"/>
      <point x="37" y="48" type="curve" smooth="yes"/>
      <point x="66" y="9"/>
      <point x="131" y="-20"/>
    </contour>
  </outline>
</glyph>
<glyph name="eight" format="1">
  <advance width="600"/>
  <unicode hex="0038"/>
  <outline>
    <contour>
      <point x="393" y="332" type="curve" smooth="yes"/>
      <point x="313" y="364" type="line" smooth="yes"/>
      <point x="225" y="400"/>
      <point x="211" y="460"/>
      <point x="226" y="517" type="curve" smooth="yes"/>
      <point x="231" y="538"/>
      <point x="239" y="566"/>
      <point x="254" y="599" type="curve"/>
      <point x="202" y="593"/>
      <point x="149" y="573"/>
      <point x="136" y="523" type="curve" smooth="yes"/>
      <point x="118" y="448"/>
      <point x="141" y="355"/>
      <point x="268" y="303" type="curve" smooth="yes"/>
      <point x="348" y="270" type="line" smooth="yes"/>
      <point x="424" y="239"/>
      <point x="435" y="197"/>
      <point x="416" y="121" type="curve" smooth="yes"/>
      <point x="414" y="112"/>
      <point x="412" y="103"/>
      <point x="409" y="92" type="curve"/>
      <point x="446" y="95"/>
      <point x="502" y="123"/>
      <point x="510" y="151" type="curve"/>
      <point x="523" y="206"/>
      <point x="505" y="288"/>
    </contour>
    <contour>
      <point x="240" y="-20" type="curve" smooth="yes"/>
      <point x="398" y="-20"/>
      <point x="479" y="35"/>
      <point x="507" y="142" type="curve" smooth="yes"/>
      <point x="510" y="151" type="line" smooth="yes"/>
      <point x="515" y="170"/>
      <point x="482" y="213"/>
      <point x="455" y="215" type="curve"/>
      <point x="454" y="208"/>
      <point x="454" y="203"/>
      <point x="451" y="192" type="curve" smooth="yes"/>
      <point x="433" y="115"/>
      <point x="367" y="74"/>
      <point x="252" y="74" type="curve" smooth="yes"/>
      <point x="158" y="74"/>
      <point x="126" y="106"/>
      <point x="94" y="162" type="curve"/>
      <point x="25" y="90"/>
      <point x="106" y="-20"/>
    </contour>
    <contour>
      <point x="408" y="720" type="curve" smooth="yes"/>
      <point x="264" y="720"/>
      <point x="164" y="645"/>
      <point x="138" y="529" type="curve" smooth="yes"/>
      <point x="136" y="523" type="line" smooth="yes"/>
      <point x="129" y="489"/>
      <point x="169" y="451"/>
      <point x="215" y="448" type="curve"/>
      <point x="217" y="468"/>
      <point x="220" y="493"/>
      <point x="226" y="517" type="curve" smooth="yes"/>
      <point x="247" y="603"/>
      <point x="326" y="631"/>
      <point x="395" y="631" type="curve" smooth="yes"/>
      <point x="453" y="631"/>
      <point x="502" y="610"/>
      <point x="532" y="571" type="curve"/>
      <point x="594" y="627"/>
      <point x="487" y="720"/>
    </contour>
    <contour>
      <point x="360" y="319" type="curve" smooth="yes"/>
      <point x="439" y="319"/>
      <point x="564" y="397"/>
      <point x="593" y="508" type="curve" smooth="yes"/>
      <point x="595" y="516" type="line" smooth="yes"/>
      <point x="626" y="637"/>
      <point x="543" y="720"/>
      <point x="408" y="720" type="curve" smooth="yes"/>
      <point x="393" y="720"/>
      <point x="373" y="712"/>
      <point x="359" y="670" type="curve"/>
      <point x="464" y="670"/>
      <point x="525" y="611"/>
      <point x="501" y="515" type="curve" smooth="yes"/>
      <point x="499" y="507" type="line" smooth="yes"/>
      <point x="480" y="431"/>
      <point x="416" y="384"/>
      <point x="297" y="345" type="curve"/>
      <point x="317" y="327"/>
      <point x="334" y="319"/>
    </contour>
    <contour>
      <point x="298" y="33" type="curve"/>
      <point x="155" y="33"/>
      <point x="110" y="100"/>
      <point x="121" y="146" type="curve" smooth="yes"/>
      <point x="123" y="154" type="line" smooth="yes"/>
      <point x="140" y="228"/>
      <point x="208" y="272"/>
      <point x="331" y="299" type="curve"/>
      <point x="312" y="319"/>
      <point x="301" y="331"/>
      <point x="271" y="331" type="curve" smooth="yes"/>
      <point x="183" y="331"/>
      <point x="64" y="274"/>
      <point x="40" y="176" type="curve" smooth="yes"/>
      <point x="38" y="168" type="line" smooth="yes"/>
      <point x="13" y="72"/>
      <point x="81" y="-20"/>
      <point x="240" y="-20" type="curve" smooth="yes"/>
      <point x="268" y="-20"/>
      <point x="290" y="2"/>
    </contour>
  </outline>
</glyph>
<glyph name="nine" format="1">
  <advance width="600"/>
  <unicode hex="0039"/>
  <outline>
    <contour>
      <point x="527" y="560" type="curve"/>
      <point x="571" y="624"/>
      <point x="493" y="720"/>
      <point x="397" y="720" type="curve"/>
      <point x="261" y="720"/>
      <point x="155" y="640"/>
      <point x="115" y="479" type="curve" smooth="yes"/>
      <point x="112" y="469" type="line" smooth="yes"/>
      <point x="83" y="352"/>
      <point x="158" y="280"/>
      <point x="222" y="314" type="curve"/>
      <point x="192" y="353"/>
      <point x="193" y="398"/>
      <point x="207" y="456" type="curve" smooth="yes"/>
      <point x="208" y="462" type="line" smooth="yes"/>
      <point x="234" y="563"/>
      <point x="299" y="626"/>
      <point x="388" y="626" type="curve" smooth="yes"/>
      <point x="451" y="626"/>
      <point x="491" y="607"/>
    </contour>
    <contour>
      <point x="417" y="154" type="curve"/>
      <point x="347" y="99"/>
      <point x="285" y="76"/>
      <point x="209" y="76" type="curve" smooth="yes"/>
      <point x="145" y="76"/>
      <point x="98" y="93"/>
      <point x="62" y="123" type="curve"/>
      <point x="58" y="123" type="line"/>
      <point x="51" y="112"/>
      <point x="46" y="101"/>
      <point x="43" y="85" type="curve" smooth="yes"/>
      <point x="36" y="52"/>
      <point x="40" y="35"/>
      <point x="49" y="23" type="curve" smooth="yes"/>
      <point x="65" y="3"/>
      <point x="119" y="-20"/>
      <point x="200" y="-20" type="curve" smooth="yes"/>
      <point x="315" y="-20"/>
      <point x="430" y="58"/>
    </contour>
    <contour>
      <point x="559" y="356" type="curve" smooth="yes"/>
      <point x="561" y="366" type="line" smooth="yes"/>
      <point x="618" y="596"/>
      <point x="552" y="720"/>
      <point x="397" y="720" type="curve" smooth="yes"/>
      <point x="383" y="720"/>
      <point x="364" y="712"/>
      <point x="353" y="669" type="curve"/>
      <point x="488" y="650"/>
      <point x="508" y="554"/>
      <point x="462" y="369" type="curve" smooth="yes"/>
      <point x="459" y="359" type="line" smooth="yes"/>
      <point x="402" y="130"/>
      <point x="338" y="60"/>
      <point x="173" y="32" type="curve"/>
      <point x="166" y="-1"/>
      <point x="181" y="-20"/>
      <point x="200" y="-20" type="curve" smooth="yes"/>
      <point x="370" y="-20"/>
      <point x="485" y="62"/>
    </contour>
    <contour>
      <point x="276" y="236" type="curve" smooth="yes"/>
      <point x="347" y="236"/>
      <point x="410" y="252"/>
      <point x="452" y="288" type="curve" smooth="yes"/>
      <point x="470" y="304"/>
      <point x="479" y="324"/>
      <point x="488" y="373" type="curve"/>
      <point x="427" y="335"/>
      <point x="367" y="318"/>
      <point x="302" y="318" type="curve" smooth="yes"/>
      <point x="195" y="318"/>
      <point x="144" y="380"/>
      <point x="169" y="478" type="curve" smooth="yes"/>
      <point x="174" y="498"/>
      <point x="179" y="513"/>
      <point x="189" y="530" type="curve"/>
      <point x="157" y="530"/>
      <point x="123" y="511"/>
      <point x="112" y="469" type="curve" smooth="yes"/>
      <point x="75" y="321"/>
      <point x="149" y="236"/>
    </contour>
  </outline>
</glyph>
<glyph name="colon" format="1">
  <advance width="600"/>
  <unicode hex="003A"/>
  <outline>
    <contour>
      <point x="411" y="380" type="curve"/>
      <point x="435" y="478" type="line" smooth="yes"/>
      <point x="447" y="526"/>
      <point x="406" y="542"/>
      <point x="351" y="542" type="curve" smooth="yes"/>
      <point x="328" y="542"/>
      <point x="304" y="538"/>
      <point x="284" y="532" type="curve"/>
      <point x="259" y="433" type="line" smooth="yes"/>
      <point x="247" y="385"/>
      <point x="289" y="370"/>
      <point x="344" y="370" type="curve" smooth="yes"/>
      <point x="367" y="370"/>
      <point x="390" y="373"/>
    </contour>
    <contour>
      <point x="316" y="2" type="curve"/>
      <point x="341" y="101" type="line" smooth="yes"/>
      <point x="353" y="149"/>
      <point x="312" y="164"/>
      <point x="256" y="164" type="curve" smooth="yes"/>
      <point x="234" y="164"/>
      <point x="210" y="161"/>
      <point x="190" y="154" type="curve"/>
      <point x="165" y="55" type="line" smooth="yes"/>
      <point x="153" y="7"/>
      <point x="194" y="-8"/>
      <point x="250" y="-8" type="curve" smooth="yes"/>
      <point x="272" y="-8"/>
      <point x="296" y="-4"/>
    </contour>
  </outline>
</glyph>
<glyph name="semicolon" format="1">
  <advance width="600"/>
  <unicode hex="003B"/>
  <outline>
    <contour>
      <point x="410" y="378" type="curve"/>
      <point x="435" y="477" type="line" smooth="yes"/>
      <point x="447" y="525"/>
      <point x="406" y="540"/>
      <point x="350" y="540" type="curve" smooth="yes"/>
      <point x="328" y="540"/>
      <point x="304" y="537"/>
      <point x="284" y="530" type="curve"/>
      <point x="259" y="431" type="line" smooth="yes"/>
      <point x="247" y="383"/>
      <point x="288" y="368"/>
      <point x="344" y="368" type="curve" smooth="yes"/>
      <point x="366" y="368"/>
      <point x="390" y="372"/>
    </contour>
    <contour>
      <point x="143" y="-195" type="curve" smooth="yes"/>
      <point x="159" y="-195"/>
      <point x="168" y="-192"/>
      <point x="179" y="-183" type="curve"/>
      <point x="246" y="-130"/>
      <point x="323" y="-20"/>
      <point x="350" y="90" type="curve"/>
      <point x="361" y="131"/>
      <point x="335" y="146"/>
      <point x="281" y="146" type="curve" smooth="yes"/>
      <point x="261" y="146"/>
      <point x="247" y="144"/>
      <point x="227" y="139" type="curve"/>
      <point x="191" y="-3"/>
      <point x="151" y="-84"/>
      <point x="75" y="-172" type="curve"/>
      <point x="93" y="-188"/>
      <point x="111" y="-195"/>
    </contour>
  </outline>
</glyph>
<glyph name="greater" format="1">
  <advance width="600"/>
  <unicode hex="003E"/>
  <outline>
    <contour>
      <point x="34" y="112" type="curve"/>
      <point x="30" y="95" type="line"/>
      <point x="21" y="61"/>
      <point x="30" y="25"/>
      <point x="55" y="25" type="curve" smooth="yes"/>
      <point x="68" y="25"/>
      <point x="101" y="32"/>
      <point x="149" y="49" type="curve" smooth="yes"/>
      <point x="302" y="102"/>
      <point x="434" y="182"/>
      <point x="532" y="272" type="curve"/>
      <point x="539" y="299" type="line"/>
      <point x="545" y="322"/>
      <point x="521" y="331"/>
      <point x="466" y="324" type="curve"/>
      <point x="339" y="219"/>
      <point x="242" y="158"/>
    </contour>
    <contour>
      <point x="158" y="580" type="curve"/>
      <point x="152" y="570"/>
      <point x="148" y="559"/>
      <point x="144" y="544" type="curve" smooth="yes"/>
      <point x="135" y="508"/>
      <point x="137" y="481"/>
      <point x="155" y="475" type="curve" smooth="yes"/>
      <point x="316" y="423"/>
      <point x="380" y="373"/>
      <point x="460" y="268" type="curve" smooth="yes"/>
      <point x="466" y="262"/>
      <point x="466" y="255"/>
      <point x="465" y="250" type="curve" smooth="yes"/>
      <point x="464" y="245"/>
      <point x="463" y="240"/>
      <point x="461" y="231" type="curve"/>
      <point x="510" y="256"/>
      <point x="534" y="277"/>
      <point x="538" y="295" type="curve" smooth="yes"/>
      <point x="540" y="304" type="line" smooth="yes"/>
      <point x="546" y="327"/>
      <point x="543" y="341"/>
      <point x="518" y="369" type="curve" smooth="yes"/>
      <point x="438" y="458"/>
      <point x="353" y="531"/>
    </contour>
  </outline>
</glyph>
<glyph name="at" format="1">
  <advance width="600"/>
  <unicode hex="0040"/>
  <outline>
    <contour>
      <point x="539" y="517" type="curve" smooth="yes"/>
      <point x="528" y="531"/>
      <point x="505" y="542"/>
      <point x="458" y="542" type="curve" smooth="yes"/>
      <point x="429" y="542"/>
      <point x="397" y="534"/>
      <point x="364" y="507" type="curve" smooth="yes"/>
      <point x="341" y="489"/>
      <point x="329" y="448"/>
      <point x="338" y="427" type="curve"/>
      <point x="382" y="453"/>
      <point x="409" y="462"/>
      <point x="446" y="462" type="curve" smooth="yes"/>
      <point x="480" y="462"/>
      <point x="500" y="458"/>
      <point x="519" y="438" type="curve"/>
      <point x="543" y="474"/>
      <point x="548" y="505"/>
    </contour>
    <contour>
      <point x="473" y="179" type="curve"/>
      <point x="421" y="125"/>
      <point x="366" y="94"/>
      <point x="330" y="94" type="curve" smooth="yes"/>
      <point x="294" y="94"/>
      <point x="281" y="123"/>
      <point x="302" y="207" type="curve" smooth="yes"/>
      <point x="304" y="213" type="line" smooth="yes"/>
      <point x="336" y="342"/>
      <point x="368" y="425"/>
      <point x="444" y="504" type="curve"/>
      <point x="419" y="521"/>
      <point x="385" y="524"/>
      <point x="364" y="507" type="curve" smooth="yes"/>
      <point x="302" y="458"/>
      <point x="251" y="361"/>
      <point x="212" y="206" type="curve" smooth="yes"/>
      <point x="210" y="199" type="line" smooth="yes"/>
      <point x="179" y="74"/>
      <point x="209" y="10"/>
      <point x="294" y="10" type="curve" smooth="yes"/>
      <point x="338" y="10"/>
      <point x="378" y="26"/>
      <point x="441" y="81" type="curve" smooth="yes"/>
      <point x="461" y="100"/>
      <point x="476" y="139"/>
    </contour>
    <contour>
      <point x="484" y="16" type="line"/>
      <point x="484" y="49"/>
      <point x="488" y="71"/>
      <point x="498" y="110" type="curve"/>
      <point x="599" y="516" type="line" smooth="yes"/>
      <point x="641" y="683"/>
      <point x="597" y="760"/>
      <point x="467" y="760" type="curve" smooth="yes"/>
      <point x="439" y="760"/>
      <point x="435" y="732"/>
      <point x="431" y="714" type="curve"/>
      <point x="539" y="707"/>
      <point x="545" y="656"/>
      <point x="515" y="535" type="curve" smooth="yes"/>
      <point x="405" y="94" type="line" smooth="yes"/>
      <point x="393" y="48"/>
      <point x="421" y="16"/>
      <point x="473" y="16" type="curve" smooth="yes"/>
    </contour>
    <contour>
      <point x="41" y="204" type="curve" smooth="yes"/>
      <point x="38" y="194" type="line" smooth="yes"/>
      <point x="-2" y="33"/>
      <point x="-1" y="-70"/>
      <point x="42" y="-128" type="curve" smooth="yes"/>
      <point x="65" y="-158"/>
      <point x="99" y="-151"/>
      <point x="133" y="-124" type="curve"/>
      <point x="65" y="-29"/>
      <point x="72" y="32"/>
      <point x="112" y="191" type="curve" smooth="yes"/>
      <point x="114" y="201" type="line" smooth="yes"/>
      <point x="188" y="498"/>
      <point x="324" y="686"/>
      <point x="452" y="686" type="curve" smooth="yes"/>
      <point x="504" y="686"/>
      <point x="524" y="667"/>
      <point x="541" y="631" type="curve"/>
      <point x="562" y="643"/>
      <point x="574" y="657"/>
      <point x="578" y="674" type="curve" smooth="yes"/>
      <point x="589" y="719"/>
      <point x="537" y="760"/>
      <point x="467" y="760" type="curve" smooth="yes"/>
      <point x="283" y="760"/>
      <point x="123" y="535"/>
    </contour>
    <contour>
      <point x="210" y="-190" type="curve" smooth="yes"/>
      <point x="275" y="-190"/>
      <point x="332" y="-180"/>
      <point x="353" y="-163" type="curve" smooth="yes"/>
      <point x="369" y="-150"/>
      <point x="380" y="-125"/>
      <point x="387" y="-96" type="curve" smooth="yes"/>
      <point x="389" y="-88" type="line"/>
      <point x="385" y="-88" type="line"/>
      <point x="336" y="-109"/>
      <point x="293" y="-116"/>
      <point x="232" y="-116" type="curve" smooth="yes"/>
      <point x="153" y="-116"/>
      <point x="100" y="-90"/>
      <point x="62" y="-29" type="curve"/>
      <point x="38" y="-55"/>
      <point x="24" y="-103"/>
      <point x="42" y="-128" type="curve"/>
      <point x="74" y="-170"/>
      <point x="129" y="-190"/>
    </contour>
  </outline>
</glyph>
<glyph name="A" format="1">
  <advance width="600"/>
  <unicode hex="0041"/>
  <outline>
    <contour>
      <point x="96" y="-7" type="curve"/>
      <point x="187" y="336"/>
      <point x="276" y="503"/>
      <point x="412" y="631" type="curve"/>
      <point x="438" y="654"/>
      <point x="434" y="710"/>
      <point x="390" y="710" type="curve"/>
      <point x="362" y="710" type="line"/>
      <point x="193" y="559"/>
      <point x="76" y="328"/>
      <point x="3" y="34" type="curve"/>
      <point x="-6" y="1"/>
      <point x="24" y="-10"/>
      <point x="66" y="-10" type="curve" smooth="yes"/>
      <point x="80" y="-10"/>
      <point x="87" y="-9"/>
    </contour>
    <contour>
      <point x="471" y="-7" type="curve"/>
      <point x="531" y="254"/>
      <point x="533" y="470"/>
      <point x="499" y="603" type="curve"/>
      <point x="488" y="647"/>
      <point x="475" y="673"/>
      <point x="461" y="692" type="curve" smooth="yes"/>
      <point x="453" y="702"/>
      <point x="427" y="710"/>
      <point x="390" y="710" type="curve"/>
      <point x="370" y="710"/>
      <point x="337" y="672"/>
      <point x="330" y="647" type="curve"/>
      <point x="338" y="647"/>
      <point x="344" y="647"/>
      <point x="350" y="647" type="curve" smooth="yes"/>
      <point x="366" y="647"/>
      <point x="376" y="643"/>
      <point x="385" y="616" type="curve"/>
      <point x="437" y="491"/>
      <point x="435" y="308"/>
      <point x="376" y="36" type="curve"/>
      <point x="373" y="24"/>
      <point x="374" y="17"/>
      <point x="379" y="10" type="curve" smooth="yes"/>
      <point x="390" y="-4"/>
      <point x="415" y="-10"/>
      <point x="441" y="-10" type="curve" smooth="yes"/>
      <point x="453" y="-10"/>
      <point x="462" y="-9"/>
    </contour>
    <contour>
      <point x="41" y="279" type="line"/>
      <point x="36" y="261" type="line" smooth="yes"/>
      <point x="29" y="232"/>
      <point x="28" y="210"/>
      <point x="39" y="195" type="curve" smooth="yes"/>
      <point x="43" y="191"/>
      <point x="46" y="189"/>
      <point x="52" y="189" type="curve"/>
      <point x="429" y="189" type="line"/>
      <point x="444" y="251"/>
      <point x="415" y="279"/>
      <point x="339" y="279" type="curve" smooth="yes"/>
    </contour>
    <contour>
      <point x="411" y="710" type="move" name="top"/>
    </contour>
    <contour>
      <point x="471" y="-8" type="move" name="ogonek"/>
    </contour>
    <contour>
      <point x="408" y="705" type="move" name="ring"/>
    </contour>
    <contour>
      <point x="226" y="-1" type="move" name="bottom"/>
    </contour>
  </outline>
</glyph>
<glyph name="D" format="1">
  <advance width="600"/>
  <unicode hex="0044"/>
  <outline>
    <contour>
      <point x="132" y="29" type="curve"/>
      <point x="263" y="556" type="line" smooth="yes"/>
      <point x="280" y="621"/>
      <point x="253" y="648"/>
      <point x="183" y="648" type="curve"/>
      <point x="38" y="66" type="line" smooth="yes"/>
      <point x="32" y="46"/>
      <point x="73" y="29"/>
    </contour>
    <contour>
      <point x="146" y="700" type="curve"/>
      <point x="142" y="690"/>
      <point x="139" y="680"/>
      <point x="136" y="667" type="curve"/>
      <point x="129" y="640"/>
      <point x="129" y="623"/>
      <point x="137" y="612" type="curve" smooth="yes"/>
      <point x="141" y="606"/>
      <point x="147" y="605"/>
      <point x="154" y="605" type="curve" smooth="yes"/>
      <point x="163" y="605"/>
      <point x="176" y="607"/>
      <point x="201" y="611" type="curve" smooth="yes"/>
      <point x="249" y="618"/>
      <point x="311" y="625"/>
      <point x="369" y="625" type="curve" smooth="yes"/>
      <point x="449" y="625"/>
      <point x="488" y="608"/>
      <point x="534" y="560" type="curve"/>
      <point x="584" y="614"/>
      <point x="509" y="720"/>
      <point x="396" y="720" type="curve" smooth="yes"/>
      <point x="314" y="720"/>
      <point x="242" y="715"/>
    </contour>
    <contour>
      <point x="568" y="364" type="curve" smooth="yes"/>
      <point x="579" y="405" type="line" smooth="yes"/>
      <point x="628" y="597"/>
      <point x="562" y="720"/>
      <point x="396" y="720" type="curve"/>
      <point x="377" y="720"/>
      <point x="365" y="700"/>
      <point x="358" y="673" type="curve"/>
      <point x="498" y="649"/>
      <point x="518" y="578"/>
      <point x="472" y="392" type="curve" smooth="yes"/>
      <point x="465" y="366" type="line" smooth="yes"/>
      <point x="417" y="176"/>
      <point x="321" y="87"/>
      <point x="186" y="87" type="curve" smooth="yes"/>
      <point x="132" y="87"/>
      <point x="104" y="96"/>
      <point x="70" y="115" type="curve"/>
      <point x="53" y="104"/>
      <point x="44" y="90"/>
      <point x="38" y="66" type="curve" smooth="yes"/>
      <point x="29" y="30"/>
      <point x="89" y="-10"/>
      <point x="165" y="-10" type="curve" smooth="yes"/>
      <point x="170" y="-10" type="line" smooth="yes"/>
      <point x="365" y="-10"/>
      <point x="504" y="113"/>
    </contour>
    <contour>
      <point x="399" y="711" type="move" name="top"/>
    </contour>
  </outline>
</glyph>
<glyph name="E" format="1">
  <advance width="600"/>
  <unicode hex="0045"/>
  <outline>
    <contour>
      <point x="146" y="700" type="line"/>
      <point x="144" y="695"/>
      <point x="143" y="688"/>
      <point x="142" y="683" type="curve" smooth="yes"/>
      <point x="134" y="653"/>
      <point x="131" y="624"/>
      <point x="140" y="612" type="curve" smooth="yes"/>
      <point x="144" y="607"/>
      <point x="148" y="605"/>
      <point x="155" y="605" type="curve" smooth="yes"/>
      <point x="619" y="605" type="line"/>
      <point x="625" y="614"/>
      <point x="630" y="627"/>
      <point x="632" y="640" type="curve" smooth="yes"/>
      <point x="636" y="654"/>
      <point x="639" y="679"/>
      <point x="629" y="692" type="curve" smooth="yes"/>
      <point x="625" y="698"/>
      <point x="619" y="700"/>
      <point x="608" y="700" type="curve" smooth="yes"/>
    </contour>
    <contour>
      <point x="139" y="59" type="curve"/>
      <point x="261" y="545" type="line" smooth="yes"/>
      <point x="277" y="609"/>
      <point x="256" y="634"/>
      <point x="179" y="634" type="curve"/>
      <point x="45" y="95" type="line"/>
      <point x="38" y="67"/>
      <point x="82" y="59"/>
    </contour>
    <contour>
      <point x="45" y="95" type="line"/>
      <point x="42" y="83" type="line" smooth="yes"/>
      <point x="33" y="45"/>
      <point x="57" y="0"/>
      <point x="89" y="0" type="curve" smooth="yes"/>
      <point x="470" y="0" type="line"/>
      <point x="474" y="8"/>
      <point x="478" y="19"/>
      <point x="482" y="32" type="curve" smooth="yes"/>
      <point x="492" y="76"/>
      <point x="484" y="95"/>
      <point x="455" y="95" type="curve" smooth="yes"/>
    </contour>
    <contour>
      <point x="159" y="374" type="line"/>
      <point x="144" y="314"/>
      <point x="146" y="289"/>
      <point x="176" y="289" type="curve" smooth="yes"/>
      <point x="479" y="289" type="line"/>
      <point x="480" y="292"/>
      <point x="481" y="297"/>
      <point x="482" y="301" type="curve" smooth="yes"/>
      <point x="488" y="323"/>
      <point x="487" y="347"/>
      <point x="475" y="363" type="curve" smooth="yes"/>
      <point x="469" y="372"/>
      <point x="462" y="374"/>
      <point x="450" y="374" type="curve" smooth="yes"/>
    </contour>
    <contour>
      <point x="411" y="711" type="move" name="top"/>
    </contour>
    <contour>
      <point x="470" y="-1" type="move" name="ogonek"/>
    </contour>
    <contour>
      <point x="259" y="-1" type="move" name="bottom"/>
    </contour>
  </outline>
</glyph>
<glyph name="F" format="1">
  <advance width="600"/>
  <unicode hex="0046"/>
  <outline>
    <contour>
      <point x="142" y="-7" type="curve"/>
      <point x="142" y="26"/>
      <point x="146" y="48"/>
      <point x="156" y="88" type="curve" smooth="yes"/>
      <point x="270" y="545" type="line"/>
      <point x="287" y="611"/>
      <point x="267" y="637"/>
      <point x="190" y="637" type="curve"/>
      <point x="43" y="48" type="line" smooth="yes"/>
      <point x="33" y="10"/>
      <point x="60" y="-7"/>
      <point x="132" y="-7" type="curve" smooth="yes"/>
      <point x="135" y="-7"/>
      <point x="138" y="-7"/>
    </contour>
    <contour>
      <point x="146" y="700" type="line"/>
      <point x="144" y="695"/>
      <point x="143" y="688"/>
      <point x="142" y="683" type="curve" smooth="yes"/>
      <point x="132" y="643"/>
      <point x="134" y="625"/>
      <point x="141" y="614" type="curve" smooth="yes"/>
      <point x="146" y="608"/>
      <point x="151" y="605"/>
      <point x="163" y="605" type="curve"/>
      <point x="620" y="605" type="line"/>
      <point x="625" y="614"/>
      <point x="630" y="626"/>
      <point x="632" y="640" type="curve" smooth="yes"/>
      <point x="638" y="663"/>
      <point x="637" y="680"/>
      <point x="629" y="691" type="curve" smooth="yes"/>
      <point x="624" y="698"/>
      <point x="618" y="700"/>
      <point x="605" y="700" type="curve"/>
    </contour>
    <contour>
      <point x="132" y="324" type="line"/>
      <point x="116" y="263"/>
      <point x="116" y="229"/>
      <point x="146" y="229" type="curve"/>
      <point x="484" y="229" type="line"/>
      <point x="487" y="235"/>
      <point x="489" y="242"/>
      <point x="490" y="248" type="curve"/>
      <point x="496" y="273"/>
      <point x="494" y="296"/>
      <point x="483" y="311" type="curve" smooth="yes"/>
      <point x="476" y="321"/>
      <point x="469" y="324"/>
      <point x="452" y="324" type="curve"/>
    </contour>
  </outline>
</glyph>
<glyph name="G" format="1">
  <advance width="600"/>
  <unicode hex="0047"/>
  <outline>
    <contour>
      <point x="459" y="630" type="curve" smooth="yes"/>
      <point x="534" y="630"/>
      <point x="551" y="595"/>
      <point x="536" y="532" type="curve"/>
      <point x="571" y="532"/>
      <point x="586" y="547"/>
      <point x="590" y="560" type="curve" smooth="yes"/>
      <point x="602" y="610"/>
      <point x="601" y="641"/>
      <point x="577" y="674" type="curve" smooth="yes"/>
      <point x="555" y="702"/>
      <point x="523" y="720"/>
      <point x="472" y="720" type="curve" smooth="yes"/>
      <point x="299" y="720"/>
      <point x="143" y="588"/>
      <point x="70" y="306" type="curve" smooth="yes"/>
      <point x="67" y="292" type="line" smooth="yes"/>
      <point x="50" y="225"/>
      <point x="77" y="134"/>
      <point x="146" y="125" type="curve"/>
      <point x="141" y="171"/>
      <point x="148" y="216"/>
      <point x="161" y="272" type="curve" smooth="yes"/>
      <point x="164" y="285" type="line" smooth="yes"/>
      <point x="219" y="514"/>
      <point x="346" y="630"/>
    </contour>
    <contour>
      <point x="273" y="75" type="curve" smooth="yes"/>
      <point x="156" y="75"/>
      <point x="113" y="159"/>
      <point x="156" y="325" type="curve"/>
      <point x="103" y="333"/>
      <point x="76" y="329"/>
      <point x="67" y="292" type="curve" smooth="yes"/>
      <point x="22" y="114"/>
      <point x="88" y="-20"/>
      <point x="262" y="-20" type="curve" smooth="yes"/>
      <point x="384" y="-20"/>
      <point x="481" y="39"/>
      <point x="511" y="154" type="curve" smooth="yes"/>
      <point x="513" y="164" type="line" smooth="yes"/>
      <point x="529" y="225"/>
      <point x="508" y="278"/>
      <point x="458" y="278" type="curve"/>
      <point x="458" y="258"/>
      <point x="455" y="239"/>
      <point x="447" y="209" type="curve" smooth="yes"/>
      <point x="426" y="123"/>
      <point x="360" y="75"/>
    </contour>
    <contour>
      <point x="316" y="326" type="line"/>
      <point x="314" y="321"/>
      <point x="312" y="315"/>
      <point x="310" y="309" type="curve" smooth="yes"/>
      <point x="304" y="284"/>
      <point x="307" y="268"/>
      <point x="315" y="257" type="curve" smooth="yes"/>
      <point x="326" y="244"/>
      <point x="340" y="238"/>
      <point x="381" y="238" type="curve"/>
      <point x="561" y="238" type="line"/>
      <point x="563" y="248" type="line" smooth="yes"/>
      <point x="577" y="305"/>
      <point x="571" y="326"/>
      <point x="538" y="326" type="curve" smooth="yes"/>
    </contour>
    <contour>
      <point x="566" y="468" type="curve"/>
      <point x="590" y="560" type="line" smooth="yes"/>
      <point x="608" y="635"/>
      <point x="570" y="671"/>
      <point x="520" y="663" type="curve"/>
      <point x="511" y="621"/>
      <point x="498" y="587"/>
      <point x="490" y="557" type="curve" smooth="yes"/>
      <point x="478" y="508" type="line" smooth="yes"/>
      <point x="470" y="476"/>
      <point x="483" y="464"/>
      <point x="530" y="464" type="curve" smooth="yes"/>
      <point x="543" y="464"/>
      <point x="557" y="465"/>
    </contour>
    <contour>
      <point x="425" y="711" type="move" name="top"/>
    </contour>
    <contour>
      <point x="247" y="-1" type="move" name="bottom"/>
    </contour>
  </outline>
</glyph>
<glyph name="H" format="1">
  <advance width="600"/>
  <unicode hex="0048"/>
  <outline>
    <contour>
      <point x="182" y="705" type="curve"/>
      <point x="181" y="670"/>
      <point x="174" y="634"/>
      <point x="165" y="595" type="curve" smooth="yes"/>
      <point x="24" y="34" type="line" smooth="yes"/>
      <point x="17" y="3"/>
      <point x="42" y="-10"/>
      <point x="93" y="-10" type="curve" smooth="yes"/>
      <point x="103" y="-10"/>
      <point x="111" y="-10"/>
      <point x="117" y="-9" type="curve"/>
      <point x="281" y="645" type="line" smooth="yes"/>
      <point x="286" y="669"/>
      <point x="287" y="684"/>
      <point x="279" y="695" type="curve" smooth="yes"/>
      <point x="271" y="706"/>
      <point x="257" y="710"/>
      <point x="225" y="710" type="curve" smooth="yes"/>
      <point x="210" y="710"/>
      <point x="197" y="709"/>
    </contour>
    <contour>
      <point x="469" y="-5" type="curve"/>
      <point x="470" y="30"/>
      <point x="477" y="66"/>
      <point x="487" y="105" type="curve" smooth="yes"/>
      <point x="627" y="666" type="line" smooth="yes"/>
      <point x="634" y="696"/>
      <point x="605" y="710"/>
      <point x="548" y="710" type="curve" smooth="yes"/>
      <point x="543" y="710"/>
      <point x="538" y="710"/>
      <point x="535" y="710" type="curve"/>
      <point x="371" y="55" type="line" smooth="yes"/>
      <point x="365" y="31"/>
      <point x="364" y="16"/>
      <point x="372" y="5" type="curve" smooth="yes"/>
      <point x="380" y="-6"/>
      <point x="395" y="-10"/>
      <point x="426" y="-10" type="curve" smooth="yes"/>
      <point x="441" y="-10"/>
      <point x="454" y="-9"/>
    </contour>
    <contour>
      <point x="58" y="346" type="line"/>
      <point x="54" y="329" type="line" smooth="yes"/>
      <point x="45" y="296"/>
      <point x="47" y="274"/>
      <point x="59" y="257" type="curve" smooth="yes"/>
      <point x="63" y="253"/>
      <point x="66" y="251"/>
      <point x="72" y="251" type="curve"/>
      <point x="452" y="251" type="line"/>
      <point x="470" y="324"/>
      <point x="448" y="346"/>
      <point x="384" y="346" type="curve" smooth="yes"/>
    </contour>
    <contour>
      <point x="398" y="711" type="move" name="top"/>
    </contour>
  </outline>
</glyph>
<glyph name="I" format="1">
  <advance width="600"/>
  <unicode hex="0049"/>
  <outline>
    <contour>
      <point x="295" y="51" type="curve"/>
      <point x="419" y="545" type="line" smooth="yes"/>
      <point x="435" y="609"/>
      <point x="415" y="633"/>
      <point x="337" y="633" type="curve"/>
      <point x="218" y="158" type="line" smooth="yes"/>
      <point x="200" y="85"/>
      <point x="217" y="51"/>
    </contour>
    <contour>
      <point x="168" y="700" type="line"/>
      <point x="164" y="694"/>
      <point x="161" y="685"/>
      <point x="158" y="674" type="curve"/>
      <point x="152" y="650"/>
      <point x="154" y="634"/>
      <point x="164" y="621" type="curve" smooth="yes"/>
      <point x="173" y="608"/>
      <point x="189" y="605"/>
      <point x="228" y="605" type="curve" smooth="yes"/>
      <point x="620" y="605" type="line"/>
      <point x="626" y="617"/>
      <point x="631" y="630"/>
      <point x="633" y="640" type="curve" smooth="yes"/>
      <point x="642" y="677"/>
      <point x="640" y="700"/>
      <point x="606" y="700" type="curve" smooth="yes"/>
    </contour>
    <contour>
      <point x="18" y="95" type="line"/>
      <point x="12" y="85"/>
      <point x="8" y="73"/>
      <point x="4" y="61" type="curve"/>
      <point x="-1" y="41"/>
      <point x="-2" y="24"/>
      <point x="8" y="12" type="curve" smooth="yes"/>
      <point x="15" y="3"/>
      <point x="22" y="0"/>
      <point x="45" y="0" type="curve" smooth="yes"/>
      <point x="470" y="0" type="line"/>
      <point x="474" y="9"/>
      <point x="479" y="21"/>
      <point x="482" y="33" type="curve" smooth="yes"/>
      <point x="491" y="71"/>
      <point x="489" y="95"/>
      <point x="455" y="95" type="curve" smooth="yes"/>
    </contour>
    <contour>
      <point x="411" y="711" type="move" name="top"/>
    </contour>
    <contour>
      <point x="470" y="-1" type="move" name="ogonek"/>
    </contour>
    <contour>
      <point x="233" y="-1" type="move" name="bottom"/>
    </contour>
  </outline>
</glyph>
<glyph name="J" format="1">
  <advance width="600"/>
  <unicode hex="004A"/>
  <outline>
    <contour>
      <point x="246" y="700" type="line"/>
      <point x="243" y="694"/>
      <point x="241" y="686"/>
      <point x="239" y="677" type="curve" smooth="yes"/>
      <point x="232" y="651"/>
      <point x="234" y="634"/>
      <point x="244" y="621" type="curve" smooth="yes"/>
      <point x="253" y="608"/>
      <point x="269" y="605"/>
      <point x="307" y="605" type="curve" smooth="yes"/>
      <point x="542" y="605" type="line"/>
      <point x="560" y="676"/>
      <point x="550" y="700"/>
      <point x="517" y="700" type="curve"/>
    </contour>
    <contour>
      <point x="489" y="203" type="curve" smooth="yes"/>
      <point x="604" y="663" type="line" smooth="yes"/>
      <point x="609" y="686"/>
      <point x="589" y="700"/>
      <point x="532" y="700" type="curve" smooth="yes"/>
      <point x="510" y="700" type="line"/>
      <point x="393" y="230" type="line" smooth="yes"/>
      <point x="370" y="141"/>
      <point x="351" y="105"/>
      <point x="284" y="46" type="curve"/>
      <point x="352" y="17"/>
      <point x="459" y="85"/>
    </contour>
    <contour>
      <point x="232" y="75" type="curve" smooth="yes"/>
      <point x="156" y="75"/>
      <point x="118" y="94"/>
      <point x="69" y="128" type="curve"/>
      <point x="65" y="128" type="line"/>
      <point x="59" y="118"/>
      <point x="55" y="107"/>
      <point x="52" y="95" type="curve"/>
      <point x="43" y="58"/>
      <point x="47" y="37"/>
      <point x="56" y="24" type="curve" smooth="yes"/>
      <point x="78" y="-4"/>
      <point x="142" y="-20"/>
      <point x="208" y="-20" type="curve" smooth="yes"/>
      <point x="217" y="-20" type="line" smooth="yes"/>
      <point x="366" y="-20"/>
      <point x="454" y="64"/>
      <point x="489" y="203" type="curve"/>
      <point x="492" y="217"/>
      <point x="486" y="250"/>
      <point x="457" y="250" type="curve"/>
      <point x="409" y="136"/>
      <point x="326" y="75"/>
    </contour>
    <contour>
      <point x="410" y="711" type="move" name="top"/>
    </contour>
  </outline>
</glyph>
<glyph name="K" format="1">
  <advance width="600"/>
  <unicode hex="004B"/>
  <outline>
    <contour>
      <point x="186" y="706" type="curve"/>
      <point x="185" y="671"/>
      <point x="179" y="634"/>
      <point x="169" y="595" type="curve" smooth="yes"/>
      <point x="29" y="34" type="line" smooth="yes"/>
      <point x="21" y="0"/>
      <point x="53" y="-10"/>
      <point x="98" y="-10" type="curve" smooth="yes"/>
      <point x="108" y="-10"/>
      <point x="115" y="-10"/>
      <point x="121" y="-9" type="curve"/>
      <point x="286" y="650" type="line" smooth="yes"/>
      <point x="291" y="671"/>
      <point x="292" y="685"/>
      <point x="283" y="696" type="curve" smooth="yes"/>
      <point x="273" y="706"/>
      <point x="251" y="710"/>
      <point x="221" y="710" type="curve" smooth="yes"/>
      <point x="209" y="710"/>
      <point x="199" y="709"/>
    </contour>
    <contour>
      <point x="572" y="710" type="curve"/>
      <point x="556" y="710" type="line"/>
      <point x="448" y="475"/>
      <point x="287" y="357"/>
      <point x="124" y="299" type="curve"/>
      <point x="112" y="254"/>
      <point x="120" y="224"/>
      <point x="141" y="228" type="curve"/>
      <point x="299" y="271"/>
      <point x="478" y="390"/>
      <point x="583" y="546" type="curve" smooth="yes"/>
      <point x="634" y="621"/>
      <point x="643" y="644"/>
      <point x="650" y="668" type="curve" smooth="yes"/>
      <point x="656" y="695"/>
      <point x="631" y="710"/>
    </contour>
    <contour>
      <point x="332" y="367" type="line"/>
      <point x="267" y="334"/>
      <point x="251" y="309"/>
      <point x="256" y="291" type="curve" smooth="yes"/>
      <point x="343" y="62" type="line" smooth="yes"/>
      <point x="364" y="2"/>
      <point x="394" y="-20"/>
      <point x="437" y="-20" type="curve" smooth="yes"/>
      <point x="441" y="-20" type="line" smooth="yes"/>
      <point x="483" y="-20"/>
      <point x="503" y="5"/>
      <point x="515" y="51" type="curve" smooth="yes"/>
      <point x="520" y="71"/>
      <point x="522" y="86"/>
      <point x="523" y="100" type="curve"/>
      <point x="519" y="100" type="line"/>
      <point x="504" y="91"/>
      <point x="490" y="86"/>
      <point x="473" y="86" type="curve" smooth="yes"/>
      <point x="449" y="86"/>
      <point x="434" y="101"/>
      <point x="421" y="136" type="curve" smooth="yes"/>
    </contour>
    <contour>
      <point x="257" y="-1" type="move" name="bottom"/>
    </contour>
  </outline>
</glyph>
<glyph name="L" format="1">
  <advance width="600"/>
  <unicode hex="004C"/>
  <outline>
    <contour>
      <point x="131" y="46" type="curve"/>
      <point x="281" y="645" type="line" smooth="yes"/>
      <point x="286" y="669"/>
      <point x="288" y="685"/>
      <point x="279" y="696" type="curve" smooth="yes"/>
      <point x="270" y="706"/>
      <point x="257" y="710"/>
      <point x="225" y="710" type="curve" smooth="yes"/>
      <point x="210" y="710"/>
      <point x="197" y="709"/>
      <point x="183" y="705" type="curve"/>
      <point x="181" y="670"/>
      <point x="175" y="634"/>
      <point x="165" y="595" type="curve" smooth="yes"/>
      <point x="41" y="100" type="line" smooth="yes"/>
      <point x="34" y="71"/>
      <point x="68" y="46"/>
    </contour>
    <contour>
      <point x="41" y="100" type="line"/>
      <point x="37" y="84" type="line" smooth="yes"/>
      <point x="28" y="46"/>
      <point x="52" y="0"/>
      <point x="84" y="0" type="curve" smooth="yes"/>
      <point x="475" y="0" type="line"/>
      <point x="480" y="10"/>
      <point x="484" y="23"/>
      <point x="488" y="38" type="curve" smooth="yes"/>
      <point x="499" y="83"/>
      <point x="485" y="100"/>
      <point x="456" y="100" type="curve" smooth="yes"/>
    </contour>
    <contour>
      <point x="486" y="550" type="move" name="caronslovak"/>
    </contour>
    <contour>
      <point x="247" y="711" type="move" name="top"/>
    </contour>
    <contour>
      <point x="440" y="400" type="move" name="dot"/>
    </contour>
    <contour>
      <point x="241" y="-1" type="move" name="bottom"/>
    </contour>
  </outline>
</glyph>
<glyph name="M" format="1">
  <advance width="600"/>
  <unicode hex="004D"/>
  <outline>
    <contour>
      <point x="94" y="-9" type="curve"/>
      <point x="111" y="60"/>
      <point x="129" y="129"/>
      <point x="146" y="198" type="curve" smooth="yes"/>
      <point x="182" y="342"/>
      <point x="214" y="529"/>
      <point x="252" y="679" type="curve" smooth="yes"/>
      <point x="254" y="686"/>
      <point x="254" y="694"/>
      <point x="250" y="699" type="curve" smooth="yes"/>
      <point x="244" y="707"/>
      <point x="239" y="710"/>
      <point x="224" y="710" type="curve" smooth="yes"/>
      <point x="210" y="710"/>
      <point x="193" y="709"/>
      <point x="171" y="704" type="curve"/>
      <point x="169" y="671"/>
      <point x="162" y="636"/>
      <point x="153" y="600" type="curve" smooth="yes"/>
      <point x="11" y="33" type="line" smooth="yes"/>
      <point x="8" y="22"/>
      <point x="10" y="15"/>
      <point x="15" y="8" type="curve" smooth="yes"/>
      <point x="24" y="-4"/>
      <point x="49" y="-10"/>
      <point x="73" y="-10" type="curve" smooth="yes"/>
      <point x="81" y="-10"/>
      <point x="89" y="-10"/>
    </contour>
    <contour>
      <point x="474" y="-7" type="curve"/>
      <point x="477" y="28"/>
      <point x="483" y="63"/>
      <point x="492" y="100" type="curve" smooth="yes"/>
      <point x="636" y="673" type="line" smooth="yes"/>
      <point x="637" y="681"/>
      <point x="636" y="687"/>
      <point x="632" y="692" type="curve" smooth="yes"/>
      <point x="624" y="702"/>
      <point x="600" y="710"/>
      <point x="562" y="710" type="curve" smooth="yes"/>
      <point x="557" y="710" type="line"/>
      <point x="564" y="698"/>
      <point x="563" y="691"/>
      <point x="558" y="670" type="curve" smooth="yes"/>
      <point x="526" y="542"/>
      <point x="447" y="293"/>
      <point x="421" y="192" type="curve" smooth="yes"/>
      <point x="409" y="143"/>
      <point x="397" y="93"/>
      <point x="384" y="44" type="curve" smooth="yes"/>
      <point x="380" y="26"/>
      <point x="381" y="17"/>
      <point x="387" y="8" type="curve" smooth="yes"/>
      <point x="396" y="-4"/>
      <point x="419" y="-10"/>
      <point x="444" y="-10" type="curve"/>
      <point x="454" y="-10"/>
      <point x="464" y="-9"/>
    </contour>
    <contour>
      <point x="224" y="710" type="line"/>
      <point x="203" y="499"/>
      <point x="226" y="287"/>
      <point x="273" y="224" type="curve"/>
      <point x="276" y="220"/>
      <point x="282" y="218"/>
      <point x="287" y="218" type="curve"/>
      <point x="299" y="218"/>
      <point x="318" y="266"/>
      <point x="326" y="308" type="curve"/>
      <point x="287" y="376"/>
      <point x="280" y="526"/>
      <point x="296" y="680" type="curve"/>
      <point x="297" y="698"/>
      <point x="277" y="710"/>
      <point x="228" y="710" type="curve"/>
    </contour>
    <contour>
      <point x="557" y="710" type="curve" smooth="yes"/>
      <point x="545" y="710"/>
      <point x="532" y="709"/>
      <point x="521" y="707" type="curve"/>
      <point x="450" y="510"/>
      <point x="366" y="378"/>
      <point x="290" y="309" type="curve"/>
      <point x="280" y="301"/>
      <point x="271" y="218"/>
      <point x="287" y="218" type="curve"/>
      <point x="296" y="218" type="line"/>
      <point x="393" y="291"/>
      <point x="519" y="499"/>
      <point x="570" y="664" type="curve"/>
      <point x="581" y="697"/>
      <point x="577" y="710"/>
    </contour>
  </outline>
</glyph>
<glyph name="N" format="1">
  <advance width="600"/>
  <unicode hex="004E"/>
  <outline>
    <contour>
      <point x="103" y="-6" type="curve"/>
      <point x="178" y="295" type="line"/>
      <point x="232" y="509"/>
      <point x="257" y="686"/>
      <point x="246" y="700" type="curve" smooth="yes"/>
      <point x="242" y="705"/>
      <point x="237" y="710"/>
      <point x="232" y="710" type="curve"/>
      <point x="214" y="710"/>
      <point x="200" y="709"/>
      <point x="177" y="704" type="curve"/>
      <point x="175" y="669"/>
      <point x="168" y="626"/>
      <point x="160" y="595" type="curve" smooth="yes"/>
      <point x="19" y="34" type="line"/>
      <point x="11" y="1"/>
      <point x="46" y="-10"/>
      <point x="76" y="-10" type="curve"/>
      <point x="86" y="-10"/>
      <point x="94" y="-9"/>
    </contour>
    <contour>
      <point x="457" y="-10" type="line"/>
      <point x="628" y="670" type="line"/>
      <point x="635" y="698"/>
      <point x="604" y="710"/>
      <point x="562" y="710" type="curve"/>
      <point x="545" y="710" type="line"/>
      <point x="432" y="260" type="line"/>
      <point x="400" y="133"/>
      <point x="387" y="26"/>
      <point x="400" y="8" type="curve" smooth="yes"/>
      <point x="410" y="-5"/>
      <point x="423" y="-10"/>
      <point x="436" y="-10" type="curve"/>
    </contour>
    <contour>
      <point x="232" y="710" type="line"/>
      <point x="240" y="688"/>
      <point x="238" y="651"/>
      <point x="236" y="619" type="curve" smooth="yes"/>
      <point x="220" y="343"/>
      <point x="301" y="106"/>
      <point x="369" y="15" type="curve"/>
      <point x="381" y="-1"/>
      <point x="404" y="-10"/>
      <point x="436" y="-10" type="curve" smooth="yes"/>
      <point x="440" y="-10"/>
      <point x="440" y="-10"/>
      <point x="444" y="-10" type="curve"/>
      <point x="447" y="-10"/>
      <point x="452" y="8"/>
      <point x="458" y="31" type="curve"/>
      <point x="338" y="191"/>
      <point x="301" y="407"/>
      <point x="309" y="672" type="curve"/>
      <point x="310" y="694"/>
      <point x="280" y="710"/>
      <point x="234" y="710" type="curve"/>
    </contour>
    <contour>
      <point x="411" y="711" type="move" name="top"/>
    </contour>
    <contour>
      <point x="230" y="-1" type="move" name="bottom"/>
    </contour>
  </outline>
</glyph>
<glyph name="O" format="1">
  <advance width="600"/>
  <unicode hex="004F"/>
  <outline>
    <contour>
      <point x="405" y="720" type="curve" smooth="yes"/>
      <point x="254" y="720"/>
      <point x="139" y="590"/>
      <point x="78" y="348" type="curve" smooth="yes"/>
      <point x="72" y="324" type="line" smooth="yes"/>
      <point x="18" y="107"/>
      <point x="85" y="-20"/>
      <point x="245" y="-20" type="curve" smooth="yes"/>
      <point x="272" y="-20"/>
      <point x="291" y="8"/>
      <point x="301" y="49" type="curve"/>
      <point x="159" y="53"/>
      <point x="127" y="145"/>
      <point x="168" y="313" type="curve" smooth="yes"/>
      <point x="172" y="331" type="line" smooth="yes"/>
      <point x="218" y="522"/>
      <point x="292" y="625"/>
      <point x="394" y="625" type="curve" smooth="yes"/>
      <point x="433" y="625"/>
      <point x="462" y="614"/>
      <point x="497" y="586" type="curve"/>
      <point x="541" y="629"/>
      <point x="490" y="720"/>
    </contour>
    <contour>
      <point x="245" y="-20" type="curve" smooth="yes"/>
      <point x="400" y="-20"/>
      <point x="502" y="97"/>
      <point x="559" y="323" type="curve" smooth="yes"/>
      <point x="565" y="347" type="line" smooth="yes"/>
      <point x="622" y="573"/>
      <point x="567" y="720"/>
      <point x="405" y="720" type="curve" smooth="yes"/>
      <point x="378" y="720"/>
      <point x="355" y="692"/>
      <point x="345" y="651" type="curve"/>
      <point x="488" y="647"/>
      <point x="512" y="536"/>
      <point x="469" y="357" type="curve" smooth="yes"/>
      <point x="464" y="338" type="line" smooth="yes"/>
      <point x="422" y="162"/>
      <point x="352" y="75"/>
      <point x="250" y="75" type="curve" smooth="yes"/>
      <point x="211" y="75"/>
      <point x="180" y="84"/>
      <point x="150" y="114" type="curve"/>
      <point x="94" y="72"/>
      <point x="157" y="-20"/>
    </contour>
    <contour>
      <point x="411" y="711" type="move" name="top"/>
    </contour>
    <contour>
      <point x="325" y="-1" type="move" name="ogonek"/>
    </contour>
    <contour>
      <point x="233" y="-1" type="move" name="bottom"/>
    </contour>
  </outline>
</glyph>
<glyph name="P" format="1">
  <advance width="600"/>
  <unicode hex="0050"/>
  <outline>
    <contour>
      <point x="133" y="-5" type="curve"/>
      <point x="134" y="30"/>
      <point x="141" y="66"/>
      <point x="151" y="105" type="curve" smooth="yes"/>
      <point x="264" y="558" type="line" smooth="yes"/>
      <point x="280" y="624"/>
      <point x="254" y="650"/>
      <point x="184" y="650" type="curve"/>
      <point x="35" y="55" type="line" smooth="yes"/>
      <point x="29" y="31"/>
      <point x="28" y="16"/>
      <point x="36" y="5" type="curve" smooth="yes"/>
      <point x="44" y="-6"/>
      <point x="58" y="-10"/>
      <point x="90" y="-10" type="curve" smooth="yes"/>
      <point x="105" y="-10"/>
      <point x="118" y="-9"/>
    </contour>
    <contour>
      <point x="146" y="700" type="curve"/>
      <point x="142" y="690"/>
      <point x="139" y="680"/>
      <point x="136" y="667" type="curve"/>
      <point x="129" y="640"/>
      <point x="129" y="623"/>
      <point x="137" y="612" type="curve" smooth="yes"/>
      <point x="141" y="606"/>
      <point x="147" y="605"/>
      <point x="154" y="605" type="curve" smooth="yes"/>
      <point x="163" y="605"/>
      <point x="176" y="607"/>
      <point x="201" y="611" type="curve" smooth="yes"/>
      <point x="249" y="618"/>
      <point x="311" y="625"/>
      <point x="369" y="625" type="curve" smooth="yes"/>
      <point x="458" y="625"/>
      <point x="491" y="610"/>
      <point x="532" y="564" type="curve"/>
      <point x="584" y="617"/>
      <point x="507" y="720"/>
      <point x="409" y="720" type="curve" smooth="yes"/>
      <point x="327" y="720"/>
      <point x="242" y="715"/>
    </contour>
    <contour>
      <point x="586" y="466" type="curve" smooth="yes"/>
      <point x="597" y="508" type="line" smooth="yes"/>
      <point x="627" y="630"/>
      <point x="556" y="720"/>
      <point x="409" y="720" type="curve"/>
      <point x="379" y="720"/>
      <point x="364" y="703"/>
      <point x="357" y="675" type="curve"/>
      <point x="477" y="666"/>
      <point x="521" y="616"/>
      <point x="495" y="508" type="curve" smooth="yes"/>
      <point x="487" y="476" type="line" smooth="yes"/>
      <point x="453" y="342"/>
      <point x="348" y="266"/>
      <point x="237" y="266" type="curve" smooth="yes"/>
      <point x="203" y="266"/>
      <point x="193" y="268"/>
      <point x="178" y="271" type="curve"/>
      <point x="171" y="265"/>
      <point x="167" y="260"/>
      <point x="165" y="250" type="curve" smooth="yes"/>
      <point x="156" y="219"/>
      <point x="198" y="175"/>
      <point x="241" y="175" type="curve" smooth="yes"/>
      <point x="244" y="175" type="line" smooth="yes"/>
      <point x="401" y="175"/>
      <point x="537" y="271"/>
    </contour>
  </outline>
</glyph>
<glyph name="Q" format="1">
  <advance width="600"/>
  <unicode hex="0051"/>
  <outline>
    <contour>
      <point x="405" y="720" type="curve" smooth="yes"/>
      <point x="254" y="720"/>
      <point x="139" y="590"/>
      <point x="78" y="348" type="curve" smooth="yes"/>
      <point x="72" y="324" type="line" smooth="yes"/>
      <point x="18" y="107"/>
      <point x="85" y="-20"/>
      <point x="245" y="-20" type="curve" smooth="yes"/>
      <point x="272" y="-20"/>
      <point x="291" y="8"/>
      <point x="301" y="49" type="curve"/>
      <point x="159" y="53"/>
      <point x="127" y="145"/>
      <point x="168" y="313" type="curve" smooth="yes"/>
      <point x="172" y="331" type="line" smooth="yes"/>
      <point x="218" y="522"/>
      <point x="292" y="625"/>
      <point x="394" y="625" type="curve" smooth="yes"/>
      <point x="433" y="625"/>
      <point x="462" y="614"/>
      <point x="497" y="586" type="curve"/>
      <point x="541" y="629"/>
      <point x="490" y="720"/>
    </contour>
    <contour>
      <point x="245" y="-20" type="curve" smooth="yes"/>
      <point x="400" y="-20"/>
      <point x="502" y="97"/>
      <point x="559" y="323" type="curve" smooth="yes"/>
      <point x="565" y="347" type="line" smooth="yes"/>
      <point x="622" y="573"/>
      <point x="567" y="720"/>
      <point x="405" y="720" type="curve" smooth="yes"/>
      <point x="378" y="720"/>
      <point x="355" y="692"/>
      <point x="345" y="651" type="curve"/>
      <point x="488" y="647"/>
      <point x="512" y="536"/>
      <point x="469" y="357" type="curve" smooth="yes"/>
      <point x="464" y="338" type="line" smooth="yes"/>
      <point x="422" y="162"/>
      <point x="352" y="75"/>
      <point x="250" y="75" type="curve" smooth="yes"/>
      <point x="211" y="75"/>
      <point x="180" y="84"/>
      <point x="150" y="114" type="curve"/>
      <point x="95" y="72"/>
      <point x="157" y="-20"/>
    </contour>
    <contour>
      <point x="351" y="82" type="line"/>
      <point x="285" y="50"/>
      <point x="267" y="32"/>
      <point x="273" y="13" type="curve" smooth="yes"/>
      <point x="306" y="-79" type="line" smooth="yes"/>
      <point x="330" y="-143"/>
      <point x="357" y="-170"/>
      <point x="402" y="-170" type="curve" smooth="yes"/>
      <point x="406" y="-170" type="line" smooth="yes"/>
      <point x="446" y="-170"/>
      <point x="475" y="-148"/>
      <point x="489" y="-98" type="curve" smooth="yes"/>
      <point x="494" y="-80"/>
      <point x="495" y="-64"/>
      <point x="495" y="-49" type="curve"/>
      <point x="491" y="-49" type="line"/>
      <point x="478" y="-58"/>
      <point x="464" y="-63"/>
      <point x="448" y="-63" type="curve" smooth="yes"/>
      <point x="419" y="-63"/>
      <point x="404" y="-51"/>
      <point x="391" y="-20" type="curve" smooth="yes"/>
    </contour>
  </outline>
</glyph>
<glyph name="T" format="1">
  <advance width="600"/>
  <unicode hex="0054"/>
  <outline>
    <contour>
      <point x="151" y="700" type="line"/>
      <point x="147" y="694"/>
      <point x="144" y="686"/>
      <point x="141" y="675" type="curve" smooth="yes"/>
      <point x="136" y="652"/>
      <point x="137" y="635"/>
      <point x="147" y="621" type="curve" smooth="yes"/>
      <point x="157" y="608"/>
      <point x="175" y="605"/>
      <point x="218" y="605" type="curve" smooth="yes"/>
      <point x="637" y="605" type="line"/>
      <point x="642" y="614"/>
      <point x="647" y="627"/>
      <point x="651" y="640" type="curve" smooth="yes"/>
      <point x="659" y="675"/>
      <point x="657" y="700"/>
      <point x="623" y="700" type="curve" smooth="yes"/>
    </contour>
    <contour>
      <point x="293" y="-5" type="curve"/>
      <point x="295" y="30"/>
      <point x="302" y="66"/>
      <point x="311" y="105" type="curve" smooth="yes"/>
      <point x="422" y="547" type="line" smooth="yes"/>
      <point x="438" y="614"/>
      <point x="418" y="637"/>
      <point x="341" y="637" type="curve"/>
      <point x="195" y="55" type="line" smooth="yes"/>
      <point x="189" y="31"/>
      <point x="189" y="16"/>
      <point x="197" y="5" type="curve" smooth="yes"/>
      <point x="205" y="-6"/>
      <point x="219" y="-10"/>
      <point x="250" y="-10" type="curve" smooth="yes"/>
      <point x="266" y="-10"/>
      <point x="278" y="-9"/>
    </contour>
    <contour>
      <point x="409" y="711" type="move" name="top"/>
    </contour>
    <contour>
      <point x="233" y="-1" type="move" name="bottom"/>
    </contour>
  </outline>
</glyph>
<glyph name="U" format="1">
  <advance width="600"/>
  <unicode hex="0055"/>
  <outline>
    <contour>
      <point x="164" y="705" type="curve"/>
      <point x="164" y="670"/>
      <point x="158" y="629"/>
      <point x="146" y="580" type="curve" smooth="yes"/>
      <point x="38" y="149" type="line"/>
      <point x="28" y="109"/>
      <point x="56" y="102"/>
      <point x="108" y="102" type="curve"/>
      <point x="175" y="288"/>
      <point x="211" y="400"/>
      <point x="248" y="546" type="curve" smooth="yes"/>
      <point x="250" y="555" type="line"/>
      <point x="279" y="674"/>
      <point x="260" y="710"/>
      <point x="207" y="710" type="curve"/>
      <point x="191" y="710"/>
      <point x="179" y="709"/>
    </contour>
    <contour>
      <point x="160" y="-15" type="curve" smooth="yes"/>
      <point x="242" y="-15"/>
      <point x="321" y="23"/>
      <point x="398" y="124" type="curve" smooth="yes"/>
      <point x="433" y="169"/>
      <point x="439" y="201"/>
      <point x="432" y="243" type="curve"/>
      <point x="343" y="120"/>
      <point x="272" y="90"/>
      <point x="194" y="90" type="curve" smooth="yes"/>
      <point x="138" y="90"/>
      <point x="111" y="121"/>
      <point x="121" y="197" type="curve"/>
      <point x="87" y="192"/>
      <point x="44" y="172"/>
      <point x="38" y="149" type="curve" smooth="yes"/>
      <point x="18" y="67"/>
      <point x="70" y="-15"/>
    </contour>
    <contour>
      <point x="470" y="-5" type="curve"/>
      <point x="472" y="28"/>
      <point x="479" y="63"/>
      <point x="488" y="100" type="curve" smooth="yes"/>
      <point x="630" y="670" type="line" smooth="yes"/>
      <point x="637" y="699"/>
      <point x="613" y="710"/>
      <point x="563" y="710" type="curve" smooth="yes"/>
      <point x="553" y="710"/>
      <point x="545" y="710"/>
      <point x="537" y="708" type="curve"/>
      <point x="418" y="233" type="line" smooth="yes"/>
      <point x="381" y="87"/>
      <point x="378" y="31"/>
      <point x="396" y="7" type="curve" smooth="yes"/>
      <point x="405" y="-6"/>
      <point x="418" y="-10"/>
      <point x="437" y="-10" type="curve" smooth="yes"/>
      <point x="449" y="-10"/>
      <point x="459" y="-9"/>
    </contour>
    <contour>
      <point x="411" y="711" type="move" name="top"/>
    </contour>
    <contour>
      <point x="470" y="-6" type="move" name="ogonek"/>
    </contour>
    <contour>
      <point x="407" y="699" type="move" name="ring"/>
    </contour>
    <contour>
      <point x="229" y="-1" type="move" name="bottom"/>
    </contour>
  </outline>
</glyph>
<glyph name="V" format="1">
  <advance width="600"/>
  <unicode hex="0056"/>
  <outline>
    <contour>
      <point x="184" y="710" type="curve"/>
      <point x="167" y="710" type="line"/>
      <point x="90" y="340"/>
      <point x="86" y="143"/>
      <point x="174" y="25" type="curve" smooth="yes"/>
      <point x="195" y="-3"/>
      <point x="216" y="-10"/>
      <point x="240" y="-10" type="curve" smooth="yes"/>
      <point x="253" y="-10" type="line" smooth="yes"/>
      <point x="272" y="-10"/>
      <point x="290" y="14"/>
      <point x="309" y="46" type="curve"/>
      <point x="304" y="46"/>
      <point x="301" y="46"/>
      <point x="297" y="46" type="curve" smooth="yes"/>
      <point x="291" y="46"/>
      <point x="286" y="48"/>
      <point x="278" y="55" type="curve"/>
      <point x="184" y="161"/>
      <point x="183" y="287"/>
      <point x="262" y="673" type="curve"/>
      <point x="267" y="699"/>
      <point x="249" y="710"/>
    </contour>
    <contour>
      <point x="568" y="710" type="curve"/>
      <point x="551" y="710" type="line"/>
      <point x="428" y="312"/>
      <point x="374" y="175"/>
      <point x="223" y="67" type="curve"/>
      <point x="200" y="51"/>
      <point x="202" y="-10"/>
      <point x="247" y="-10" type="curve"/>
      <point x="275" y="-10" type="line"/>
      <point x="440" y="107"/>
      <point x="534" y="311"/>
      <point x="640" y="660" type="curve"/>
      <point x="648" y="688"/>
      <point x="613" y="710"/>
    </contour>
  </outline>
</glyph>
<glyph name="W" format="1">
  <advance width="600"/>
  <unicode hex="0057"/>
  <outline>
    <contour>
      <point x="148" y="710" type="curve"/>
      <point x="26" y="252"/>
      <point x="21" y="101"/>
      <point x="84" y="9" type="curve"/>
      <point x="93" y="-4"/>
      <point x="106" y="-10"/>
      <point x="120" y="-10" type="curve"/>
      <point x="126" y="-10" type="line" smooth="yes"/>
      <point x="137" y="-10"/>
      <point x="159" y="46"/>
      <point x="164" y="67" type="curve"/>
      <point x="114" y="138"/>
      <point x="122" y="214"/>
      <point x="237" y="672" type="curve"/>
      <point x="239" y="680"/>
      <point x="238" y="686"/>
      <point x="233" y="692" type="curve" smooth="yes"/>
      <point x="225" y="701"/>
      <point x="202" y="710"/>
      <point x="165" y="710" type="curve"/>
      <point x="159" y="710"/>
      <point x="153" y="710"/>
    </contour>
    <contour>
      <point x="573" y="710" type="curve"/>
      <point x="461" y="224"/>
      <point x="416" y="151"/>
      <point x="337" y="69" type="curve"/>
      <point x="327" y="23"/>
      <point x="334" y="-10"/>
      <point x="353" y="-10" type="curve"/>
      <point x="377" y="-10" type="line"/>
      <point x="500" y="122"/>
      <point x="566" y="257"/>
      <point x="664" y="666" type="curve"/>
      <point x="667" y="680"/>
      <point x="667" y="686"/>
      <point x="662" y="693" type="curve" smooth="yes"/>
      <point x="654" y="703"/>
      <point x="633" y="710"/>
      <point x="590" y="710" type="curve"/>
      <point x="585" y="710"/>
      <point x="579" y="710"/>
    </contour>
    <contour>
      <point x="357" y="564" type="curve"/>
      <point x="339" y="564" type="line"/>
      <point x="271" y="288"/>
      <point x="217" y="174"/>
      <point x="102" y="34" type="curve"/>
      <point x="97" y="12"/>
      <point x="102" y="-10"/>
      <point x="120" y="-10" type="curve"/>
      <point x="143" y="-10" type="line"/>
      <point x="269" y="132"/>
      <point x="333" y="302"/>
      <point x="388" y="521" type="curve"/>
      <point x="395" y="551"/>
      <point x="380" y="564"/>
    </contour>
    <contour>
      <point x="357" y="564" type="curve"/>
      <point x="350" y="564" type="line"/>
      <point x="273" y="247"/>
      <point x="267" y="92"/>
      <point x="318" y="3" type="curve"/>
      <point x="323" y="-6"/>
      <point x="332" y="-10"/>
      <point x="344" y="-10" type="curve"/>
      <point x="358" y="-10" type="line"/>
      <point x="368" y="-10"/>
      <point x="384" y="17"/>
      <point x="389" y="36" type="curve"/>
      <point x="332" y="103"/>
      <point x="338" y="274"/>
      <point x="403" y="533" type="curve"/>
      <point x="407" y="550"/>
      <point x="392" y="564"/>
    </contour>
    <contour>
      <point x="410" y="711" type="move" name="top"/>
    </contour>
  </outline>
</glyph>
<glyph name="X" format="1">
  <advance width="600"/>
  <unicode hex="0058"/>
  <outline>
    <contour>
      <point x="453" y="-8" type="curve" smooth="yes"/>
      <point x="470" y="-8"/>
      <point x="486" y="-6"/>
      <point x="500" y="-2" type="curve"/>
      <point x="441" y="77"/>
      <point x="383" y="190"/>
      <point x="340" y="314" type="curve" smooth="yes"/>
      <point x="335" y="330"/>
      <point x="330" y="346"/>
      <point x="325" y="362" type="curve" smooth="yes"/>
      <point x="287" y="474"/>
      <point x="268" y="590"/>
      <point x="258" y="673" type="curve" smooth="yes"/>
      <point x="255" y="699"/>
      <point x="230" y="708"/>
      <point x="159" y="708" type="curve" smooth="yes"/>
      <point x="140" y="708" type="line"/>
      <point x="159" y="585"/>
      <point x="192" y="429"/>
      <point x="241" y="294" type="curve" smooth="yes"/>
      <point x="245" y="279"/>
      <point x="251" y="265"/>
      <point x="255" y="250" type="curve" smooth="yes"/>
      <point x="292" y="157"/>
      <point x="339" y="79"/>
      <point x="375" y="25" type="curve" smooth="yes"/>
      <point x="389" y="0"/>
      <point x="405" y="-8"/>
    </contour>
    <contour>
      <point x="580" y="708" type="curve"/>
      <point x="566" y="708" type="line"/>
      <point x="483" y="558"/>
      <point x="397" y="447"/>
      <point x="285" y="348" type="curve"/>
      <point x="250" y="316"/>
      <point x="284" y="277"/>
      <point x="332" y="279" type="curve"/>
      <point x="483" y="403"/>
      <point x="575" y="516"/>
      <point x="664" y="661" type="curve"/>
      <point x="670" y="671"/>
      <point x="671" y="680"/>
      <point x="664" y="687" type="curve" smooth="yes"/>
      <point x="648" y="703"/>
      <point x="611" y="708"/>
    </contour>
    <contour>
      <point x="63" y="-8" type="curve" smooth="yes"/>
      <point x="73" y="-8" type="line"/>
      <point x="136" y="98"/>
      <point x="216" y="191"/>
      <point x="304" y="263" type="curve"/>
      <point x="336" y="290"/>
      <point x="308" y="341"/>
      <point x="265" y="343" type="curve"/>
      <point x="137" y="241"/>
      <point x="45" y="142"/>
      <point x="-28" y="42" type="curve"/>
      <point x="-36" y="31"/>
      <point x="-34" y="20"/>
      <point x="-26" y="12" type="curve" smooth="yes"/>
      <point x="-12" y="-2"/>
      <point x="26" y="-8"/>
    </contour>
  </outline>
</glyph>
<glyph name="Y" format="1">
  <advance width="600"/>
  <unicode hex="0059"/>
  <outline>
    <contour>
      <point x="155" y="710" type="line"/>
      <point x="127" y="459"/>
      <point x="151" y="343"/>
      <point x="233" y="234" type="curve"/>
      <point x="249" y="213"/>
      <point x="269" y="210"/>
      <point x="286" y="210" type="curve"/>
      <point x="314" y="210"/>
      <point x="329" y="222"/>
      <point x="341" y="269" type="curve"/>
      <point x="247" y="356"/>
      <point x="225" y="444"/>
      <point x="250" y="676" type="curve"/>
      <point x="252" y="696"/>
      <point x="232" y="710"/>
      <point x="172" y="710" type="curve" smooth="yes"/>
    </contour>
    <contour>
      <point x="559" y="710" type="line"/>
      <point x="475" y="479"/>
      <point x="405" y="384"/>
      <point x="266" y="280" type="curve"/>
      <point x="234" y="258"/>
      <point x="255" y="210"/>
      <point x="286" y="210" type="curve"/>
      <point x="326" y="210" type="line"/>
      <point x="472" y="325"/>
      <point x="573" y="453"/>
      <point x="649" y="660" type="curve"/>
      <point x="659" y="688"/>
      <point x="628" y="710"/>
      <point x="576" y="710" type="curve"/>
    </contour>
    <contour>
      <point x="291" y="-5" type="curve"/>
      <point x="293" y="30"/>
      <point x="300" y="66"/>
      <point x="309" y="105" type="curve" smooth="yes"/>
      <point x="345" y="247" type="line" smooth="yes"/>
      <point x="352" y="276"/>
      <point x="310" y="292"/>
      <point x="252" y="292" type="curve"/>
      <point x="193" y="55" type="line" smooth="yes"/>
      <point x="187" y="31"/>
      <point x="187" y="16"/>
      <point x="195" y="5" type="curve" smooth="yes"/>
      <point x="203" y="-6"/>
      <point x="217" y="-10"/>
      <point x="248" y="-10" type="curve" smooth="yes"/>
      <point x="264" y="-10"/>
      <point x="276" y="-9"/>
    </contour>
    <contour>
      <point x="411" y="711" type="move" name="top"/>
    </contour>
  </outline>
</glyph>
<glyph name="Z" format="1">
  <advance width="600"/>
  <unicode hex="005A"/>
  <outline>
    <contour>
      <point x="220" y="700" type="line"/>
      <point x="216" y="694"/>
      <point x="212" y="684"/>
      <point x="210" y="674" type="curve" smooth="yes"/>
      <point x="203" y="648"/>
      <point x="204" y="629"/>
      <point x="215" y="615" type="curve" smooth="yes"/>
      <point x="221" y="607"/>
      <point x="226" y="605"/>
      <point x="239" y="605" type="curve" smooth="yes"/>
      <point x="489" y="605" type="line" smooth="yes"/>
      <point x="549" y="605"/>
      <point x="576" y="594"/>
      <point x="599" y="569" type="curve" smooth="yes"/>
      <point x="619" y="576"/>
      <point x="626" y="581"/>
      <point x="630" y="594" type="curve"/>
      <point x="632" y="602" type="line" smooth="yes"/>
      <point x="646" y="659"/>
      <point x="617" y="700"/>
      <point x="555" y="700" type="curve" smooth="yes"/>
    </contour>
    <contour>
      <point x="553" y="641" type="curve"/>
      <point x="433" y="430"/>
      <point x="280" y="282"/>
      <point x="11" y="90" type="curve"/>
      <point x="2" y="56"/>
      <point x="55" y="47"/>
      <point x="97" y="66" type="curve" smooth="yes"/>
      <point x="354" y="218"/>
      <point x="608" y="507"/>
      <point x="630" y="594" type="curve"/>
      <point x="639" y="632"/>
      <point x="609" y="640"/>
    </contour>
    <contour>
      <point x="480" y="0" type="line"/>
      <point x="482" y="5"/>
      <point x="484" y="12"/>
      <point x="486" y="20" type="curve" smooth="yes"/>
      <point x="493" y="49"/>
      <point x="492" y="66"/>
      <point x="479" y="83" type="curve" smooth="yes"/>
      <point x="472" y="92"/>
      <point x="463" y="95"/>
      <point x="449" y="95" type="curve" smooth="yes"/>
      <point x="274" y="95" type="line" smooth="yes"/>
      <point x="197" y="95"/>
      <point x="88" y="93"/>
      <point x="11" y="90" type="curve"/>
      <point x="8" y="78" type="line" smooth="yes"/>
      <point x="-3" y="30"/>
      <point x="1" y="0"/>
      <point x="27" y="0" type="curve" smooth="yes"/>
    </contour>
    <contour>
      <point x="227" y="491" type="curve"/>
      <point x="251" y="588"/>
      <point x="283" y="649"/>
      <point x="291" y="682" type="curve"/>
      <point x="297" y="705"/>
      <point x="263" y="720"/>
      <point x="218" y="720" type="curve" smooth="yes"/>
      <point x="210" y="720" type="line"/>
      <point x="180" y="660"/>
      <point x="155" y="596"/>
      <point x="139" y="530" type="curve"/>
      <point x="131" y="498"/>
      <point x="149" y="488"/>
      <point x="193" y="488" type="curve" smooth="yes"/>
      <point x="206" y="488"/>
      <point x="217" y="489"/>
    </contour>
    <contour>
      <point x="411" y="711" type="move" name="top"/>
    </contour>
  </outline>
</glyph>
<glyph name="bracketleft" format="1">
  <advance width="600"/>
  <unicode hex="005B"/>
  <outline>
    <contour>
      <point x="299" y="645" type="curve" smooth="yes"/>
      <point x="122" y="-64" type="line" smooth="yes"/>
      <point x="114" y="-95"/>
      <point x="169" y="-101"/>
      <point x="216" y="-101" type="curve"/>
      <point x="418" y="705" type="line" smooth="yes"/>
      <point x="427" y="745"/>
      <point x="418" y="760"/>
      <point x="364" y="760" type="curve" smooth="yes"/>
      <point x="347" y="760"/>
      <point x="333" y="759"/>
      <point x="317" y="755" type="curve"/>
      <point x="315" y="719"/>
      <point x="309" y="684"/>
    </contour>
    <contour>
      <point x="609" y="662" type="line"/>
      <point x="615" y="671"/>
      <point x="619" y="683"/>
      <point x="622" y="696" type="curve" smooth="yes"/>
      <point x="626" y="711"/>
      <point x="629" y="738"/>
      <point x="619" y="752" type="curve" smooth="yes"/>
      <point x="615" y="758"/>
      <point x="610" y="760"/>
      <point x="599" y="760" type="curve" smooth="yes"/>
      <point x="364" y="760" type="line"/>
      <point x="349" y="698"/>
      <point x="369" y="662"/>
      <point x="455" y="662" type="curve"/>
    </contour>
    <contour>
      <point x="406" y="-161" type="line"/>
      <point x="410" y="-152"/>
      <point x="414" y="-140"/>
      <point x="417" y="-128" type="curve" smooth="yes"/>
      <point x="428" y="-82"/>
      <point x="420" y="-63"/>
      <point x="391" y="-63" type="curve" smooth="yes"/>
      <point x="122" y="-63" type="line"/>
      <point x="119" y="-76" type="line" smooth="yes"/>
      <point x="109" y="-115"/>
      <point x="134" y="-161"/>
      <point x="165" y="-161" type="curve" smooth="yes"/>
    </contour>
  </outline>
</glyph>
<glyph name="backslash" format="1">
  <advance width="600"/>
  <unicode hex="005C"/>
  <outline>
    <contour>
      <point x="189" y="750" type="curve"/>
      <point x="184" y="435"/>
      <point x="224" y="157"/>
      <point x="308" y="-85" type="curve" smooth="yes"/>
      <point x="321" y="-122"/>
      <point x="344" y="-137"/>
      <point x="380" y="-137" type="curve" smooth="yes"/>
      <point x="403" y="-137"/>
      <point x="420" y="-133"/>
      <point x="441" y="-123" type="curve"/>
      <point x="425" y="-102"/>
      <point x="416" y="-79"/>
      <point x="405" y="-46" type="curve"/>
      <point x="332" y="187"/>
      <point x="296" y="443"/>
      <point x="299" y="720" type="curve"/>
      <point x="299" y="750"/>
      <point x="275" y="762"/>
      <point x="239" y="762" type="curve" smooth="yes"/>
      <point x="221" y="762"/>
      <point x="207" y="758"/>
    </contour>
  </outline>
</glyph>
<glyph name="bracketright" format="1">
  <advance width="600"/>
  <unicode hex="005D"/>
  <outline>
    <contour>
      <point x="317" y="-46" type="curve" smooth="yes"/>
      <point x="495" y="663" type="line" smooth="yes"/>
      <point x="503" y="694"/>
      <point x="448" y="700"/>
      <point x="401" y="700" type="curve"/>
      <point x="199" y="-106" type="line" smooth="yes"/>
      <point x="189" y="-146"/>
      <point x="199" y="-161"/>
      <point x="252" y="-161" type="curve" smooth="yes"/>
      <point x="269" y="-161"/>
      <point x="283" y="-160"/>
      <point x="300" y="-156" type="curve"/>
      <point x="301" y="-120"/>
      <point x="308" y="-85"/>
    </contour>
    <contour>
      <point x="8" y="-63" type="line"/>
      <point x="2" y="-72"/>
      <point x="-3" y="-84"/>
      <point x="-6" y="-97" type="curve" smooth="yes"/>
      <point x="-10" y="-112"/>
      <point x="-13" y="-139"/>
      <point x="-3" y="-153" type="curve" smooth="yes"/>
      <point x="2" y="-159"/>
      <point x="7" y="-161"/>
      <point x="18" y="-161" type="curve" smooth="yes"/>
      <point x="252" y="-161" type="line"/>
      <point x="268" y="-99"/>
      <point x="248" y="-63"/>
      <point x="162" y="-63" type="curve"/>
    </contour>
    <contour>
      <point x="211" y="760" type="line"/>
      <point x="207" y="751"/>
      <point x="203" y="739"/>
      <point x="200" y="727" type="curve" smooth="yes"/>
      <point x="188" y="681"/>
      <point x="196" y="662"/>
      <point x="225" y="662" type="curve" smooth="yes"/>
      <point x="494" y="662" type="line"/>
      <point x="498" y="675" type="line" smooth="yes"/>
      <point x="507" y="714"/>
      <point x="483" y="760"/>
      <point x="451" y="760" type="curve" smooth="yes"/>
    </contour>
  </outline>
</glyph>
<glyph name="grave" format="1">
  <advance width="600"/>
  <unicode hex="0060"/>
  <outline>
    <contour>
      <point x="456" y="411" type="curve"/>
      <point x="424" y="495"/>
      <point x="414" y="600"/>
      <point x="427" y="712" type="curve"/>
      <point x="410" y="718"/>
      <point x="397" y="720"/>
      <point x="377" y="720" type="curve" smooth="yes"/>
      <point x="329" y="720"/>
      <point x="291" y="709"/>
      <point x="280" y="664" type="curve" smooth="yes"/>
      <point x="263" y="596"/>
      <point x="299" y="449"/>
      <point x="344" y="400" type="curve" smooth="yes"/>
      <point x="351" y="392"/>
      <point x="360" y="388"/>
      <point x="376" y="388" type="curve" smooth="yes"/>
      <point x="408" y="388"/>
      <point x="431" y="395"/>
    </contour>
  </outline>
</glyph>
<glyph name="a" format="1">
  <advance width="600"/>
  <unicode hex="0061"/>
  <outline>
    <contour>
      <point x="337" y="544" type="curve" smooth="yes"/>
      <point x="224" y="544"/>
      <point x="108" y="459"/>
      <point x="48" y="228" type="curve" smooth="yes"/>
      <point x="43" y="209" type="line" smooth="yes"/>
      <point x="29" y="156"/>
      <point x="45" y="61"/>
      <point x="101" y="61" type="curve" smooth="yes"/>
      <point x="119" y="61"/>
      <point x="134" y="69"/>
      <point x="140" y="82" type="curve"/>
      <point x="129" y="128"/>
      <point x="134" y="163"/>
      <point x="149" y="220" type="curve" smooth="yes"/>
      <point x="151" y="228" type="line" smooth="yes"/>
      <point x="188" y="376"/>
      <point x="249" y="449"/>
      <point x="342" y="449" type="curve" smooth="yes"/>
      <point x="399" y="449"/>
      <point x="428" y="428"/>
      <point x="455" y="383" type="curve"/>
      <point x="471" y="398"/>
      <point x="478" y="426"/>
      <point x="473" y="442" type="curve" smooth="yes"/>
      <point x="472" y="488"/>
      <point x="422" y="544"/>
    </contour>
    <contour>
      <point x="164" y="-11" type="curve" smooth="yes"/>
      <point x="255" y="-11"/>
      <point x="348" y="71"/>
      <point x="407" y="178" type="curve" smooth="yes"/>
      <point x="430" y="220"/>
      <point x="437" y="269"/>
      <point x="432" y="300" type="curve"/>
      <point x="336" y="145"/>
      <point x="258" y="92"/>
      <point x="188" y="92" type="curve" smooth="yes"/>
      <point x="136" y="92"/>
      <point x="97" y="143"/>
      <point x="92" y="228" type="curve"/>
      <point x="59" y="226"/>
      <point x="46" y="218"/>
      <point x="43" y="209" type="curve" smooth="yes"/>
      <point x="13" y="89"/>
      <point x="57" y="-11"/>
    </contour>
    <contour>
      <point x="579" y="533" type="line"/>
      <point x="568" y="536"/>
      <point x="559" y="537"/>
      <point x="545" y="537" type="curve" smooth="yes"/>
      <point x="508" y="537"/>
      <point x="480" y="531"/>
      <point x="471" y="495" type="curve" smooth="yes"/>
      <point x="373" y="101" type="line" smooth="yes"/>
      <point x="361" y="55"/>
      <point x="413" y="28"/>
      <point x="474" y="44" type="curve"/>
      <point x="468" y="70"/>
      <point x="468" y="91"/>
      <point x="478" y="128" type="curve"/>
    </contour>
    <contour>
      <point x="525" y="91" type="line"/>
      <point x="521" y="91" type="line"/>
      <point x="515" y="87"/>
      <point x="508" y="86"/>
      <point x="500" y="86" type="curve" smooth="yes"/>
      <point x="474" y="86"/>
      <point x="451" y="99"/>
      <point x="451" y="146" type="curve"/>
      <point x="398" y="148"/>
      <point x="382" y="137"/>
      <point x="373" y="101" type="curve" smooth="yes"/>
      <point x="358" y="41"/>
      <point x="384" y="-10"/>
      <point x="444" y="-10" type="curve" smooth="yes"/>
      <point x="449" y="-10" type="line" smooth="yes"/>
      <point x="483" y="-10"/>
      <point x="507" y="21"/>
      <point x="522" y="80" type="curve"/>
    </contour>
  </outline>
</glyph>
<glyph name="b" format="1">
  <advance width="600"/>
  <unicode hex="0062"/>
  <outline>
    <contour>
      <point x="16" y="0" type="line"/>
      <point x="24" y="-3"/>
      <point x="36" y="-5"/>
      <point x="52" y="-5" type="curve" smooth="yes"/>
      <point x="96" y="-5"/>
      <point x="119" y="16"/>
      <point x="129" y="55" type="curve" smooth="yes"/>
      <point x="293" y="686" type="line"/>
      <point x="304" y="736"/>
      <point x="289" y="758"/>
      <point x="241" y="758" type="curve" smooth="yes"/>
      <point x="226" y="758"/>
      <point x="211" y="757"/>
      <point x="196" y="752" type="curve"/>
      <point x="199" y="723"/>
      <point x="195" y="698"/>
      <point x="184" y="654" type="curve" smooth="yes"/>
    </contour>
    <contour>
      <point x="445" y="544" type="curve" smooth="yes"/>
      <point x="357" y="544"/>
      <point x="248" y="461"/>
      <point x="190" y="356" type="curve" smooth="yes"/>
      <point x="167" y="314"/>
      <point x="159" y="261"/>
      <point x="165" y="230" type="curve"/>
      <point x="263" y="388"/>
      <point x="340" y="443"/>
      <point x="415" y="443" type="curve" smooth="yes"/>
      <point x="468" y="443"/>
      <point x="501" y="403"/>
      <point x="506" y="315" type="curve"/>
      <point x="539" y="317"/>
      <point x="552" y="322"/>
      <point x="554" y="330" type="curve" smooth="yes"/>
      <point x="584" y="449"/>
      <point x="539" y="544"/>
    </contour>
    <contour>
      <point x="265" y="-11" type="curve" smooth="yes"/>
      <point x="396" y="-11"/>
      <point x="493" y="77"/>
      <point x="548" y="307" type="curve" smooth="yes"/>
      <point x="554" y="330" type="line" smooth="yes"/>
      <point x="566" y="383"/>
      <point x="555" y="471"/>
      <point x="499" y="471" type="curve"/>
      <point x="482" y="471"/>
      <point x="467" y="463"/>
      <point x="460" y="447" type="curve"/>
      <point x="468" y="404"/>
      <point x="466" y="375"/>
      <point x="450" y="317" type="curve" smooth="yes"/>
      <point x="446" y="301" type="line" smooth="yes"/>
      <point x="408" y="156"/>
      <point x="345" y="81"/>
      <point x="253" y="81" type="curve" smooth="yes"/>
      <point x="195" y="81"/>
      <point x="164" y="102"/>
      <point x="139" y="150" type="curve"/>
      <point x="126" y="136"/>
      <point x="118" y="110"/>
      <point x="124" y="92" type="curve" smooth="yes"/>
      <point x="124" y="49"/>
      <point x="184" y="-11"/>
    </contour>
  </outline>
</glyph>
<glyph name="d" format="1">
  <advance width="600"/>
  <unicode hex="0064"/>
  <outline>
    <contour>
      <point x="332" y="544" type="curve" smooth="yes"/>
      <point x="201" y="544"/>
      <point x="103" y="453"/>
      <point x="47" y="224" type="curve" smooth="yes"/>
      <point x="42" y="203" type="line" smooth="yes"/>
      <point x="29" y="149"/>
      <point x="42" y="61"/>
      <point x="98" y="61" type="curve" smooth="yes"/>
      <point x="115" y="61"/>
      <point x="131" y="69"/>
      <point x="137" y="84" type="curve"/>
      <point x="129" y="128"/>
      <point x="131" y="157"/>
      <point x="146" y="216" type="curve" smooth="yes"/>
      <point x="150" y="231" type="line" smooth="yes"/>
      <point x="186" y="373"/>
      <point x="251" y="452"/>
      <point x="344" y="452" type="curve" smooth="yes"/>
      <point x="401" y="452"/>
      <point x="433" y="431"/>
      <point x="457" y="383" type="curve"/>
      <point x="470" y="397"/>
      <point x="478" y="421"/>
      <point x="472" y="440" type="curve" smooth="yes"/>
      <point x="471" y="484"/>
      <point x="415" y="544"/>
    </contour>
    <contour>
      <point x="151" y="-11" type="curve" smooth="yes"/>
      <point x="239" y="-11"/>
      <point x="348" y="71"/>
      <point x="406" y="177" type="curve" smooth="yes"/>
      <point x="429" y="219"/>
      <point x="437" y="272"/>
      <point x="432" y="303" type="curve"/>
      <point x="337" y="145"/>
      <point x="257" y="89"/>
      <point x="181" y="89" type="curve" smooth="yes"/>
      <point x="126" y="89"/>
      <point x="95" y="129"/>
      <point x="90" y="218" type="curve"/>
      <point x="57" y="216"/>
      <point x="44" y="211"/>
      <point x="42" y="203" type="curve" smooth="yes"/>
      <point x="12" y="86"/>
      <point x="57" y="-11"/>
    </contour>
    <contour>
      <point x="527" y="753" type="curve"/>
      <point x="528" y="721"/>
      <point x="525" y="700"/>
      <point x="514" y="657" type="curve" smooth="yes"/>
      <point x="381" y="139" type="line"/>
      <point x="363" y="73"/>
      <point x="359" y="35"/>
      <point x="373" y="16" type="curve" smooth="yes"/>
      <point x="384" y="0"/>
      <point x="407" y="-4"/>
      <point x="426" y="-4" type="curve" smooth="yes"/>
      <point x="436" y="-4"/>
      <point x="445" y="-3"/>
      <point x="455" y="-1" type="curve"/>
      <point x="454" y="31"/>
      <point x="456" y="53"/>
      <point x="468" y="96" type="curve" smooth="yes"/>
      <point x="620" y="689" type="line"/>
      <point x="626" y="712"/>
      <point x="627" y="729"/>
      <point x="619" y="740" type="curve" smooth="yes"/>
      <point x="609" y="754"/>
      <point x="591" y="757"/>
      <point x="567" y="757" type="curve" smooth="yes"/>
      <point x="553" y="757"/>
      <point x="539" y="756"/>
    </contour>
    <contour>
      <point x="615" y="711" type="move" name="caronslovak"/>
    </contour>
  </outline>
</glyph>
<glyph name="e" format="1">
  <advance width="600"/>
  <unicode hex="0065"/>
  <outline>
    <contour>
      <point x="379" y="455" type="curve" smooth="yes"/>
      <point x="418" y="455"/>
      <point x="442" y="446"/>
      <point x="469" y="423" type="curve"/>
      <point x="486" y="436"/>
      <point x="497" y="452"/>
      <point x="501" y="466" type="curve"/>
      <point x="510" y="506"/>
      <point x="449" y="544"/>
      <point x="385" y="544" type="curve"/>
      <point x="245" y="544"/>
      <point x="120" y="465"/>
      <point x="73" y="286" type="curve" smooth="yes"/>
      <point x="70" y="274" type="line" smooth="yes"/>
      <point x="25" y="110"/>
      <point x="115" y="-11"/>
      <point x="277" y="-11" type="curve" smooth="yes"/>
      <point x="309" y="-11"/>
      <point x="324" y="19"/>
      <point x="332" y="47" type="curve"/>
      <point x="163" y="47"/>
      <point x="139" y="157"/>
      <point x="161" y="240" type="curve" smooth="yes"/>
      <point x="164" y="251" type="line" smooth="yes"/>
      <point x="200" y="391"/>
      <point x="279" y="455"/>
    </contour>
    <contour>
      <point x="444" y="33" type="curve" smooth="yes"/>
      <point x="462" y="49"/>
      <point x="475" y="71"/>
      <point x="484" y="105" type="curve" smooth="yes"/>
      <point x="486" y="115"/>
      <point x="488" y="127"/>
      <point x="487" y="140" type="curve"/>
      <point x="483" y="140" type="line"/>
      <point x="419" y="97"/>
      <point x="364" y="80"/>
      <point x="280" y="80" type="curve" smooth="yes"/>
      <point x="184" y="80"/>
      <point x="152" y="106"/>
      <point x="106" y="163" type="curve"/>
      <point x="51" y="78"/>
      <point x="166" y="-11"/>
      <point x="277" y="-11" type="curve" smooth="yes"/>
      <point x="363" y="-11"/>
      <point x="412" y="6"/>
    </contour>
    <contour>
      <point x="305" y="209" type="line" smooth="yes"/>
      <point x="453" y="209"/>
      <point x="532" y="261"/>
      <point x="555" y="352" type="curve" smooth="yes"/>
      <point x="557" y="360" type="line" smooth="yes"/>
      <point x="580" y="453"/>
      <point x="511" y="544"/>
      <point x="385" y="544" type="curve" smooth="yes"/>
      <point x="364" y="544"/>
      <point x="345" y="519"/>
      <point x="336" y="481" type="curve"/>
      <point x="422" y="481"/>
      <point x="474" y="433"/>
      <point x="458" y="367" type="curve" smooth="yes"/>
      <point x="456" y="358" type="line" smooth="yes"/>
      <point x="444" y="307"/>
      <point x="392" y="277"/>
      <point x="301" y="277" type="curve" smooth="yes"/>
      <point x="222" y="277"/>
      <point x="182" y="286"/>
      <point x="153" y="303" type="curve"/>
      <point x="140" y="277"/>
      <point x="138" y="261"/>
      <point x="149" y="247" type="curve" smooth="yes"/>
      <point x="165" y="226"/>
      <point x="219" y="209"/>
      <point x="299" y="209" type="curve" smooth="yes"/>
    </contour>
    <contour>
      <point x="391" y="544" type="move" name="top"/>
    </contour>
    <contour>
      <point x="419" y="33" type="move" name="ogonek"/>
    </contour>
    <contour>
      <point x="233" y="-1" type="move" name="bottom"/>
    </contour>
  </outline>
</glyph>
<glyph name="f" format="1">
  <advance width="600"/>
  <unicode hex="0066"/>
  <outline>
    <contour>
      <point x="361" y="635" type="curve"/>
      <point x="406" y="664"/>
      <point x="448" y="677"/>
      <point x="502" y="677" type="curve" smooth="yes"/>
      <point x="567" y="677"/>
      <point x="619" y="664"/>
      <point x="651" y="647" type="curve"/>
      <point x="655" y="647" type="line"/>
      <point x="660" y="657"/>
      <point x="663" y="667"/>
      <point x="666" y="679" type="curve"/>
      <point x="673" y="707"/>
      <point x="671" y="723"/>
      <point x="663" y="734" type="curve" smooth="yes"/>
      <point x="652" y="748"/>
      <point x="596" y="765"/>
      <point x="521" y="765" type="curve" smooth="yes"/>
      <point x="440" y="765"/>
      <point x="342" y="686"/>
    </contour>
    <contour>
      <point x="274" y="574" type="curve"/>
      <point x="120" y="-41" type="line" smooth="yes"/>
      <point x="107" y="-94"/>
      <point x="133" y="-108"/>
      <point x="180" y="-108" type="curve"/>
      <point x="194" y="-108"/>
      <point x="209" y="-107"/>
      <point x="222" y="-103" type="curve"/>
      <point x="220" y="-66"/>
      <point x="224" y="-38"/>
      <point x="236" y="10" type="curve"/>
      <point x="363" y="517" type="line"/>
      <point x="365" y="538"/>
      <point x="367" y="554"/>
      <point x="373" y="574" type="curve"/>
      <point x="397" y="667"/>
      <point x="440" y="716"/>
      <point x="543" y="733" type="curve"/>
      <point x="547" y="759"/>
      <point x="535" y="765"/>
      <point x="521" y="765" type="curve" smooth="yes"/>
      <point x="390" y="765"/>
      <point x="305" y="697"/>
    </contour>
    <contour>
      <point x="122" y="518" type="line"/>
      <point x="120" y="514"/>
      <point x="119" y="509"/>
      <point x="118" y="504" type="curve" smooth="yes"/>
      <point x="110" y="472"/>
      <point x="111" y="454"/>
      <point x="121" y="441" type="curve" smooth="yes"/>
      <point x="133" y="424"/>
      <point x="157" y="421"/>
      <point x="218" y="421" type="curve"/>
      <point x="560" y="421" type="line"/>
      <point x="564" y="431"/>
      <point x="569" y="444"/>
      <point x="572" y="457" type="curve" smooth="yes"/>
      <point x="583" y="499"/>
      <point x="577" y="518"/>
      <point x="541" y="518" type="curve"/>
    </contour>
  </outline>
</glyph>
<glyph name="g" format="1">
  <advance width="600"/>
  <unicode hex="0067"/>
  <outline>
    <contour>
      <point x="333" y="544" type="curve" smooth="yes"/>
      <point x="200" y="544"/>
      <point x="102" y="456"/>
      <point x="47" y="226" type="curve" smooth="yes"/>
      <point x="42" y="203" type="line" smooth="yes"/>
      <point x="29" y="150"/>
      <point x="42" y="61"/>
      <point x="99" y="61" type="curve" smooth="yes"/>
      <point x="115" y="61"/>
      <point x="131" y="69"/>
      <point x="137" y="84" type="curve"/>
      <point x="129" y="128"/>
      <point x="130" y="157"/>
      <point x="146" y="216" type="curve" smooth="yes"/>
      <point x="151" y="231" type="line" smooth="yes"/>
      <point x="187" y="374"/>
      <point x="251" y="452"/>
      <point x="344" y="452" type="curve" smooth="yes"/>
      <point x="401" y="452"/>
      <point x="433" y="431"/>
      <point x="457" y="383" type="curve"/>
      <point x="471" y="397"/>
      <point x="479" y="422"/>
      <point x="473" y="440" type="curve" smooth="yes"/>
      <point x="473" y="484"/>
      <point x="416" y="544"/>
    </contour>
    <contour>
      <point x="152" y="-11" type="curve" smooth="yes"/>
      <point x="239" y="-11"/>
      <point x="348" y="71"/>
      <point x="406" y="177" type="curve" smooth="yes"/>
      <point x="429" y="219"/>
      <point x="438" y="272"/>
      <point x="432" y="303" type="curve"/>
      <point x="337" y="145"/>
      <point x="257" y="89"/>
      <point x="182" y="89" type="curve" smooth="yes"/>
      <point x="126" y="89"/>
      <point x="95" y="129"/>
      <point x="90" y="218" type="curve"/>
      <point x="57" y="216"/>
      <point x="43" y="209"/>
      <point x="42" y="203" type="curve" smooth="yes"/>
      <point x="12" y="84"/>
      <point x="57" y="-11"/>
    </contour>
    <contour>
      <point x="442" y="-3" type="curve" smooth="yes"/>
      <point x="557" y="442" type="line" smooth="yes"/>
      <point x="568" y="486"/>
      <point x="577" y="507"/>
      <point x="594" y="539" type="curve"/>
      <point x="585" y="541"/>
      <point x="576" y="542"/>
      <point x="567" y="542" type="curve" smooth="yes"/>
      <point x="546" y="542"/>
      <point x="514" y="538"/>
      <point x="494" y="522" type="curve" smooth="yes"/>
      <point x="474" y="506"/>
      <point x="465" y="487"/>
      <point x="455" y="448" type="curve" smooth="yes"/>
      <point x="343" y="10" type="line" smooth="yes"/>
      <point x="317" y="-90"/>
      <point x="293" y="-125"/>
      <point x="226" y="-179" type="curve"/>
      <point x="289" y="-226"/>
      <point x="413" y="-118"/>
    </contour>
    <contour>
      <point x="153" y="-155" type="curve" smooth="yes"/>
      <point x="79" y="-155"/>
      <point x="42" y="-146"/>
      <point x="0" y="-120" type="curve"/>
      <point x="-4" y="-120" type="line"/>
      <point x="-9" y="-128"/>
      <point x="-13" y="-138"/>
      <point x="-16" y="-149" type="curve" smooth="yes"/>
      <point x="-23" y="-176"/>
      <point x="-21" y="-202"/>
      <point x="-11" y="-215" type="curve" smooth="yes"/>
      <point x="4" y="-235"/>
      <point x="50" y="-250"/>
      <point x="137" y="-250" type="curve" smooth="yes"/>
      <point x="307" y="-250"/>
      <point x="401" y="-166"/>
      <point x="442" y="-3" type="curve" smooth="yes"/>
      <point x="444" y="8"/>
      <point x="427" y="24"/>
      <point x="406" y="24" type="curve"/>
      <point x="341" y="-128"/>
      <point x="235" y="-155"/>
    </contour>
  </outline>
</glyph>
<glyph name="h" format="1">
  <advance width="600"/>
  <unicode hex="0068"/>
  <outline>
    <contour>
      <point x="115" y="-3" type="curve"/>
      <point x="287" y="665" type="line" smooth="yes"/>
      <point x="296" y="699"/>
      <point x="296" y="720"/>
      <point x="286" y="733" type="curve" smooth="yes"/>
      <point x="273" y="750"/>
      <point x="253" y="756"/>
      <point x="224" y="756" type="curve" smooth="yes"/>
      <point x="214" y="756"/>
      <point x="204" y="755"/>
      <point x="195" y="753" type="curve"/>
      <point x="195" y="721"/>
      <point x="193" y="699"/>
      <point x="182" y="656" type="curve" smooth="yes"/>
      <point x="22" y="36" type="line" smooth="yes"/>
      <point x="13" y="1"/>
      <point x="42" y="-5"/>
      <point x="81" y="-5" type="curve" smooth="yes"/>
      <point x="94" y="-5"/>
      <point x="106" y="-5"/>
    </contour>
    <contour>
      <point x="452" y="544" type="curve" smooth="yes"/>
      <point x="365" y="544"/>
      <point x="256" y="453"/>
      <point x="187" y="336" type="curve" smooth="yes"/>
      <point x="155" y="278"/>
      <point x="141" y="215"/>
      <point x="148" y="160" type="curve"/>
      <point x="238" y="342"/>
      <point x="335" y="441"/>
      <point x="410" y="441" type="curve" smooth="yes"/>
      <point x="449" y="441"/>
      <point x="467" y="411"/>
      <point x="464" y="348" type="curve"/>
      <point x="508" y="349"/>
      <point x="535" y="365"/>
      <point x="540" y="384" type="curve" smooth="yes"/>
      <point x="560" y="462"/>
      <point x="530" y="544"/>
    </contour>
    <contour>
      <point x="458" y="0" type="curve"/>
      <point x="458" y="51"/>
      <point x="464" y="86"/>
      <point x="478" y="140" type="curve" smooth="yes"/>
      <point x="540" y="384" type="line"/>
      <point x="550" y="418"/>
      <point x="533" y="439"/>
      <point x="474" y="437" type="curve"/>
      <point x="422" y="305"/>
      <point x="392" y="231"/>
      <point x="370" y="141" type="curve" smooth="yes"/>
      <point x="366" y="131" type="line" smooth="yes"/>
      <point x="338" y="25"/>
      <point x="368" y="-4"/>
      <point x="422" y="-4" type="curve" smooth="yes"/>
      <point x="435" y="-4"/>
      <point x="446" y="-2"/>
    </contour>
    <contour>
      <point x="247" y="730" type="move" name="top"/>
    </contour>
  </outline>
</glyph>
<glyph name="i" format="1">
  <advance width="600"/>
  <unicode hex="0069"/>
  <outline>
    <contour>
      <point x="124" y="533" type="curve"/>
      <point x="118" y="523"/>
      <point x="114" y="510"/>
      <point x="110" y="495" type="curve" smooth="yes"/>
      <point x="100" y="454"/>
      <point x="109" y="435"/>
      <point x="128" y="435" type="curve" smooth="yes"/>
      <point x="160" y="435"/>
      <point x="218" y="449"/>
      <point x="332" y="449" type="curve"/>
      <point x="345" y="504"/>
      <point x="355" y="543"/>
      <point x="322" y="543" type="curve"/>
      <point x="262" y="543"/>
      <point x="199" y="540"/>
    </contour>
    <contour>
      <point x="405" y="523" type="curve" smooth="yes"/>
      <point x="392" y="535"/>
      <point x="365" y="543"/>
      <point x="331" y="543" type="curve" smooth="yes"/>
      <point x="322" y="543" type="line"/>
      <point x="226" y="159" type="line" smooth="yes"/>
      <point x="205" y="76"/>
      <point x="276" y="16"/>
      <point x="334" y="36" type="curve"/>
      <point x="312" y="86"/>
      <point x="311" y="103"/>
      <point x="329" y="176" type="curve" smooth="yes"/>
      <point x="409" y="496" type="line" smooth="yes"/>
      <point x="413" y="509"/>
      <point x="412" y="516"/>
    </contour>
    <contour>
      <point x="519" y="124" type="curve"/>
      <point x="515" y="124" type="line"/>
      <point x="470" y="95"/>
      <point x="429" y="80"/>
      <point x="373" y="80" type="curve"/>
      <point x="302" y="80"/>
      <point x="265" y="104"/>
      <point x="280" y="198" type="curve"/>
      <point x="245" y="191"/>
      <point x="230" y="174"/>
      <point x="226" y="159" type="curve" smooth="yes"/>
      <point x="203" y="67"/>
      <point x="250" y="-15"/>
      <point x="360" y="-15" type="curve" smooth="yes"/>
      <point x="367" y="-15" type="line" smooth="yes"/>
      <point x="425" y="-15"/>
      <point x="461" y="1"/>
      <point x="477" y="16" type="curve" smooth="yes"/>
      <point x="494" y="31"/>
      <point x="508" y="49"/>
      <point x="516" y="87" type="curve"/>
      <point x="519" y="101"/>
      <point x="520" y="113"/>
    </contour>
    <contour>
      <point x="462" y="646" type="curve"/>
      <point x="479" y="713" type="line" smooth="yes"/>
      <point x="488" y="751"/>
      <point x="457" y="761"/>
      <point x="411" y="761" type="curve" smooth="yes"/>
      <point x="394" y="761"/>
      <point x="374" y="760"/>
      <point x="357" y="757" type="curve"/>
      <point x="340" y="690" type="line" smooth="yes"/>
      <point x="331" y="652"/>
      <point x="362" y="642"/>
      <point x="407" y="642" type="curve" smooth="yes"/>
      <point x="425" y="642"/>
      <point x="444" y="643"/>
    </contour>
  </outline>
</glyph>
<glyph name="j" format="1">
  <advance width="600"/>
  <unicode hex="006A"/>
  <outline>
    <contour>
      <point x="139" y="533" type="curve"/>
      <point x="133" y="523"/>
      <point x="129" y="510"/>
      <point x="125" y="495" type="curve" smooth="yes"/>
      <point x="115" y="456"/>
      <point x="123" y="435"/>
      <point x="145" y="435" type="curve" smooth="yes"/>
      <point x="182" y="435"/>
      <point x="269" y="444"/>
      <point x="424" y="457" type="curve"/>
      <point x="438" y="513"/>
      <point x="438" y="543"/>
      <point x="413" y="543" type="curve" smooth="yes"/>
      <point x="340" y="543"/>
      <point x="234" y="541"/>
    </contour>
    <contour>
      <point x="371" y="-3" type="curve" smooth="yes"/>
      <point x="499" y="497" type="line" smooth="yes"/>
      <point x="503" y="508"/>
      <point x="502" y="514"/>
      <point x="495" y="522" type="curve" smooth="yes"/>
      <point x="485" y="536"/>
      <point x="454" y="543"/>
      <point x="420" y="543" type="curve" smooth="yes"/>
      <point x="413" y="543" type="line"/>
      <point x="273" y="-3" type="line" smooth="yes"/>
      <point x="248" y="-102"/>
      <point x="223" y="-130"/>
      <point x="153" y="-175" type="curve"/>
      <point x="206" y="-218"/>
      <point x="328" y="-158"/>
    </contour>
    <contour>
      <point x="98" y="-155" type="curve" smooth="yes"/>
      <point x="26" y="-155"/>
      <point x="-12" y="-146"/>
      <point x="-54" y="-120" type="curve"/>
      <point x="-58" y="-120" type="line"/>
      <point x="-62" y="-128"/>
      <point x="-65" y="-139"/>
      <point x="-68" y="-149" type="curve" smooth="yes"/>
      <point x="-75" y="-176"/>
      <point x="-75" y="-203"/>
      <point x="-65" y="-216" type="curve" smooth="yes"/>
      <point x="-50" y="-235"/>
      <point x="-3" y="-250"/>
      <point x="82" y="-250" type="curve" smooth="yes"/>
      <point x="235" y="-250"/>
      <point x="330" y="-167"/>
      <point x="371" y="-3" type="curve" smooth="yes"/>
      <point x="373" y="5"/>
      <point x="351" y="24"/>
      <point x="336" y="24" type="curve"/>
      <point x="271" y="-128"/>
      <point x="180" y="-155"/>
    </contour>
    <contour>
      <point x="549" y="646" type="curve"/>
      <point x="566" y="713" type="line" smooth="yes"/>
      <point x="576" y="751"/>
      <point x="545" y="761"/>
      <point x="499" y="761" type="curve" smooth="yes"/>
      <point x="482" y="761"/>
      <point x="462" y="760"/>
      <point x="445" y="757" type="curve"/>
      <point x="428" y="690" type="line" smooth="yes"/>
      <point x="418" y="652"/>
      <point x="448" y="642"/>
      <point x="494" y="642" type="curve" smooth="yes"/>
      <point x="511" y="642"/>
      <point x="532" y="643"/>
    </contour>
  </outline>
</glyph>
<glyph name="k" format="1">
  <advance width="600"/>
  <unicode hex="006B"/>
  <outline>
    <contour>
      <point x="116" y="-3" type="curve"/>
      <point x="287" y="663" type="line" smooth="yes"/>
      <point x="297" y="702"/>
      <point x="297" y="721"/>
      <point x="286" y="737" type="curve" smooth="yes"/>
      <point x="274" y="753"/>
      <point x="245" y="757"/>
      <point x="225" y="757" type="curve" smooth="yes"/>
      <point x="215" y="757"/>
      <point x="205" y="756"/>
      <point x="195" y="754" type="curve"/>
      <point x="196" y="722"/>
      <point x="193" y="701"/>
      <point x="182" y="657" type="curve" smooth="yes"/>
      <point x="22" y="36" type="line" smooth="yes"/>
      <point x="14" y="0"/>
      <point x="43" y="-6"/>
      <point x="82" y="-6" type="curve" smooth="yes"/>
      <point x="95" y="-6"/>
      <point x="107" y="-5"/>
    </contour>
    <contour>
      <point x="492" y="542" type="line"/>
      <point x="380" y="371"/>
      <point x="253" y="288"/>
      <point x="107" y="244" type="curve"/>
      <point x="93" y="196"/>
      <point x="112" y="173"/>
      <point x="131" y="176" type="curve" smooth="yes"/>
      <point x="279" y="205"/>
      <point x="442" y="307"/>
      <point x="560" y="463" type="curve" smooth="yes"/>
      <point x="576" y="485"/>
      <point x="581" y="494"/>
      <point x="583" y="503" type="curve" smooth="yes"/>
      <point x="588" y="523"/>
      <point x="554" y="542"/>
      <point x="508" y="542" type="curve"/>
    </contour>
    <contour>
      <point x="436" y="-10" type="curve" smooth="yes"/>
      <point x="463" y="-10"/>
      <point x="478" y="-6"/>
      <point x="496" y="5" type="curve"/>
      <point x="426" y="88"/>
      <point x="372" y="192"/>
      <point x="339" y="304" type="curve"/>
      <point x="295" y="295"/>
      <point x="251" y="266"/>
      <point x="258" y="238" type="curve" smooth="yes"/>
      <point x="277" y="158"/>
      <point x="323" y="65"/>
      <point x="355" y="23" type="curve" smooth="yes"/>
      <point x="373" y="-2"/>
      <point x="394" y="-10"/>
    </contour>
    <contour>
      <point x="253" y="-1" type="move" name="bottom"/>
    </contour>
  </outline>
</glyph>
<glyph name="l" format="1">
  <advance width="600"/>
  <unicode hex="006C"/>
  <outline>
    <contour>
      <point x="178" y="750" type="curve"/>
      <point x="172" y="740"/>
      <point x="168" y="727"/>
      <point x="164" y="713" type="curve" smooth="yes"/>
      <point x="154" y="671"/>
      <point x="163" y="653"/>
      <point x="182" y="653" type="curve" smooth="yes"/>
      <point x="214" y="653"/>
      <point x="272" y="666"/>
      <point x="386" y="666" type="curve"/>
      <point x="399" y="721"/>
      <point x="410" y="760"/>
      <point x="377" y="760" type="curve"/>
      <point x="316" y="760"/>
      <point x="253" y="757"/>
    </contour>
    <contour>
      <point x="459" y="740" type="curve" smooth="yes"/>
      <point x="447" y="752"/>
      <point x="419" y="760"/>
      <point x="385" y="760" type="curve" smooth="yes"/>
      <point x="377" y="760" type="line"/>
      <point x="223" y="159" type="line" smooth="yes"/>
      <point x="202" y="76"/>
      <point x="272" y="16"/>
      <point x="331" y="36" type="curve"/>
      <point x="309" y="86"/>
      <point x="307" y="103"/>
      <point x="326" y="176" type="curve" smooth="yes"/>
      <point x="463" y="713" type="line" smooth="yes"/>
      <point x="467" y="727"/>
      <point x="466" y="733"/>
    </contour>
    <contour>
      <point x="516" y="124" type="curve"/>
      <point x="512" y="124" type="line"/>
      <point x="465" y="95"/>
      <point x="424" y="80"/>
      <point x="367" y="80" type="curve"/>
      <point x="299" y="80"/>
      <point x="263" y="104"/>
      <point x="278" y="198" type="curve"/>
      <point x="244" y="191"/>
      <point x="226" y="174"/>
      <point x="223" y="159" type="curve" smooth="yes"/>
      <point x="200" y="67"/>
      <point x="246" y="-15"/>
      <point x="357" y="-15" type="curve" smooth="yes"/>
      <point x="364" y="-15" type="line" smooth="yes"/>
      <point x="422" y="-15"/>
      <point x="455" y="-2"/>
      <point x="474" y="15" type="curve" smooth="yes"/>
      <point x="494" y="32"/>
      <point x="504" y="50"/>
      <point x="513" y="87" type="curve"/>
      <point x="516" y="102"/>
      <point x="517" y="113"/>
    </contour>
  </outline>
</glyph>
<glyph name="m" format="1">
  <advance width="600"/>
  <unicode hex="006D"/>
  <outline>
    <contour>
      <point x="67" y="-3" type="curve"/>
      <point x="179" y="434" type="line" smooth="yes"/>
      <point x="193" y="488"/>
      <point x="192" y="507"/>
      <point x="181" y="521" type="curve" smooth="yes"/>
      <point x="170" y="536"/>
      <point x="150" y="538"/>
      <point x="130" y="538" type="curve" smooth="yes"/>
      <point x="120" y="538"/>
      <point x="110" y="537"/>
      <point x="100" y="535" type="curve"/>
      <point x="101" y="503"/>
      <point x="98" y="482"/>
      <point x="87" y="439" type="curve" smooth="yes"/>
      <point x="-16" y="36" type="line" smooth="yes"/>
      <point x="-25" y="0"/>
      <point x="-6" y="-6"/>
      <point x="33" y="-6" type="curve" smooth="yes"/>
      <point x="46" y="-6"/>
      <point x="58" y="-5"/>
    </contour>
    <contour>
      <point x="316" y="543" type="curve" smooth="yes"/>
      <point x="263" y="543"/>
      <point x="199" y="484"/>
      <point x="151" y="388" type="curve" smooth="yes"/>
      <point x="136" y="359"/>
      <point x="134" y="332"/>
      <point x="138" y="306" type="curve"/>
      <point x="202" y="409"/>
      <point x="244" y="446"/>
      <point x="282" y="446" type="curve" smooth="yes"/>
      <point x="306" y="446"/>
      <point x="317" y="433"/>
      <point x="318" y="398" type="curve"/>
      <point x="352" y="403"/>
      <point x="370" y="415"/>
      <point x="374" y="430" type="curve" smooth="yes"/>
      <point x="388" y="487"/>
      <point x="366" y="543"/>
    </contour>
    <contour>
      <point x="263" y="0" type="curve"/>
      <point x="374" y="430" type="line" smooth="yes"/>
      <point x="384" y="469"/>
      <point x="373" y="479"/>
      <point x="333" y="473" type="curve"/>
      <point x="274" y="306"/>
      <point x="244" y="210"/>
      <point x="219" y="112" type="curve" smooth="yes"/>
      <point x="217" y="107" type="line" smooth="yes"/>
      <point x="195" y="21"/>
      <point x="209" y="-3"/>
      <point x="247" y="-3" type="curve" smooth="yes"/>
      <point x="253" y="-3"/>
      <point x="257" y="-2"/>
    </contour>
    <contour>
      <point x="525" y="544" type="curve" smooth="yes"/>
      <point x="469" y="544"/>
      <point x="393" y="484"/>
      <point x="346" y="397" type="curve" smooth="yes"/>
      <point x="325" y="360"/>
      <point x="320" y="338"/>
      <point x="333" y="311" type="curve"/>
      <point x="385" y="397"/>
      <point x="438" y="446"/>
      <point x="480" y="446" type="curve" smooth="yes"/>
      <point x="509" y="446"/>
      <point x="516" y="429"/>
      <point x="516" y="391" type="curve"/>
      <point x="571" y="395"/>
      <point x="589" y="406"/>
      <point x="593" y="424" type="curve" smooth="yes"/>
      <point x="606" y="477"/>
      <point x="578" y="544"/>
    </contour>
    <contour>
      <point x="500" y="0" type="curve"/>
      <point x="501" y="51"/>
      <point x="506" y="86"/>
      <point x="520" y="141" type="curve" smooth="yes"/>
      <point x="593" y="424" type="line" smooth="yes"/>
      <point x="600" y="451"/>
      <point x="579" y="468"/>
      <point x="527" y="468" type="curve"/>
      <point x="474" y="323"/>
      <point x="442" y="224"/>
      <point x="418" y="129" type="curve" smooth="yes"/>
      <point x="416" y="124" type="line" smooth="yes"/>
      <point x="389" y="18"/>
      <point x="410" y="-4"/>
      <point x="462" y="-4" type="curve" smooth="yes"/>
      <point x="477" y="-4"/>
      <point x="488" y="-2"/>
    </contour>
  </outline>
</glyph>
<glyph name="o" format="1">
  <advance width="600"/>
  <unicode hex="006F"/>
  <outline>
    <contour>
      <point x="369" y="544" type="curve" smooth="yes"/>
      <point x="227" y="544"/>
      <point x="108" y="439"/>
      <point x="61" y="259" type="curve" smooth="yes"/>
      <point x="57" y="243" type="line" smooth="yes"/>
      <point x="15" y="85"/>
      <point x="103" y="-11"/>
      <point x="249" y="-11" type="curve" smooth="yes"/>
      <point x="276" y="-11"/>
      <point x="300" y="13"/>
      <point x="306" y="38" type="curve"/>
      <point x="160" y="38"/>
      <point x="120" y="116"/>
      <point x="152" y="238" type="curve" smooth="yes"/>
      <point x="156" y="252" type="line" smooth="yes"/>
      <point x="191" y="383"/>
      <point x="268" y="454"/>
      <point x="358" y="454" type="curve" smooth="yes"/>
      <point x="409" y="454"/>
      <point x="440" y="436"/>
      <point x="469" y="406" type="curve"/>
      <point x="528" y="453"/>
      <point x="447" y="544"/>
    </contour>
    <contour>
      <point x="249" y="-11" type="curve" smooth="yes"/>
      <point x="390" y="-11"/>
      <point x="488" y="63"/>
      <point x="527" y="217" type="curve" smooth="yes"/>
      <point x="531" y="233" type="line" smooth="yes"/>
      <point x="577" y="412"/>
      <point x="497" y="544"/>
      <point x="369" y="544" type="curve" smooth="yes"/>
      <point x="345" y="544"/>
      <point x="323" y="524"/>
      <point x="318" y="496" type="curve"/>
      <point x="433" y="493"/>
      <point x="476" y="399"/>
      <point x="437" y="241" type="curve" smooth="yes"/>
      <point x="434" y="230" type="line" smooth="yes"/>
      <point x="408" y="131"/>
      <point x="354" y="79"/>
      <point x="255" y="79" type="curve" smooth="yes"/>
      <point x="199" y="79"/>
      <point x="161" y="94"/>
      <point x="127" y="123" type="curve"/>
      <point x="83" y="77"/>
      <point x="143" y="-11"/>
    </contour>
    <contour>
      <point x="369" y="544" type="move" name="top"/>
    </contour>
    <contour>
      <point x="308" y="-1" type="move" name="ogonek"/>
    </contour>
    <contour>
      <point x="233" y="-1" type="move" name="bottom"/>
    </contour>
  </outline>
</glyph>
<glyph name="p" format="1">
  <advance width="600"/>
  <unicode hex="0070"/>
  <outline>
    <contour>
      <point x="62" y="-210" type="curve"/>
      <point x="217" y="395" type="line" smooth="yes"/>
      <point x="235" y="464"/>
      <point x="241" y="498"/>
      <point x="227" y="518" type="curve" smooth="yes"/>
      <point x="215" y="533"/>
      <point x="192" y="538"/>
      <point x="172" y="538" type="curve"/>
      <point x="163" y="538"/>
      <point x="153" y="537"/>
      <point x="143" y="535" type="curve"/>
      <point x="144" y="503"/>
      <point x="141" y="482"/>
      <point x="130" y="439" type="curve" smooth="yes"/>
      <point x="-27" y="-172" type="line" smooth="yes"/>
      <point x="-36" y="-208"/>
      <point x="-10" y="-214"/>
      <point x="25" y="-214" type="curve"/>
      <point x="39" y="-214"/>
      <point x="52" y="-213"/>
    </contour>
    <contour>
      <point x="449" y="544" type="curve" smooth="yes"/>
      <point x="356" y="544"/>
      <point x="249" y="461"/>
      <point x="192" y="356" type="curve" smooth="yes"/>
      <point x="169" y="314"/>
      <point x="160" y="261"/>
      <point x="166" y="230" type="curve"/>
      <point x="264" y="391"/>
      <point x="346" y="443"/>
      <point x="420" y="443" type="curve" smooth="yes"/>
      <point x="468" y="443"/>
      <point x="496" y="403"/>
      <point x="509" y="320" type="curve"/>
      <point x="542" y="318"/>
      <point x="555" y="328"/>
      <point x="558" y="337" type="curve" smooth="yes"/>
      <point x="590" y="459"/>
      <point x="543" y="544"/>
    </contour>
    <contour>
      <point x="258" y="-11" type="curve" smooth="yes"/>
      <point x="376" y="-11"/>
      <point x="492" y="77"/>
      <point x="552" y="316" type="curve" smooth="yes"/>
      <point x="558" y="337" type="line" smooth="yes"/>
      <point x="572" y="390"/>
      <point x="556" y="474"/>
      <point x="499" y="474" type="curve" smooth="yes"/>
      <point x="482" y="474"/>
      <point x="467" y="466"/>
      <point x="459" y="442" type="curve"/>
      <point x="469" y="406"/>
      <point x="467" y="373"/>
      <point x="452" y="317" type="curve" smooth="yes"/>
      <point x="448" y="302" type="line" smooth="yes"/>
      <point x="411" y="156"/>
      <point x="347" y="81"/>
      <point x="254" y="81" type="curve" smooth="yes"/>
      <point x="197" y="81"/>
      <point x="166" y="104"/>
      <point x="142" y="152" type="curve"/>
      <point x="128" y="138"/>
      <point x="118" y="108"/>
      <point x="123" y="89" type="curve" smooth="yes"/>
      <point x="124" y="46"/>
      <point x="179" y="-11"/>
    </contour>
  </outline>
</glyph>
<glyph name="q" format="1">
  <advance width="600"/>
  <unicode hex="0071"/>
  <outline>
    <contour>
      <point x="333" y="544" type="curve" smooth="yes"/>
      <point x="201" y="544"/>
      <point x="102" y="456"/>
      <point x="48" y="226" type="curve" smooth="yes"/>
      <point x="42" y="203" type="line" smooth="yes"/>
      <point x="30" y="150"/>
      <point x="41" y="62"/>
      <point x="97" y="62" type="curve" smooth="yes"/>
      <point x="114" y="62"/>
      <point x="130" y="70"/>
      <point x="136" y="85" type="curve"/>
      <point x="128" y="129"/>
      <point x="131" y="157"/>
      <point x="146" y="216" type="curve" smooth="yes"/>
      <point x="151" y="233" type="line" smooth="yes"/>
      <point x="187" y="376"/>
      <point x="251" y="452"/>
      <point x="344" y="452" type="curve" smooth="yes"/>
      <point x="401" y="452"/>
      <point x="433" y="431"/>
      <point x="457" y="383" type="curve"/>
      <point x="471" y="397"/>
      <point x="480" y="421"/>
      <point x="474" y="439" type="curve" smooth="yes"/>
      <point x="473" y="482"/>
      <point x="414" y="544"/>
    </contour>
    <contour>
      <point x="152" y="-11" type="curve" smooth="yes"/>
      <point x="239" y="-11"/>
      <point x="348" y="71"/>
      <point x="406" y="177" type="curve" smooth="yes"/>
      <point x="429" y="219"/>
      <point x="438" y="272"/>
      <point x="432" y="303" type="curve"/>
      <point x="336" y="140"/>
      <point x="253" y="89"/>
      <point x="182" y="89" type="curve" smooth="yes"/>
      <point x="127" y="89"/>
      <point x="96" y="130"/>
      <point x="90" y="218" type="curve"/>
      <point x="57" y="216"/>
      <point x="44" y="211"/>
      <point x="42" y="203" type="curve" smooth="yes"/>
      <point x="12" y="84"/>
      <point x="58" y="-11"/>
    </contour>
    <contour>
      <point x="389" y="-210" type="curve"/>
      <point x="556" y="438" type="line" smooth="yes"/>
      <point x="567" y="481"/>
      <point x="576" y="503"/>
      <point x="593" y="534" type="curve"/>
      <point x="584" y="537"/>
      <point x="575" y="538"/>
      <point x="566" y="538" type="curve" smooth="yes"/>
      <point x="545" y="538"/>
      <point x="520" y="533"/>
      <point x="500" y="517" type="curve" smooth="yes"/>
      <point x="478" y="499"/>
      <point x="465" y="466"/>
      <point x="448" y="404" type="curve" smooth="yes"/>
      <point x="301" y="-167" type="line" smooth="yes"/>
      <point x="292" y="-205"/>
      <point x="316" y="-214"/>
      <point x="353" y="-214" type="curve" smooth="yes"/>
      <point x="367" y="-214"/>
      <point x="379" y="-213"/>
    </contour>
  </outline>
</glyph>
<glyph name="r" format="1">
  <advance width="600"/>
  <unicode hex="0072"/>
  <outline>
    <contour>
      <point x="127" y="533" type="curve"/>
      <point x="118" y="516"/>
      <point x="114" y="504"/>
      <point x="110" y="488" type="curve" smooth="yes"/>
      <point x="101" y="454"/>
      <point x="110" y="438"/>
      <point x="130" y="438" type="curve" smooth="yes"/>
      <point x="158" y="438"/>
      <point x="200" y="454"/>
      <point x="292" y="454" type="curve"/>
      <point x="309" y="520"/>
      <point x="305" y="543"/>
      <point x="280" y="543" type="curve" smooth="yes"/>
      <point x="225" y="543"/>
      <point x="179" y="540"/>
    </contour>
    <contour>
      <point x="235" y="-1" type="curve"/>
      <point x="234" y="36"/>
      <point x="238" y="64"/>
      <point x="250" y="112" type="curve" smooth="yes"/>
      <point x="335" y="444" type="line" smooth="yes"/>
      <point x="351" y="503"/>
      <point x="326" y="543"/>
      <point x="280" y="543" type="curve" smooth="yes"/>
      <point x="274" y="543"/>
      <point x="268" y="541"/>
      <point x="261" y="536" type="curve"/>
      <point x="138" y="60" type="line" smooth="yes"/>
      <point x="125" y="8"/>
      <point x="149" y="-6"/>
      <point x="194" y="-6" type="curve" smooth="yes"/>
      <point x="208" y="-6"/>
      <point x="221" y="-5"/>
    </contour>
    <contour>
      <point x="264" y="194" type="curve"/>
      <point x="353" y="369"/>
      <point x="443" y="441"/>
      <point x="515" y="441" type="curve" smooth="yes"/>
      <point x="547" y="441"/>
      <point x="564" y="434"/>
      <point x="583" y="420" type="curve"/>
      <point x="587" y="420" type="line"/>
      <point x="597" y="437"/>
      <point x="605" y="454"/>
      <point x="611" y="477" type="curve"/>
      <point x="624" y="525"/>
      <point x="606" y="550"/>
      <point x="555" y="550" type="curve" smooth="yes"/>
      <point x="552" y="550" type="line" smooth="yes"/>
      <point x="466" y="550"/>
      <point x="353" y="466"/>
      <point x="285" y="322" type="curve" smooth="yes"/>
      <point x="266" y="287"/>
      <point x="258" y="251"/>
    </contour>
  </outline>
</glyph>
<glyph name="s" format="1">
  <advance width="600"/>
  <unicode hex="0073"/>
  <outline>
    <contour>
      <point x="435" y="545" type="curve" smooth="yes"/>
      <point x="427" y="545" type="line" smooth="yes"/>
      <point x="284" y="545"/>
      <point x="152" y="487"/>
      <point x="126" y="381" type="curve" smooth="yes"/>
      <point x="115" y="341"/>
      <point x="163" y="311"/>
      <point x="215" y="311" type="curve"/>
      <point x="212" y="335"/>
      <point x="215" y="354"/>
      <point x="220" y="374" type="curve" smooth="yes"/>
      <point x="231" y="418"/>
      <point x="308" y="449"/>
      <point x="408" y="449" type="curve" smooth="yes"/>
      <point x="459" y="449"/>
      <point x="500" y="440"/>
      <point x="536" y="422" type="curve"/>
      <point x="540" y="422" type="line"/>
      <point x="544" y="431"/>
      <point x="548" y="440"/>
      <point x="551" y="450" type="curve"/>
      <point x="559" y="484"/>
      <point x="558" y="505"/>
      <point x="545" y="522" type="curve" smooth="yes"/>
      <point x="536" y="535"/>
      <point x="495" y="545"/>
    </contour>
    <contour>
      <point x="383" y="289" type="curve" smooth="yes"/>
      <point x="297" y="307" type="line" smooth="yes"/>
      <point x="221" y="323"/>
      <point x="213" y="347"/>
      <point x="220" y="374" type="curve" smooth="yes"/>
      <point x="224" y="387"/>
      <point x="230" y="407"/>
      <point x="246" y="432" type="curve"/>
      <point x="176" y="420"/>
      <point x="132" y="409"/>
      <point x="126" y="381" type="curve"/>
      <point x="108" y="313"/>
      <point x="138" y="262"/>
      <point x="240" y="238" type="curve" smooth="yes"/>
      <point x="337" y="216" type="line" smooth="yes"/>
      <point x="403" y="202"/>
      <point x="413" y="174"/>
      <point x="402" y="131" type="curve" smooth="yes"/>
      <point x="399" y="117"/>
      <point x="392" y="105"/>
      <point x="383" y="96" type="curve"/>
      <point x="451" y="99"/>
      <point x="490" y="118"/>
      <point x="496" y="142" type="curve" smooth="yes"/>
      <point x="513" y="210"/>
      <point x="478" y="270"/>
    </contour>
    <contour>
      <point x="254" y="84" type="curve" smooth="yes"/>
      <point x="141" y="84"/>
      <point x="101" y="98"/>
      <point x="46" y="143" type="curve"/>
      <point x="42" y="143" type="line"/>
      <point x="37" y="134"/>
      <point x="33" y="123"/>
      <point x="29" y="108" type="curve" smooth="yes"/>
      <point x="20" y="70"/>
      <point x="26" y="51"/>
      <point x="35" y="37" type="curve" smooth="yes"/>
      <point x="50" y="17"/>
      <point x="115" y="-11"/>
      <point x="212" y="-11" type="curve" smooth="yes"/>
      <point x="224" y="-11" type="line" smooth="yes"/>
      <point x="377" y="-11"/>
      <point x="468" y="34"/>
      <point x="496" y="142" type="curve" smooth="yes"/>
      <point x="505" y="177"/>
      <point x="480" y="188"/>
      <point x="445" y="194" type="curve"/>
      <point x="444" y="180"/>
      <point x="442" y="172"/>
      <point x="440" y="164" type="curve" smooth="yes"/>
      <point x="429" y="120"/>
      <point x="365" y="84"/>
    </contour>
    <contour>
      <point x="385" y="544" type="move" name="top"/>
    </contour>
    <contour>
      <point x="243" y="-1" type="move" name="bottom"/>
    </contour>
  </outline>
</glyph>
<glyph name="t" format="1">
  <advance width="600"/>
  <unicode hex="0074"/>
  <outline>
    <contour>
      <point x="296" y="700" type="curve"/>
      <point x="160" y="158" type="line" smooth="yes"/>
      <point x="140" y="76"/>
      <point x="196" y="16"/>
      <point x="271" y="28" type="curve"/>
      <point x="247" y="78"/>
      <point x="247" y="111"/>
      <point x="263" y="173" type="curve" smooth="yes"/>
      <point x="385" y="663" type="line" smooth="yes"/>
      <point x="394" y="697"/>
      <point x="367" y="704"/>
      <point x="333" y="704" type="curve" smooth="yes"/>
      <point x="320" y="704"/>
      <point x="307" y="703"/>
    </contour>
    <contour>
      <point x="500" y="142" type="curve"/>
      <point x="496" y="142" type="line"/>
      <point x="445" y="102"/>
      <point x="394" y="81"/>
      <point x="328" y="81" type="curve" smooth="yes"/>
      <point x="264" y="81"/>
      <point x="215" y="107"/>
      <point x="206" y="187" type="curve"/>
      <point x="178" y="184"/>
      <point x="164" y="173"/>
      <point x="160" y="158" type="curve" smooth="yes"/>
      <point x="135" y="56"/>
      <point x="193" y="-16"/>
      <point x="310" y="-16" type="curve" smooth="yes"/>
      <point x="318" y="-16" type="line" smooth="yes"/>
      <point x="380" y="-16"/>
      <point x="429" y="2"/>
      <point x="457" y="25" type="curve" smooth="yes"/>
      <point x="476" y="42"/>
      <point x="489" y="65"/>
      <point x="497" y="100" type="curve" smooth="yes"/>
      <point x="500" y="113"/>
      <point x="501" y="126"/>
    </contour>
    <contour>
      <point x="125" y="533" type="line"/>
      <point x="124" y="528"/>
      <point x="123" y="523"/>
      <point x="121" y="518" type="curve" smooth="yes"/>
      <point x="113" y="485"/>
      <point x="114" y="465"/>
      <point x="124" y="453" type="curve" smooth="yes"/>
      <point x="134" y="440"/>
      <point x="152" y="435"/>
      <point x="199" y="435" type="curve" smooth="yes"/>
      <point x="577" y="435" type="line"/>
      <point x="581" y="446"/>
      <point x="586" y="459"/>
      <point x="589" y="472" type="curve" smooth="yes"/>
      <point x="600" y="515"/>
      <point x="591" y="533"/>
      <point x="555" y="533" type="curve" smooth="yes"/>
    </contour>
    <contour>
      <point x="560" y="700" type="move" name="caronslovak"/>
    </contour>
    <contour>
      <point x="298" y="-1" type="move" name="bottom"/>
    </contour>
  </outline>
</glyph>
<glyph name="v" format="1">
  <advance width="600"/>
  <unicode hex="0076"/>
  <outline>
    <contour>
      <point x="518" y="541" type="curve" smooth="yes"/>
      <point x="501" y="541" type="line"/>
      <point x="409" y="260"/>
      <point x="346" y="154"/>
      <point x="214" y="68" type="curve"/>
      <point x="189" y="51"/>
      <point x="199" y="-10"/>
      <point x="235" y="-10" type="curve"/>
      <point x="269" y="-10" type="line"/>
      <point x="405" y="81"/>
      <point x="502" y="231"/>
      <point x="589" y="490" type="curve"/>
      <point x="599" y="518"/>
      <point x="563" y="541"/>
    </contour>
    <contour>
      <point x="148" y="541" type="curve" smooth="yes"/>
      <point x="131" y="541" type="line"/>
      <point x="86" y="275"/>
      <point x="94" y="122"/>
      <point x="166" y="25" type="curve"/>
      <point x="187" y="-3"/>
      <point x="208" y="-10"/>
      <point x="232" y="-10" type="curve" smooth="yes"/>
      <point x="240" y="-10" type="line" smooth="yes"/>
      <point x="268" y="-10"/>
      <point x="289" y="10"/>
      <point x="311" y="44" type="curve"/>
      <point x="303" y="44"/>
      <point x="298" y="44"/>
      <point x="293" y="44" type="curve" smooth="yes"/>
      <point x="286" y="44"/>
      <point x="279" y="46"/>
      <point x="272" y="53" type="curve"/>
      <point x="196" y="139"/>
      <point x="189" y="263"/>
      <point x="228" y="504" type="curve"/>
      <point x="233" y="527"/>
      <point x="193" y="541"/>
    </contour>
  </outline>
</glyph>
<glyph name="w" format="1">
  <advance width="600"/>
  <unicode hex="0077"/>
  <outline>
    <contour>
      <point x="120" y="541" type="curve"/>
      <point x="35" y="221"/>
      <point x="30" y="88"/>
      <point x="81" y="9" type="curve" smooth="yes"/>
      <point x="90" y="-4"/>
      <point x="104" y="-10"/>
      <point x="118" y="-10" type="curve" smooth="yes"/>
      <point x="124" y="-10" type="line" smooth="yes"/>
      <point x="134" y="-10"/>
      <point x="150" y="22"/>
      <point x="156" y="48" type="curve" smooth="yes"/>
      <point x="116" y="107"/>
      <point x="120" y="197"/>
      <point x="201" y="508" type="curve"/>
      <point x="202" y="515"/>
      <point x="202" y="518"/>
      <point x="198" y="524" type="curve" smooth="yes"/>
      <point x="191" y="536"/>
      <point x="168" y="543"/>
      <point x="143" y="543" type="curve"/>
      <point x="134" y="543"/>
      <point x="127" y="543"/>
    </contour>
    <contour>
      <point x="323" y="438" type="curve" smooth="yes"/>
      <point x="308" y="438" type="line"/>
      <point x="254" y="225"/>
      <point x="193" y="135"/>
      <point x="97" y="35" type="curve"/>
      <point x="95" y="10"/>
      <point x="102" y="-10"/>
      <point x="120" y="-10" type="curve"/>
      <point x="139" y="-10" type="line"/>
      <point x="231" y="80"/>
      <point x="306" y="222"/>
      <point x="350" y="396" type="curve" smooth="yes"/>
      <point x="358" y="424"/>
      <point x="346" y="438"/>
    </contour>
    <contour>
      <point x="323" y="438" type="curve" smooth="yes"/>
      <point x="318" y="438" type="line"/>
      <point x="273" y="266"/>
      <point x="267" y="96"/>
      <point x="317" y="4" type="curve" smooth="yes"/>
      <point x="322" y="-5"/>
      <point x="331" y="-10"/>
      <point x="342" y="-10" type="curve" smooth="yes"/>
      <point x="355" y="-10" type="line" smooth="yes"/>
      <point x="369" y="-10"/>
      <point x="375" y="6"/>
      <point x="383" y="35" type="curve" smooth="yes"/>
      <point x="333" y="96"/>
      <point x="320" y="227"/>
      <point x="366" y="407" type="curve" smooth="yes"/>
      <point x="370" y="423"/>
      <point x="357" y="438"/>
    </contour>
    <contour>
      <point x="523" y="541" type="curve"/>
      <point x="445" y="215"/>
      <point x="412" y="144"/>
      <point x="333" y="56" type="curve"/>
      <point x="328" y="16"/>
      <point x="331" y="-10"/>
      <point x="349" y="-10" type="curve"/>
      <point x="368" y="-10" type="line"/>
      <point x="476" y="91"/>
      <point x="529" y="198"/>
      <point x="606" y="502" type="curve"/>
      <point x="609" y="513"/>
      <point x="607" y="519"/>
      <point x="604" y="523" type="curve" smooth="yes"/>
      <point x="591" y="538"/>
      <point x="565" y="543"/>
      <point x="545" y="543" type="curve"/>
      <point x="538" y="543"/>
      <point x="530" y="543"/>
    </contour>
    <contour>
      <point x="368" y="544" type="move" name="top"/>
    </contour>
  </outline>
</glyph>
<glyph name="x" format="1">
  <advance width="600"/>
  <unicode hex="0078"/>
  <outline>
    <contour>
      <point x="422" y="-11" type="curve" smooth="yes"/>
      <point x="455" y="-11"/>
      <point x="470" y="-5"/>
      <point x="491" y="9" type="curve"/>
      <point x="429" y="77"/>
      <point x="374" y="152"/>
      <point x="333" y="234" type="curve" smooth="yes"/>
      <point x="327" y="248"/>
      <point x="322" y="261"/>
      <point x="315" y="275" type="curve" smooth="yes"/>
      <point x="281" y="346"/>
      <point x="257" y="424"/>
      <point x="240" y="507" type="curve" smooth="yes"/>
      <point x="235" y="531"/>
      <point x="210" y="539"/>
      <point x="170" y="539" type="curve" smooth="yes"/>
      <point x="150" y="539"/>
      <point x="135" y="537"/>
      <point x="119" y="534" type="curve"/>
      <point x="145" y="412"/>
      <point x="186" y="299"/>
      <point x="238" y="197" type="curve" smooth="yes"/>
      <point x="245" y="184"/>
      <point x="252" y="170"/>
      <point x="259" y="157" type="curve" smooth="yes"/>
      <point x="288" y="107"/>
      <point x="321" y="58"/>
      <point x="358" y="15" type="curve" smooth="yes"/>
      <point x="373" y="-3"/>
      <point x="390" y="-11"/>
    </contour>
    <contour>
      <point x="516" y="541" type="curve" smooth="yes"/>
      <point x="500" y="540" type="line"/>
      <point x="433" y="434"/>
      <point x="363" y="351"/>
      <point x="288" y="275" type="curve" smooth="yes"/>
      <point x="273" y="261"/>
      <point x="255" y="254"/>
      <point x="240" y="239" type="curve" smooth="yes"/>
      <point x="174" y="178"/>
      <point x="102" y="119"/>
      <point x="18" y="60" type="curve" smooth="yes"/>
      <point x="-3" y="46"/>
      <point x="-6" y="40"/>
      <point x="-7" y="30" type="curve" smooth="yes"/>
      <point x="-12" y="8"/>
      <point x="31" y="-10"/>
      <point x="83" y="-10" type="curve" smooth="yes"/>
      <point x="93" y="-10" type="line"/>
      <point x="163" y="44"/>
      <point x="230" y="100"/>
      <point x="295" y="158" type="curve" smooth="yes"/>
      <point x="309" y="171"/>
      <point x="322" y="179"/>
      <point x="335" y="191" type="curve" smooth="yes"/>
      <point x="432" y="284"/>
      <point x="514" y="374"/>
      <point x="584" y="479" type="curve" smooth="yes"/>
      <point x="590" y="488"/>
      <point x="592" y="495"/>
      <point x="594" y="502" type="curve" smooth="yes"/>
      <point x="600" y="527"/>
      <point x="569" y="542"/>
    </contour>
  </outline>
</glyph>
<glyph name="y" format="1">
  <advance width="600"/>
  <unicode hex="0079"/>
  <outline>
    <contour>
      <point x="140" y="534" type="curve"/>
      <point x="139" y="483"/>
      <point x="133" y="448"/>
      <point x="119" y="393" type="curve" smooth="yes"/>
      <point x="52" y="135" type="line"/>
      <point x="45" y="108"/>
      <point x="60" y="95"/>
      <point x="122" y="97" type="curve"/>
      <point x="175" y="226"/>
      <point x="204" y="305"/>
      <point x="230" y="397" type="curve" smooth="yes"/>
      <point x="232" y="404" type="line" smooth="yes"/>
      <point x="261" y="510"/>
      <point x="232" y="538"/>
      <point x="175" y="538" type="curve" smooth="yes"/>
      <point x="162" y="538"/>
      <point x="151" y="536"/>
    </contour>
    <contour>
      <point x="148" y="-11" type="curve" smooth="yes"/>
      <point x="234" y="-11"/>
      <point x="340" y="83"/>
      <point x="410" y="200" type="curve" smooth="yes"/>
      <point x="441" y="258"/>
      <point x="455" y="319"/>
      <point x="449" y="368" type="curve"/>
      <point x="357" y="184"/>
      <point x="259" y="93"/>
      <point x="185" y="93" type="curve" smooth="yes"/>
      <point x="146" y="93"/>
      <point x="127" y="119"/>
      <point x="130" y="176" type="curve"/>
      <point x="83" y="175"/>
      <point x="58" y="156"/>
      <point x="52" y="135" type="curve" smooth="yes"/>
      <point x="35" y="71"/>
      <point x="70" y="-11"/>
    </contour>
    <contour>
      <point x="445" y="-3" type="curve" smooth="yes"/>
      <point x="573" y="496" type="line" smooth="yes"/>
      <point x="582" y="532"/>
      <point x="553" y="538"/>
      <point x="516" y="538" type="curve" smooth="yes"/>
      <point x="502" y="538"/>
      <point x="489" y="537"/>
      <point x="480" y="534" type="curve"/>
      <point x="345" y="10" type="line" smooth="yes"/>
      <point x="320" y="-90"/>
      <point x="295" y="-125"/>
      <point x="229" y="-179" type="curve"/>
      <point x="292" y="-226"/>
      <point x="415" y="-118"/>
    </contour>
    <contour>
      <point x="155" y="-155" type="curve" smooth="yes"/>
      <point x="82" y="-155"/>
      <point x="44" y="-146"/>
      <point x="2" y="-120" type="curve"/>
      <point x="-2" y="-120" type="line"/>
      <point x="-7" y="-128"/>
      <point x="-11" y="-138"/>
      <point x="-14" y="-149" type="curve" smooth="yes"/>
      <point x="-20" y="-176"/>
      <point x="-19" y="-202"/>
      <point x="-9" y="-215" type="curve" smooth="yes"/>
      <point x="6" y="-235"/>
      <point x="52" y="-250"/>
      <point x="140" y="-250" type="curve" smooth="yes"/>
      <point x="310" y="-250"/>
      <point x="404" y="-166"/>
      <point x="445" y="-3" type="curve" smooth="yes"/>
      <point x="447" y="5"/>
      <point x="424" y="24"/>
      <point x="409" y="24" type="curve"/>
      <point x="344" y="-128"/>
      <point x="238" y="-155"/>
    </contour>
  </outline>
</glyph>
<glyph name="z" format="1">
  <advance width="600"/>
  <unicode hex="007A"/>
  <outline>
    <contour>
      <point x="141" y="533" type="line"/>
      <point x="137" y="525"/>
      <point x="135" y="517"/>
      <point x="132" y="508" type="curve" smooth="yes"/>
      <point x="125" y="480"/>
      <point x="128" y="461"/>
      <point x="137" y="449" type="curve" smooth="yes"/>
      <point x="142" y="441"/>
      <point x="148" y="438"/>
      <point x="161" y="438" type="curve" smooth="yes"/>
      <point x="381" y="438" type="line" smooth="yes"/>
      <point x="436" y="438"/>
      <point x="521" y="441"/>
      <point x="576" y="451" type="curve"/>
      <point x="578" y="456" type="line" smooth="yes"/>
      <point x="584" y="484"/>
      <point x="578" y="505"/>
      <point x="565" y="522" type="curve" smooth="yes"/>
      <point x="559" y="530"/>
      <point x="552" y="533"/>
      <point x="538" y="533" type="curve" smooth="yes"/>
    </contour>
    <contour>
      <point x="489" y="486" type="curve"/>
      <point x="383" y="347"/>
      <point x="211" y="196"/>
      <point x="26" y="87" type="curve"/>
      <point x="17" y="54"/>
      <point x="83" y="45"/>
      <point x="128" y="66" type="curve" smooth="yes"/>
      <point x="324" y="177"/>
      <point x="566" y="409"/>
      <point x="576" y="451" type="curve"/>
      <point x="583" y="478"/>
      <point x="549" y="486"/>
    </contour>
    <contour>
      <point x="456" y="0" type="line"/>
      <point x="461" y="10"/>
      <point x="466" y="23"/>
      <point x="470" y="36" type="curve"/>
      <point x="480" y="80"/>
      <point x="474" y="95"/>
      <point x="436" y="95" type="curve" smooth="yes"/>
      <point x="229" y="95" type="line" smooth="yes"/>
      <point x="164" y="95"/>
      <point x="89" y="93"/>
      <point x="26" y="87" type="curve"/>
      <point x="24" y="78" type="line" smooth="yes"/>
      <point x="14" y="46"/>
      <point x="17" y="23"/>
      <point x="29" y="8" type="curve" smooth="yes"/>
      <point x="33" y="2"/>
      <point x="38" y="0"/>
      <point x="47" y="0" type="curve" smooth="yes"/>
    </contour>
    <contour>
      <point x="369" y="544" type="move" name="top"/>
    </contour>
  </outline>
</glyph>
<glyph name="braceleft" format="1">
  <advance width="600"/>
  <unicode hex="007B"/>
  <outline>
    <contour>
      <point x="545" y="672" type="curve" smooth="yes"/>
      <point x="571" y="672"/>
      <point x="591" y="670"/>
      <point x="608" y="664" type="curve"/>
      <point x="612" y="664" type="line"/>
      <point x="617" y="674"/>
      <point x="620" y="683"/>
      <point x="624" y="698" type="curve"/>
      <point x="634" y="737"/>
      <point x="618" y="770"/>
      <point x="580" y="770" type="curve" smooth="yes"/>
      <point x="576" y="770" type="line" smooth="yes"/>
      <point x="453" y="770"/>
      <point x="351" y="727"/>
      <point x="333" y="653" type="curve" smooth="yes"/>
      <point x="332" y="650" type="line" smooth="yes"/>
      <point x="326" y="627"/>
      <point x="347" y="604"/>
      <point x="375" y="602" type="curve"/>
      <point x="412" y="655"/>
      <point x="471" y="672"/>
    </contour>
    <contour>
      <point x="422" y="450" type="curve" smooth="yes"/>
      <point x="446" y="546"/>
      <point x="398" y="605"/>
      <point x="408" y="643" type="curve" smooth="yes"/>
      <point x="413" y="662"/>
      <point x="421" y="676"/>
      <point x="436" y="694" type="curve"/>
      <point x="392" y="702"/>
      <point x="343" y="694"/>
      <point x="333" y="652" type="curve" smooth="yes"/>
      <point x="331" y="647" type="line" smooth="yes"/>
      <point x="318" y="593"/>
      <point x="351" y="542"/>
      <point x="331" y="463" type="curve" smooth="yes"/>
      <point x="313" y="392"/>
      <point x="253" y="345"/>
      <point x="138" y="345" type="curve" smooth="yes"/>
      <point x="132" y="345" type="line"/>
      <point x="130" y="335" type="line" smooth="yes"/>
      <point x="123" y="308"/>
      <point x="125" y="285"/>
      <point x="149" y="285" type="curve" smooth="yes"/>
      <point x="164" y="285" type="line" smooth="yes"/>
      <point x="284" y="285"/>
      <point x="395" y="345"/>
    </contour>
    <contour>
      <point x="346" y="149" type="curve" smooth="yes"/>
      <point x="374" y="258"/>
      <point x="295" y="315"/>
      <point x="173" y="315" type="curve" smooth="yes"/>
      <point x="145" y="315"/>
      <point x="138" y="328"/>
      <point x="131" y="338" type="curve"/>
      <point x="129" y="330" type="line" smooth="yes"/>
      <point x="118" y="289"/>
      <point x="124" y="253"/>
      <point x="150" y="253" type="curve" smooth="yes"/>
      <point x="153" y="253" type="line" smooth="yes"/>
      <point x="230" y="253"/>
      <point x="266" y="206"/>
      <point x="249" y="136" type="curve" smooth="yes"/>
      <point x="229" y="56"/>
      <point x="170" y="1"/>
      <point x="156" y="-53" type="curve" smooth="yes"/>
      <point x="155" y="-57" type="line" smooth="yes"/>
      <point x="144" y="-104"/>
      <point x="193" y="-110"/>
      <point x="239" y="-102" type="curve"/>
      <point x="230" y="-83"/>
      <point x="230" y="-68"/>
      <point x="235" y="-47" type="curve" smooth="yes"/>
      <point x="245" y="-8"/>
      <point x="323" y="56"/>
    </contour>
    <contour>
      <point x="351" y="-73" type="curve" smooth="yes"/>
      <point x="269" y="-73"/>
      <point x="228" y="-58"/>
      <point x="220" y="-4" type="curve"/>
      <point x="188" y="-9"/>
      <point x="161" y="-34"/>
      <point x="156" y="-54" type="curve" smooth="yes"/>
      <point x="155" y="-58" type="line" smooth="yes"/>
      <point x="135" y="-136"/>
      <point x="203" y="-172"/>
      <point x="341" y="-172" type="curve" smooth="yes"/>
      <point x="346" y="-172" type="line" smooth="yes"/>
      <point x="385" y="-172"/>
      <point x="415" y="-132"/>
      <point x="431" y="-71" type="curve"/>
      <point x="433" y="-63" type="line"/>
      <point x="429" y="-63" type="line"/>
      <point x="402" y="-70"/>
      <point x="382" y="-73"/>
    </contour>
  </outline>
</glyph>
<glyph name="bar" format="1">
  <advance width="600"/>
  <unicode hex="007C"/>
  <outline>
    <contour>
      <point x="362" y="759" type="curve"/>
      <point x="360" y="724"/>
      <point x="354" y="688"/>
      <point x="344" y="649" type="curve" smooth="yes"/>
      <point x="152" y="-118" type="line" smooth="yes"/>
      <point x="145" y="-149"/>
      <point x="170" y="-162"/>
      <point x="221" y="-162" type="curve" smooth="yes"/>
      <point x="231" y="-162"/>
      <point x="239" y="-161"/>
      <point x="245" y="-160" type="curve"/>
      <point x="460" y="699" type="line" smooth="yes"/>
      <point x="466" y="723"/>
      <point x="467" y="738"/>
      <point x="458" y="749" type="curve" smooth="yes"/>
      <point x="450" y="760"/>
      <point x="436" y="764"/>
      <point x="404" y="764" type="curve" smooth="yes"/>
      <point x="389" y="764"/>
      <point x="377" y="762"/>
    </contour>
  </outline>
</glyph>
<glyph name="braceright" format="1">
  <advance width="600"/>
  <unicode hex="007D"/>
  <outline>
    <contour>
      <point x="71" y="-74" type="curve" smooth="yes"/>
      <point x="45" y="-74"/>
      <point x="25" y="-72"/>
      <point x="9" y="-66" type="curve"/>
      <point x="5" y="-66" type="line"/>
      <point x="-1" y="-76"/>
      <point x="-4" y="-85"/>
      <point x="-8" y="-100" type="curve"/>
      <point x="-18" y="-139"/>
      <point x="-2" y="-172"/>
      <point x="36" y="-172" type="curve" smooth="yes"/>
      <point x="41" y="-172" type="line" smooth="yes"/>
      <point x="164" y="-172"/>
      <point x="265" y="-129"/>
      <point x="283" y="-55" type="curve" smooth="yes"/>
      <point x="284" y="-52" type="line" smooth="yes"/>
      <point x="290" y="-29"/>
      <point x="270" y="-6"/>
      <point x="241" y="-4" type="curve"/>
      <point x="204" y="-57"/>
      <point x="145" y="-74"/>
    </contour>
    <contour>
      <point x="195" y="148" type="curve" smooth="yes"/>
      <point x="171" y="52"/>
      <point x="218" y="-7"/>
      <point x="208" y="-45" type="curve" smooth="yes"/>
      <point x="204" y="-64"/>
      <point x="195" y="-78"/>
      <point x="181" y="-96" type="curve"/>
      <point x="224" y="-104"/>
      <point x="273" y="-96"/>
      <point x="284" y="-54" type="curve" smooth="yes"/>
      <point x="285" y="-49" type="line" smooth="yes"/>
      <point x="298" y="5"/>
      <point x="266" y="56"/>
      <point x="286" y="135" type="curve" smooth="yes"/>
      <point x="303" y="206"/>
      <point x="364" y="253"/>
      <point x="478" y="253" type="curve" smooth="yes"/>
      <point x="484" y="253" type="line"/>
      <point x="487" y="263" type="line" smooth="yes"/>
      <point x="493" y="290"/>
      <point x="492" y="313"/>
      <point x="467" y="313" type="curve" smooth="yes"/>
      <point x="453" y="313" type="line" smooth="yes"/>
      <point x="332" y="313"/>
      <point x="221" y="253"/>
    </contour>
    <contour>
      <point x="270" y="449" type="curve" smooth="yes"/>
      <point x="243" y="340"/>
      <point x="321" y="283"/>
      <point x="443" y="283" type="curve" smooth="yes"/>
      <point x="471" y="283"/>
      <point x="478" y="270"/>
      <point x="486" y="260" type="curve"/>
      <point x="488" y="268" type="line" smooth="yes"/>
      <point x="498" y="309"/>
      <point x="492" y="345"/>
      <point x="466" y="345" type="curve" smooth="yes"/>
      <point x="464" y="345" type="line" smooth="yes"/>
      <point x="386" y="345"/>
      <point x="350" y="392"/>
      <point x="367" y="462" type="curve" smooth="yes"/>
      <point x="387" y="542"/>
      <point x="447" y="597"/>
      <point x="460" y="651" type="curve" smooth="yes"/>
      <point x="461" y="655" type="line" smooth="yes"/>
      <point x="473" y="702"/>
      <point x="424" y="708"/>
      <point x="377" y="700" type="curve"/>
      <point x="387" y="681"/>
      <point x="386" y="666"/>
      <point x="381" y="645" type="curve" smooth="yes"/>
      <point x="371" y="606"/>
      <point x="293" y="542"/>
    </contour>
    <contour>
      <point x="265" y="671" type="curve" smooth="yes"/>
      <point x="347" y="671"/>
      <point x="388" y="656"/>
      <point x="396" y="602" type="curve"/>
      <point x="428" y="607"/>
      <point x="455" y="632"/>
      <point x="460" y="652" type="curve" smooth="yes"/>
      <point x="461" y="656" type="line" smooth="yes"/>
      <point x="481" y="734"/>
      <point x="413" y="770"/>
      <point x="275" y="770" type="curve" smooth="yes"/>
      <point x="270" y="770" type="line" smooth="yes"/>
      <point x="232" y="770"/>
      <point x="201" y="730"/>
      <point x="186" y="669" type="curve"/>
      <point x="184" y="661" type="line"/>
      <point x="188" y="661" type="line"/>
      <point x="215" y="668"/>
      <point x="234" y="671"/>
    </contour>
  </outline>
</glyph>
<glyph name="exclamdown" format="1">
  <advance width="600"/>
  <unicode hex="00A1"/>
  <outline>
    <contour>
      <point x="260" y="271" type="line"/>
      <point x="231" y="199"/>
      <point x="199" y="108"/>
      <point x="181" y="36" type="curve"/>
      <point x="142" y="-121" type="line" smooth="yes"/>
      <point x="132" y="-160"/>
      <point x="162" y="-175"/>
      <point x="218" y="-175" type="curve" smooth="yes"/>
      <point x="235" y="-175"/>
      <point x="248" y="-174"/>
      <point x="263" y="-170" type="curve"/>
      <point x="264" y="-135"/>
      <point x="271" y="-99"/>
      <point x="281" y="-60" type="curve" smooth="yes"/>
      <point x="304" y="34" type="line"/>
      <point x="329" y="135"/>
      <point x="345" y="232"/>
      <point x="332" y="250" type="curve" smooth="yes"/>
      <point x="321" y="264"/>
      <point x="300" y="271"/>
      <point x="269" y="271" type="curve"/>
    </contour>
    <contour>
      <point x="284" y="533" type="curve"/>
      <point x="260" y="434" type="line" smooth="yes"/>
      <point x="248" y="386"/>
      <point x="289" y="371"/>
      <point x="344" y="371" type="curve" smooth="yes"/>
      <point x="367" y="371"/>
      <point x="391" y="374"/>
      <point x="411" y="381" type="curve"/>
      <point x="436" y="480" type="line" smooth="yes"/>
      <point x="448" y="528"/>
      <point x="406" y="543"/>
      <point x="351" y="543" type="curve" smooth="yes"/>
      <point x="328" y="543"/>
      <point x="305" y="539"/>
    </contour>
  </outline>
</glyph>
<glyph name="cent" format="1">
  <advance width="600"/>
  <unicode hex="00A2"/>
  <outline>
    <contour>
      <point x="393" y="401" type="line"/>
      <point x="511" y="694" type="line" smooth="yes"/>
      <point x="534" y="748"/>
      <point x="523" y="778"/>
      <point x="471" y="778" type="curve" smooth="yes"/>
      <point x="459" y="778"/>
      <point x="440" y="775"/>
      <point x="428" y="771" type="curve"/>
      <point x="430" y="745"/>
      <point x="427" y="720"/>
      <point x="416" y="678" type="curve"/>
      <point x="356" y="439" type="line" smooth="yes"/>
      <point x="350" y="415"/>
      <point x="367" y="401"/>
      <point x="389" y="401" type="curve" smooth="yes"/>
    </contour>
    <contour>
      <point x="318" y="293" type="line"/>
      <point x="200" y="0" type="line" smooth="yes"/>
      <point x="177" y="-54"/>
      <point x="188" y="-84"/>
      <point x="240" y="-84" type="curve" smooth="yes"/>
      <point x="252" y="-84"/>
      <point x="271" y="-81"/>
      <point x="283" y="-77" type="curve"/>
      <point x="281" y="-51"/>
      <point x="284" y="-26"/>
      <point x="295" y="16" type="curve"/>
      <point x="355" y="255" type="line" smooth="yes"/>
      <point x="361" y="279"/>
      <point x="344" y="293"/>
      <point x="322" y="293" type="curve" smooth="yes"/>
    </contour>
    <contour>
      <point x="439" y="627" type="curve" smooth="yes"/>
      <point x="273" y="627"/>
      <point x="125" y="511"/>
      <point x="76" y="317" type="curve" smooth="yes"/>
      <point x="73" y="304" type="line" smooth="yes"/>
      <point x="38" y="166"/>
      <point x="123" y="73"/>
      <point x="273" y="73" type="curve" smooth="yes"/>
      <point x="290" y="73"/>
      <point x="302" y="87"/>
      <point x="311" y="120" type="curve"/>
      <point x="176" y="150"/>
      <point x="151" y="221"/>
      <point x="172" y="305" type="curve" smooth="yes"/>
      <point x="175" y="317" type="line" smooth="yes"/>
      <point x="205" y="439"/>
      <point x="296" y="527"/>
      <point x="405" y="527" type="curve" smooth="yes"/>
      <point x="479" y="527"/>
      <point x="512" y="507"/>
      <point x="549" y="463" type="curve"/>
      <point x="553" y="463" type="line"/>
      <point x="564" y="480"/>
      <point x="570" y="496"/>
      <point x="576" y="517" type="curve" smooth="yes"/>
      <point x="583" y="547"/>
      <point x="584" y="569"/>
      <point x="573" y="584" type="curve" smooth="yes"/>
      <point x="552" y="611"/>
      <point x="507" y="627"/>
    </contour>
    <contour>
      <point x="148" y="258" type="curve"/>
      <point x="79" y="183"/>
      <point x="151" y="73"/>
      <point x="273" y="73" type="curve" smooth="yes"/>
      <point x="363" y="73"/>
      <point x="424" y="95"/>
      <point x="457" y="122" type="curve" smooth="yes"/>
      <point x="477" y="138"/>
      <point x="495" y="174"/>
      <point x="502" y="199" type="curve"/>
      <point x="505" y="214"/>
      <point x="507" y="223"/>
      <point x="507" y="232" type="curve"/>
      <point x="503" y="232" type="line"/>
      <point x="441" y="189"/>
      <point x="383" y="169"/>
      <point x="302" y="169" type="curve" smooth="yes"/>
      <point x="216" y="169"/>
      <point x="178" y="191"/>
    </contour>
  </outline>
</glyph>
<glyph name="sterling" format="1">
  <advance width="600"/>
  <unicode hex="00A3"/>
  <outline>
    <contour>
      <point x="410" y="621" type="curve" smooth="yes"/>
      <point x="500" y="621"/>
      <point x="555" y="598"/>
      <point x="588" y="538" type="curve"/>
      <point x="592" y="538" type="line"/>
      <point x="602" y="555"/>
      <point x="607" y="569"/>
      <point x="612" y="590" type="curve" smooth="yes"/>
      <point x="622" y="627"/>
      <point x="621" y="646"/>
      <point x="604" y="669" type="curve" smooth="yes"/>
      <point x="582" y="697"/>
      <point x="523" y="719"/>
      <point x="434" y="719" type="curve" smooth="yes"/>
      <point x="285" y="719"/>
      <point x="179" y="645"/>
      <point x="154" y="544" type="curve" smooth="yes"/>
      <point x="151" y="533" type="line" smooth="yes"/>
      <point x="143" y="499"/>
      <point x="174" y="490"/>
      <point x="225" y="487" type="curve"/>
      <point x="247" y="572"/>
      <point x="305" y="621"/>
    </contour>
    <contour>
      <point x="151" y="533" type="curve" smooth="yes"/>
      <point x="120" y="406"/>
      <point x="196" y="306"/>
      <point x="164" y="178" type="curve" smooth="yes"/>
      <point x="149" y="118"/>
      <point x="104" y="84"/>
      <point x="38" y="84" type="curve" smooth="yes"/>
      <point x="25" y="84"/>
      <point x="17" y="85"/>
      <point x="10" y="91" type="curve"/>
      <point x="6" y="91" type="line"/>
      <point x="-1" y="77"/>
      <point x="-5" y="68"/>
      <point x="-9" y="53" type="curve" smooth="yes"/>
      <point x="-20" y="8"/>
      <point x="-9" y="-16"/>
      <point x="34" y="-16" type="curve" smooth="yes"/>
      <point x="40" y="-16" type="line" smooth="yes"/>
      <point x="140" y="-16"/>
      <point x="224" y="55"/>
      <point x="251" y="163" type="curve" smooth="yes"/>
      <point x="284" y="294"/>
      <point x="219" y="401"/>
      <point x="251" y="529" type="curve" smooth="yes"/>
      <point x="258" y="560"/>
      <point x="271" y="587"/>
      <point x="298" y="619" type="curve"/>
      <point x="212" y="619"/>
      <point x="164" y="582"/>
    </contour>
    <contour>
      <point x="158" y="84" type="curve"/>
      <point x="232" y="15"/>
      <point x="296" y="-16"/>
      <point x="386" y="-16" type="curve" smooth="yes"/>
      <point x="394" y="-16" type="line" smooth="yes"/>
      <point x="459" y="-16"/>
      <point x="495" y="19"/>
      <point x="510" y="77" type="curve"/>
      <point x="515" y="100"/>
      <point x="516" y="120"/>
      <point x="514" y="135" type="curve"/>
      <point x="510" y="135" type="line"/>
      <point x="479" y="102"/>
      <point x="449" y="88"/>
      <point x="399" y="88" type="curve" smooth="yes"/>
      <point x="328" y="88"/>
      <point x="270" y="107"/>
      <point x="195" y="152" type="curve"/>
      <point x="170" y="136"/>
      <point x="154" y="106"/>
    </contour>
    <contour>
      <point x="77" y="374" type="line"/>
      <point x="76" y="370"/>
      <point x="75" y="365"/>
      <point x="73" y="360" type="curve" smooth="yes"/>
      <point x="64" y="323"/>
      <point x="64" y="301"/>
      <point x="74" y="288" type="curve" smooth="yes"/>
      <point x="80" y="279"/>
      <point x="91" y="276"/>
      <point x="116" y="276" type="curve" smooth="yes"/>
      <point x="454" y="276" type="line"/>
      <point x="459" y="287"/>
      <point x="464" y="301"/>
      <point x="467" y="311" type="curve" smooth="yes"/>
      <point x="478" y="355"/>
      <point x="472" y="374"/>
      <point x="435" y="374" type="curve" smooth="yes"/>
    </contour>
  </outline>
</glyph>
<glyph name="currency" format="1">
  <advance width="600"/>
  <unicode hex="00A4"/>
  <outline>
    <contour>
      <point x="286" y="418" type="curve"/>
      <point x="265" y="439"/>
      <point x="247" y="463"/>
      <point x="232" y="490" type="curve" smooth="yes"/>
      <point x="226" y="502"/>
      <point x="217" y="508"/>
      <point x="207" y="508" type="curve" smooth="yes"/>
      <point x="193" y="508"/>
      <point x="177" y="500"/>
      <point x="157" y="484" type="curve" smooth="yes"/>
      <point x="148" y="477"/>
      <point x="137" y="466"/>
      <point x="128" y="457" type="curve"/>
      <point x="140" y="436"/>
      <point x="155" y="416"/>
      <point x="170" y="399" type="curve" smooth="yes"/>
      <point x="192" y="374"/>
      <point x="234" y="377"/>
      <point x="273" y="408" type="curve" smooth="yes"/>
      <point x="278" y="412"/>
      <point x="282" y="415"/>
    </contour>
    <contour>
      <point x="389" y="418" type="curve"/>
      <point x="391" y="415"/>
      <point x="394" y="411"/>
      <point x="396" y="408" type="curve" smooth="yes"/>
      <point x="420" y="376"/>
      <point x="454" y="370"/>
      <point x="492" y="396" type="curve" smooth="yes"/>
      <point x="517" y="414"/>
      <point x="542" y="434"/>
      <point x="566" y="456" type="curve"/>
      <point x="562" y="466"/>
      <point x="556" y="476"/>
      <point x="550" y="484" type="curve" smooth="yes"/>
      <point x="539" y="500"/>
      <point x="527" y="508"/>
      <point x="513" y="508" type="curve" smooth="yes"/>
      <point x="503" y="508"/>
      <point x="492" y="502"/>
      <point x="479" y="490" type="curve" smooth="yes"/>
      <point x="450" y="462"/>
      <point x="420" y="438"/>
    </contour>
    <contour>
      <point x="329" y="178" type="curve"/>
      <point x="349" y="157"/>
      <point x="367" y="133"/>
      <point x="382" y="107" type="curve" smooth="yes"/>
      <point x="389" y="94"/>
      <point x="398" y="88"/>
      <point x="408" y="88" type="curve" smooth="yes"/>
      <point x="421" y="88"/>
      <point x="438" y="97"/>
      <point x="457" y="112" type="curve" smooth="yes"/>
      <point x="466" y="120"/>
      <point x="477" y="130"/>
      <point x="486" y="140" type="curve"/>
      <point x="474" y="161"/>
      <point x="460" y="181"/>
      <point x="445" y="197" type="curve" smooth="yes"/>
      <point x="423" y="223"/>
      <point x="380" y="220"/>
      <point x="341" y="188" type="curve" smooth="yes"/>
      <point x="337" y="185"/>
      <point x="332" y="181"/>
    </contour>
    <contour>
      <point x="224" y="178" type="curve"/>
      <point x="222" y="181"/>
      <point x="219" y="185"/>
      <point x="216" y="188" type="curve" smooth="yes"/>
      <point x="192" y="220"/>
      <point x="158" y="226"/>
      <point x="120" y="200" type="curve" smooth="yes"/>
      <point x="96" y="182"/>
      <point x="71" y="162"/>
      <point x="47" y="140" type="curve"/>
      <point x="51" y="130"/>
      <point x="56" y="120"/>
      <point x="62" y="112" type="curve" smooth="yes"/>
      <point x="74" y="96"/>
      <point x="86" y="88"/>
      <point x="99" y="88" type="curve" smooth="yes"/>
      <point x="110" y="88"/>
      <point x="121" y="94"/>
      <point x="134" y="106" type="curve" smooth="yes"/>
      <point x="163" y="134"/>
      <point x="193" y="158"/>
    </contour>
    <contour>
      <point x="296" y="184" type="curve"/>
      <point x="229" y="184"/>
      <point x="198" y="226"/>
      <point x="215" y="293" type="curve" smooth="yes"/>
      <point x="217" y="300" type="line" smooth="yes"/>
      <point x="233" y="365"/>
      <point x="277" y="402"/>
      <point x="341" y="402" type="curve" smooth="yes"/>
      <point x="371" y="402"/>
      <point x="390" y="396"/>
      <point x="413" y="374" type="curve"/>
      <point x="442" y="419"/>
      <point x="416" y="474"/>
      <point x="354" y="474" type="curve"/>
      <point x="254" y="474"/>
      <point x="167" y="402"/>
      <point x="141" y="301" type="curve" smooth="yes"/>
      <point x="140" y="294" type="line" smooth="yes"/>
      <point x="115" y="196"/>
      <point x="167" y="130"/>
      <point x="262" y="130" type="curve"/>
      <point x="276" y="130"/>
      <point x="289" y="153"/>
    </contour>
    <contour>
      <point x="318" y="415" type="curve"/>
      <point x="386" y="415"/>
      <point x="417" y="374"/>
      <point x="400" y="310" type="curve" smooth="yes"/>
      <point x="399" y="303" type="line" smooth="yes"/>
      <point x="383" y="239"/>
      <point x="339" y="201"/>
      <point x="275" y="201" type="curve" smooth="yes"/>
      <point x="245" y="201"/>
      <point x="226" y="208"/>
      <point x="203" y="230" type="curve"/>
      <point x="173" y="184"/>
      <point x="200" y="130"/>
      <point x="262" y="130" type="curve"/>
      <point x="361" y="130"/>
      <point x="449" y="201"/>
      <point x="474" y="302" type="curve" smooth="yes"/>
      <point x="476" y="309" type="line" smooth="yes"/>
      <point x="501" y="408"/>
      <point x="448" y="474"/>
      <point x="354" y="474" type="curve"/>
      <point x="340" y="474"/>
      <point x="328" y="455"/>
    </contour>
  </outline>
</glyph>
<glyph name="yen" format="1">
  <advance width="600"/>
  <unicode hex="00A5"/>
  <outline>
    <contour>
      <point x="58" y="404" type="line"/>
      <point x="56" y="400"/>
      <point x="55" y="395"/>
      <point x="54" y="390" type="curve" smooth="yes"/>
      <point x="46" y="358"/>
      <point x="48" y="340"/>
      <point x="57" y="328" type="curve" smooth="yes"/>
      <point x="63" y="319"/>
      <point x="74" y="315"/>
      <point x="99" y="315" type="curve"/>
      <point x="210" y="315" type="line"/>
      <point x="215" y="327"/>
      <point x="219" y="340"/>
      <point x="222" y="351" type="curve" smooth="yes"/>
      <point x="231" y="387"/>
      <point x="225" y="404"/>
      <point x="188" y="404" type="curve"/>
    </contour>
    <contour>
      <point x="417" y="404" type="line"/>
      <point x="407" y="390"/>
      <point x="400" y="378"/>
      <point x="396" y="360" type="curve" smooth="yes"/>
      <point x="390" y="336"/>
      <point x="401" y="315"/>
      <point x="425" y="315" type="curve"/>
      <point x="586" y="315" type="line"/>
      <point x="591" y="327"/>
      <point x="595" y="340"/>
      <point x="598" y="351" type="curve" smooth="yes"/>
      <point x="607" y="387"/>
      <point x="601" y="404"/>
      <point x="564" y="404" type="curve"/>
    </contour>
    <contour>
      <point x="532" y="113" type="line"/>
      <point x="535" y="119"/>
      <point x="537" y="127"/>
      <point x="539" y="134" type="curve" smooth="yes"/>
      <point x="546" y="161"/>
      <point x="544" y="178"/>
      <point x="535" y="190" type="curve" smooth="yes"/>
      <point x="528" y="198"/>
      <point x="517" y="202"/>
      <point x="492" y="202" type="curve"/>
      <point x="15" y="202" type="line"/>
      <point x="10" y="190"/>
      <point x="6" y="177"/>
      <point x="3" y="166" type="curve" smooth="yes"/>
      <point x="-6" y="130"/>
      <point x="0" y="113"/>
      <point x="37" y="113" type="curve"/>
    </contour>
    <contour>
      <point x="155" y="710" type="line"/>
      <point x="127" y="459"/>
      <point x="152" y="343"/>
      <point x="233" y="234" type="curve"/>
      <point x="250" y="212"/>
      <point x="270" y="210"/>
      <point x="287" y="210" type="curve"/>
      <point x="315" y="210"/>
      <point x="336" y="225"/>
      <point x="348" y="272" type="curve"/>
      <point x="258" y="363"/>
      <point x="229" y="444"/>
      <point x="254" y="676" type="curve"/>
      <point x="257" y="696"/>
      <point x="217" y="710"/>
      <point x="172" y="710" type="curve" smooth="yes"/>
    </contour>
    <contour>
      <point x="564" y="710" type="line"/>
      <point x="479" y="478"/>
      <point x="412" y="385"/>
      <point x="272" y="281" type="curve"/>
      <point x="241" y="259"/>
      <point x="255" y="210"/>
      <point x="287" y="210" type="curve"/>
      <point x="321" y="210" type="line"/>
      <point x="462" y="316"/>
      <point x="573" y="453"/>
      <point x="650" y="660" type="curve"/>
      <point x="659" y="688"/>
      <point x="625" y="710"/>
      <point x="581" y="710" type="curve"/>
    </contour>
    <contour>
      <point x="294" y="-5" type="curve"/>
      <point x="295" y="30"/>
      <point x="302" y="66"/>
      <point x="311" y="105" type="curve" smooth="yes"/>
      <point x="347" y="247" type="line" smooth="yes"/>
      <point x="354" y="276"/>
      <point x="312" y="292"/>
      <point x="255" y="292" type="curve"/>
      <point x="195" y="55" type="line" smooth="yes"/>
      <point x="190" y="31"/>
      <point x="189" y="16"/>
      <point x="197" y="5" type="curve" smooth="yes"/>
      <point x="205" y="-6"/>
      <point x="220" y="-10"/>
      <point x="251" y="-10" type="curve" smooth="yes"/>
      <point x="266" y="-10"/>
      <point x="279" y="-9"/>
    </contour>
  </outline>
</glyph>
<glyph name="brokenbar" format="1">
  <advance width="600"/>
  <unicode hex="00A6"/>
  <outline>
    <contour>
      <point x="362" y="759" type="curve"/>
      <point x="360" y="724"/>
      <point x="354" y="688"/>
      <point x="344" y="649" type="curve" smooth="yes"/>
      <point x="285" y="412" type="line" smooth="yes"/>
      <point x="277" y="381"/>
      <point x="303" y="368"/>
      <point x="354" y="368" type="curve" smooth="yes"/>
      <point x="364" y="368"/>
      <point x="372" y="369"/>
      <point x="377" y="370" type="curve"/>
      <point x="460" y="699" type="line" smooth="yes"/>
      <point x="466" y="723"/>
      <point x="467" y="738"/>
      <point x="458" y="749" type="curve" smooth="yes"/>
      <point x="450" y="760"/>
      <point x="436" y="764"/>
      <point x="404" y="764" type="curve" smooth="yes"/>
      <point x="389" y="764"/>
      <point x="377" y="762"/>
    </contour>
    <contour>
      <point x="239" y="229" type="curve"/>
      <point x="152" y="-118" type="line"/>
      <point x="145" y="-149"/>
      <point x="170" y="-162"/>
      <point x="221" y="-162" type="curve" smooth="yes"/>
      <point x="231" y="-162"/>
      <point x="239" y="-161"/>
      <point x="245" y="-160" type="curve"/>
      <point x="330" y="181" type="line" smooth="yes"/>
      <point x="340" y="218"/>
      <point x="326" y="234"/>
      <point x="276" y="234" type="curve" smooth="yes"/>
      <point x="262" y="234"/>
      <point x="249" y="232"/>
    </contour>
  </outline>
</glyph>
